{
.appVersion = "983";
DisplayStrings = (
"THE UIK BROWN FOX JUMPS OVER THE LAZY DOG\012        \012W             AT? \012S         .\012A          .\012A        .\012J          \012J  A      \012T           .\012F       .\012T          ,   F ,      ,    A .\012SIXTY ZIPPERS WERE UIKLY PIKED FROM THE WOVEN JUTE BAG.\012M         - .\012THE BEIGE HUE ON THE WATERS OF THE LOH IMPRESSED ALL, INLUDING THE FRENH UEEN, BEFORE SHE HEARD THAT SYMPHONY AGAIN, JUST AS YOUNG ARTHUR WANTED.\012\012HAHBHHDHEHFHGHHIHJHKHLHMHNHOHPHHRHSHTHUHVHWHXHYHZH \012ASBSSDSESFSGSHSISJSKSLSMSNSOSPSSRSSTSUSVSWSSYSZXSYAYABYADAEAFAGAHAIAJAKALAMANAOAPAPAARASATAUAVAWAXAWAYAZA",
"a\U00E1/abreve \U00E2\U00E4`\U00E0/amacron/aogonek/ring \U00E5/tilde \U00E3\U00E6bc/cacute/ccaron \U00E7/cdotaccent d/dcaron/dcroat e\U00B4\U00E9/ecaron/circumflex \U00EA\U00EB/edotaccent \U00E8/emacron/eogonek fg/gbreve/gcommaaccent/gdotaccent h/hbar i /dotlessi  \U00ED \U00EE \U00EF /idotaccent  `\U00EC /imacron  /iogonek  j k /kcommaaccent  l \U00B4/lacute  /lcaron  /lcommaaccent  /lslash  mn/nacute/ncaron/ncommaaccent/eng/tilde \U00F1o\U00F3/circumflex \U00F4\U00A8\U00F6`\U00F2/hungarumlaut/ohungarumlaut/omacron \U00F8/tilde \U00F5e/oe p\U00FEqr/racute/rcaron/rcommaaccent s/sacute/scaron/scedilla/scommaaccent \U00DFt/tbar/tcaron/tcommaaccent u\U00FA\U00FB\U00FC\U00F9/uhungarumlaut/umacron/uogonek/uring vw/wacute/wcircumflex/wdieresis/wgrave xy\U00FD/ycircumflex/ydieresis/ygrave z/zacute/zcaron/zdotaccent \U00F0/e.001/f.001/g.001/y.001/z.001/k.ss01",
"*/backslash \U00B7/bullet :,/ellipsis !\U00A1#.?\U00BF\"';//_{}[]()/emdash/endash -\U00AB\U00BB/guilsinglleft/guilsinglright/quotedblbase/quotedblleft/quotedblright/quoteleft/quoteright/quotesinglbase  /.notdef \U00A2$/euro \U00A3\U00A5+/minus \U00D7\U00F7=/notequal ></greaterequal/lessequal \U00B1~%/perthousand @&\U00B6\U00A7\U00A9\U00AE/trademark \U00B0|\U00A6/dagger/daggerdbl ^"
);
customParameters = (
{
name = note;

glyphs = (
{
glyphname = A;
lastChange = "2017-06-25 12:04:12 +0000";
layers = (
{
layerId = "6F85D940-A117-47EE-950D-70F837F8C9CE";
paths = (
{
closed = 1;
nodes = (
"-103 0 LINE",
"103 0 LINE",
"193 165 LINE",
"507 165 LINE",
"539 0 LINE",
"737 0 LINE",
"550 825 LINE",
"376 825 LINE"
);
},
{
closed = 1;
nodes = (
"422 570 LINE",
"423 570 LINE",
"472 330 LINE",
"286 330 LINE"
);
}
);
width = 784;
},
{
layerId = "7984B694-437B-44C7-A8AE-41A7C9CC5720";
paths = (
{
closed = 1;
nodes = (
"-85 0 LINE",
"-8 0 LINE",
"109 214 LINE",
"467 214 LINE",
"508 0 LINE",
"583 0 LINE",
"429 825 LINE",
"359 825 LINE"
);
},
{
closed = 1;
nodes = (
"376 723 LINE",
"378 723 LINE",
"459 279 LINE",
"139 279 LINE"
);
}
);
width = 644;
}
);
leftKerningGroup = A;
rightKerningGroup = A;
unicode = 0041;
},
{
glyphname = AE;
lastChange = "2017-06-25 12:04:12 +0000";
layers = (
{
components = (
{
alignment = -1;
name = E;
transform = "{1, 0, 0, 1, 442, 0}";
}
);
layerId = "6F85D940-A117-47EE-950D-70F837F8C9CE";
paths = (
{
closed = 1;
nodes = (
"-80 0 LINE",
"136 0 LINE",
"245 165 LINE",
"556 165 LINE",
"709 825 LINE",
"513 825 LINE"
);
},
{
closed = 1;
nodes = (
"534 570 LINE",
"534 570 LINE",
"491 330 LINE",
"368 330 LINE"
);
}
);
width = 1039;
},
{
components = (
{
alignment = -1;
name = E;
transform = "{1, 0, 0, 1, 407, 0}";
}
);
layerId = "7984B694-437B-44C7-A8AE-41A7C9CC5720";
paths = (
{
closed = 1;
nodes = (
"-79 0 LINE",
"-1 0 LINE",
"160 214 LINE",
"501 214 LINE",
"609 825 LINE",
"538 825 LINE"
);
},
{
closed = 1;
nodes = (
"535 723 LINE",
"536 723 LINE",
"458 279 LINE",
"204 279 LINE"
);
}
);
width = 944;
}
);
rightKerningGroup = d;
unicode = 00C6;
},
{
glyphname = B;
lastChange = "2017-06-25 12:04:12 +0000";
layers = (
{
layerId = "6F85D940-A117-47EE-950D-70F837F8C9CE";
paths = (
{
closed = 1;
nodes = (
"-13 0 LINE",
"310 0 LINE SMOOTH",
"481 0 OFFCURVE",
"586 87 OFFCURVE",
"609 217 CURVE SMOOTH",
"633 356 OFFCURVE",
"575 419 OFFCURVE",
"481 435 CURVE",
"561 454 OFFCURVE",
"625 511 OFFCURVE",
"641 602 CURVE SMOOTH",
"670 765 OFFCURVE",
"553 825 OFFCURVE",
"411 825 CURVE SMOOTH",
"133 825 LINE"
);
},
{
closed = 1;
nodes = (
"235 340 LINE",
"300 340 LINE SMOOTH",
"389 340 OFFCURVE",
"429 320 OFFCURVE",
"416 250 CURVE SMOOTH",
"404 179 OFFCURVE",
"343 145 OFFCURVE",
"254 145 CURVE SMOOTH",
"201 145 LINE"
);
},
{
closed = 1;
nodes = (
"295 680 LINE",
"354 680 LINE SMOOTH",
"436 680 OFFCURVE",
"466 662 OFFCURVE",
"457 609 CURVE SMOOTH",
"443 534 OFFCURVE",
"392 502 OFFCURVE",
"311 502 CURVE SMOOTH",
"264 502 LINE"
);
}
);
width = 666;
},
{
layerId = "7984B694-437B-44C7-A8AE-41A7C9CC5720";
paths = (
{
closed = 1;
nodes = (
"-13 0 LINE",
"247 0 LINE SMOOTH",
"418 0 OFFCURVE",
"505 102 OFFCURVE",
"527 225 CURVE SMOOTH",
"550 355 OFFCURVE",
"450 419 OFFCURVE",
"394 423 CURVE",
"451 434 OFFCURVE",
"536 516 OFFCURVE",
"555 620 CURVE SMOOTH",
"583 780 OFFCURVE",
"466 825 OFFCURVE",
"334 825 CURVE SMOOTH",
"133 825 LINE"
);
},
{
closed = 1;
nodes = (
"124 390 LINE",
"305 390 LINE SMOOTH",
"434 390 OFFCURVE",
"475 315 OFFCURVE",
"460 232 CURVE SMOOTH",
"446 154 OFFCURVE",
"392 65 OFFCURVE",
"253 65 CURVE SMOOTH",
"67 65 LINE"
);
},
{
closed = 1;
nodes = (
"189 760 LINE",
"335 760 LINE SMOOTH",
"457 760 OFFCURVE",
"506 717 OFFCURVE",
"489 621 CURVE SMOOTH",
"474 539 OFFCURVE",
"407 452 OFFCURVE",
"296 452 CURVE SMOOTH",
"135 452 LINE"
);
}
);
width = 593;
}
);
rightKerningGroup = d;
unicode = 0042;
},
{
glyphname = C;
lastChange = "2017-06-25 12:04:12 +0000";
layers = (
{
layerId = "6F85D940-A117-47EE-950D-70F837F8C9CE";
paths = (
{
closed = 1;
nodes = (
"261 170 OFFCURVE",
"206 295 OFFCURVE",
"225 400 CURVE SMOOTH",
"245 516 OFFCURVE",
"359 655 OFFCURVE",
"553 655 CURVE SMOOTH",
"644 655 OFFCURVE",
"693 610 OFFCURVE",
"693 610 CURVE",
"799 764 LINE",
"797 764 OFFCURVE",
"719 840 OFFCURVE",
"534 840 CURVE SMOOTH",
"306 840 OFFCURVE",
"66 655 OFFCURVE",
"25 424 CURVE SMOOTH",
"-18 182 OFFCURVE",
"167 -15 OFFCURVE",
"406 -15 CURVE SMOOTH",
"579 -15 OFFCURVE",
"683 67 OFFCURVE",
"683 67 CURVE",
"631 221 LINE",
"633 221 OFFCURVE",
"546 170 OFFCURVE",
"445 170 CURVE SMOOTH"
);
}
);
width = 761;
},
{
layerId = "7984B694-437B-44C7-A8AE-41A7C9CC5720";
paths = (
{
closed = 1;
nodes = (
"187 48 OFFCURVE",
"59 200 OFFCURVE",
"96 408 CURVE SMOOTH",
"134 621 OFFCURVE",
"321 777 OFFCURVE",
"512 777 CURVE SMOOTH",
"666 777 OFFCURVE",
"732 706 OFFCURVE",
"732 706 CURVE",
"772 764 LINE",
"771 764 OFFCURVE",
"692 840 OFFCURVE",
"511 840 CURVE SMOOTH",
"279 840 OFFCURVE",
"65 650 OFFCURVE",
"24 416 CURVE SMOOTH",
"-18 177 OFFCURVE",
"134 -15 OFFCURVE",
"369 -15 CURVE SMOOTH",
"546 -15 OFFCURVE",
"650 63 OFFCURVE",
"650 63 CURVE",
"631 121 LINE",
"632 121 OFFCURVE",
"532 48 OFFCURVE",
"374 48 CURVE SMOOTH"
);
}
);
width = 731;
}
);
unicode = 0043;
},
{
glyphname = D;
lastChange = "2017-06-25 12:04:12 +0000";
layers = (
{
layerId = "6F85D940-A117-47EE-950D-70F837F8C9CE";
paths = (
{
closed = 1;
nodes = (
"-13 0 LINE",
"242 0 LINE SMOOTH",
"469 0 OFFCURVE",
"656 165 OFFCURVE",
"698 400 CURVE SMOOTH",
"741 646 OFFCURVE",
"602 825 OFFCURVE",
"376 825 CURVE SMOOTH",
"133 825 LINE"
);
},
{
closed = 1;
nodes = (
"336 657 LINE SMOOTH",
"476 657 OFFCURVE",
"527 557 OFFCURVE",
"504 425 CURVE SMOOTH",
"478 281 OFFCURVE",
"377 168 OFFCURVE",
"238 168 CURVE SMOOTH",
"205 168 LINE",
"291 657 LINE"
);
}
);
width = 722;
},
{
layerId = "7984B694-437B-44C7-A8AE-41A7C9CC5720";
paths = (
{
closed = 1;
nodes = (
"-13 0 LINE",
"159 0 LINE SMOOTH",
"416 0 OFFCURVE",
"567 170 OFFCURVE",
"609 408 CURVE SMOOTH",
"652 651 OFFCURVE",
"555 825 OFFCURVE",
"299 825 CURVE SMOOTH",
"133 825 LINE"
);
},
{
closed = 1;
nodes = (
"270 757 LINE SMOOTH",
"490 757 OFFCURVE",
"582 632 OFFCURVE",
"543 417 CURVE SMOOTH",
"503 196 OFFCURVE",
"363 68 OFFCURVE",
"144 68 CURVE SMOOTH",
"67 68 LINE",
"189 757 LINE"
);
}
);
width = 635;
}
);
rightKerningGroup = d;
unicode = 0044;
},
{
glyphname = Eth;
lastChange = "2017-06-25 12:04:12 +0000";
layers = (
{
layerId = "6F85D940-A117-47EE-950D-70F837F8C9CE";
paths = (
{
closed = 1;
nodes = (
"171 825 LINE",
"111 489 LINE",
"29 489 LINE",
"3 336 LINE",
"85 336 LINE",
"25 0 LINE",
"270 0 LINE SMOOTH",
"496 0 OFFCURVE",
"708 164 OFFCURVE",
"751 399 CURVE SMOOTH",
"794 646 OFFCURVE",
"631 825 OFFCURVE",
"404 825 CURVE SMOOTH"
);
},
{
closed = 1;
nodes = (
"243 168 LINE",
"273 336 LINE",
"382 336 LINE",
"408 489 LINE",
"299 489 LINE",
"329 657 LINE",
"364 657 LINE SMOOTH",
"503 657 OFFCURVE",
"574 557 OFFCURVE",
"552 426 CURVE SMOOTH",
"527 282 OFFCURVE",
"406 168 OFFCURVE",
"266 168 CURVE SMOOTH"
);
}
);
width = 776;
},
{
layerId = "7984B694-437B-44C7-A8AE-41A7C9CC5720";
paths = (
{
closed = 1;
nodes = (
"223 825 LINE",
"155 439 LINE",
"21 439 LINE",
"11 386 LINE",
"145 386 LINE",
"77 0 LINE",
"249 0 LINE SMOOTH",
"506 0 OFFCURVE",
"657 170 OFFCURVE",
"699 408 CURVE SMOOTH",
"742 651 OFFCURVE",
"645 825 OFFCURVE",
"389 825 CURVE SMOOTH"
);
},
{
closed = 1;
nodes = (
"157 68 LINE",
"213 386 LINE",
"360 386 LINE",
"370 439 LINE",
"223 439 LINE",
"279 757 LINE",
"360 757 LINE SMOOTH",
"580 757 OFFCURVE",
"672 632 OFFCURVE",
"633 417 CURVE SMOOTH",
"593 196 OFFCURVE",
"453 68 OFFCURVE",
"234 68 CURVE SMOOTH"
);
}
);
width = 723;
}
);
rightKerningGroup = d;
unicode = 00D0;
},
{
glyphname = Dcroat;
lastChange = "2017-06-25 12:04:12 +0000";
layers = (
{
layerId = "6F85D940-A117-47EE-950D-70F837F8C9CE";
paths = (
{
closed = 1;
nodes = (
"270 0 LINE SMOOTH",
"497 0 OFFCURVE",
"709 165 OFFCURVE",
"751 400 CURVE SMOOTH",
"794 646 OFFCURVE",
"630 825 OFFCURVE",
"404 825 CURVE SMOOTH",
"171 825 LINE",
"111 489 LINE",
"29 489 LINE",
"3 336 LINE",
"85 336 LINE",
"25 0 LINE"
);
},
{
closed = 1;
nodes = (
"273 336 LINE",
"382 336 LINE",
"408 489 LINE",
"299 489 LINE",
"329 657 LINE",
"364 657 LINE SMOOTH",
"504 657 OFFCURVE",
"575 557 OFFCURVE",
"552 425 CURVE SMOOTH",
"526 281 OFFCURVE",
"405 168 OFFCURVE",
"266 168 CURVE SMOOTH",
"243 168 LINE"
);
}
);
width = 776;
},
{
layerId = "7984B694-437B-44C7-A8AE-41A7C9CC5720";
paths = (
{
closed = 1;
nodes = (
"249 0 LINE SMOOTH",
"506 0 OFFCURVE",
"657 170 OFFCURVE",
"699 408 CURVE SMOOTH",
"742 651 OFFCURVE",
"645 825 OFFCURVE",
"389 825 CURVE SMOOTH",
"223 825 LINE",
"155 439 LINE",
"21 439 LINE",
"11 386 LINE",
"145 386 LINE",
"77 0 LINE"
);
},
{
closed = 1;
nodes = (
"213 386 LINE",
"360 386 LINE",
"370 439 LINE",
"223 439 LINE",
"279 757 LINE",
"360 757 LINE SMOOTH",
"580 757 OFFCURVE",
"672 632 OFFCURVE",
"633 417 CURVE SMOOTH",
"593 196 OFFCURVE",
"453 68 OFFCURVE",
"234 68 CURVE SMOOTH",
"157 68 LINE"
);
}
);
width = 723;
}
);
rightKerningGroup = d;
unicode = 0110;
},
{
glyphname = E;
lastChange = "2017-06-25 12:04:12 +0000";
layers = (
{
layerId = "6F85D940-A117-47EE-950D-70F837F8C9CE";
paths = (
{
closed = 1;
nodes = (
"-13 0 LINE",
"479 0 LINE",
"508 165 LINE",
"204 165 LINE",
"234 331 LINE",
"526 331 LINE",
"555 496 LINE",
"263 496 LINE",
"292 660 LINE",
"596 660 LINE",
"625 825 LINE",
"133 825 LINE"
);
}
);
width = 600;
},
{
layerId = "7984B694-437B-44C7-A8AE-41A7C9CC5720";
paths = (
{
closed = 1;
nodes = (
"-3 0 LINE",
"419 0 LINE",
"431 65 LINE",
"77 65 LINE",
"132 381 LINE",
"474 381 LINE",
"486 446 LINE",
"144 446 LINE",
"199 760 LINE",
"553 760 LINE",
"565 825 LINE",
"143 825 LINE"
);
}
);
width = 552;
}
);
rightKerningGroup = E;
unicode = 0045;
},
{
glyphname = F;
lastChange = "2017-06-25 12:04:12 +0000";
layers = (
{
layerId = "6F85D940-A117-47EE-950D-70F837F8C9CE";
paths = (
{
closed = 1;
nodes = (
"-13 0 LINE",
"175 0 LINE",
"234 331 LINE",
"501 331 LINE",
"530 496 LINE",
"263 496 LINE",
"292 660 LINE",
"581 660 LINE",
"610 825 LINE",
"133 825 LINE"
);
}
);
width = 567;
},
{
layerId = "7984B694-437B-44C7-A8AE-41A7C9CC5720";
paths = (
{
closed = 1;
nodes = (
"-13 0 LINE",
"55 0 LINE",
"122 381 LINE",
"439 381 LINE",
"451 446 LINE",
"134 446 LINE",
"189 760 LINE",
"528 760 LINE",
"540 825 LINE",
"133 825 LINE"
);
}
);
width = 497;
}
);
rightKerningGroup = d;
unicode = 0046;
},
{
glyphname = G;
lastChange = "2017-06-25 12:04:12 +0000";
layers = (
{
layerId = "6F85D940-A117-47EE-950D-70F837F8C9CE";
paths = (
{
closed = 1;
nodes = (
"408 317 LINE",
"599 324 LINE",
"582 223 OFFCURVE",
"489 161 OFFCURVE",
"380 161 CURVE SMOOTH",
"270 161 OFFCURVE",
"200 265 OFFCURVE",
"224 399 CURVE SMOOTH",
"250 548 OFFCURVE",
"371 667 OFFCURVE",
"492 667 CURVE SMOOTH",
"560 667 OFFCURVE",
"616 647 OFFCURVE",
"651 570 CURVE",
"791 694 LINE",
"732 781 OFFCURVE",
"640 840 OFFCURVE",
"489 840 CURVE SMOOTH",
"263 840 OFFCURVE",
"66 656 OFFCURVE",
"25 425 CURVE SMOOTH",
"-18 183 OFFCURVE",
"133 -15 OFFCURVE",
"361 -15 CURVE SMOOTH",
"704 -15 OFFCURVE",
"781 284 OFFCURVE",
"795 318 CURVE",
"819 462 LINE",
"434 462 LINE"
);
}
);
width = 829;
},
{
layerId = "7984B694-437B-44C7-A8AE-41A7C9CC5720";
paths = (
{
closed = 1;
nodes = (
"389 377 LINE",
"669 379 LINE",
"633 176 OFFCURVE",
"502 53 OFFCURVE",
"327 53 CURVE SMOOTH",
"150 53 OFFCURVE",
"58 200 OFFCURVE",
"95 407 CURVE SMOOTH",
"133 623 OFFCURVE",
"297 774 OFFCURVE",
"465 774 CURVE SMOOTH",
"602 774 OFFCURVE",
"652 712 OFFCURVE",
"676 685 CURVE",
"734 730 LINE",
"702 766 OFFCURVE",
"635 840 OFFCURVE",
"468 840 CURVE SMOOTH",
"248 840 OFFCURVE",
"65 651 OFFCURVE",
"24 417 CURVE SMOOTH",
"-18 178 OFFCURVE",
"90 -15 OFFCURVE",
"324 -15 CURVE SMOOTH",
"671 -15 OFFCURVE",
"739 348 OFFCURVE",
"745 382 CURVE",
"755 442 LINE",
"400 442 LINE"
);
}
);
width = 769;
}
);
leftKerningGroup = G;
rightKerningGroup = d;
unicode = 0047;
},
{
glyphname = H;
lastChange = "2017-06-25 12:04:12 +0000";
layers = (
{
layerId = "6F85D940-A117-47EE-950D-70F837F8C9CE";
paths = (
{
closed = 1;
nodes = (
"441 0 LINE",
"629 0 LINE",
"775 825 LINE",
"587 825 LINE",
"529 496 LINE",
"263 496 LINE",
"321 825 LINE",
"133 825 LINE",
"-13 0 LINE",
"175 0 LINE",
"234 331 LINE",
"500 331 LINE"
);
}
);
width = 762;
},
{
layerId = "7984B694-437B-44C7-A8AE-41A7C9CC5720";
paths = (
{
closed = 1;
nodes = (
"451 0 LINE",
"519 0 LINE",
"665 825 LINE",
"597 825 LINE",
"530 446 LINE",
"134 446 LINE",
"201 825 LINE",
"133 825 LINE",
"-13 0 LINE",
"55 0 LINE",
"122 381 LINE",
"518 381 LINE"
);
}
);
width = 652;
}
);
rightKerningGroup = d;
unicode = 0048;
},
{
glyphname = Hbar;
lastChange = "2017-06-25 12:04:12 +0000";
layers = (
{
components = (
{
name = H;
}
);
layerId = "6F85D940-A117-47EE-950D-70F837F8C9CE";
paths = (
{
closed = 1;
nodes = (
"28 578 LINE",
"790 578 LINE",
"815 718 LINE",
"53 718 LINE"
);
}
);
width = 762;
},
{
components = (
{
name = H;
}
);
layerId = "7984B694-437B-44C7-A8AE-41A7C9CC5720";
paths = (
{
closed = 1;
nodes = (
"37 628 LINE",
"699 628 LINE",
"708 678 LINE",
"46 678 LINE"
);
}
);
width = 652;
}
);
unicode = 0126;
},
{
glyphname = I;
lastChange = "2017-06-25 12:04:12 +0000";
layers = (
{
layerId = "6F85D940-A117-47EE-950D-70F837F8C9CE";
paths = (
{
closed = 1;
nodes = (
"-13 0 LINE",
"175 0 LINE",
"321 825 LINE",
"133 825 LINE"
);
}
);
width = 308;
},
{
layerId = "7984B694-437B-44C7-A8AE-41A7C9CC5720";
paths = (
{
closed = 1;
nodes = (
"-3 0 LINE",
"65 0 LINE",
"211 825 LINE",
"143 825 LINE"
);
}
);
width = 208;
}
);
leftKerningGroup = i;
rightKerningGroup = d;
unicode = 0049;
},
{
glyphname = J;
lastChange = "2017-06-25 12:04:12 +0000";
layers = (
{
layerId = "6F85D940-A117-47EE-950D-70F837F8C9CE";
paths = (
{
closed = 1;
nodes = (
"492 825 LINE",
"304 825 LINE",
"209 288 LINE SMOOTH",
"194 205 OFFCURVE",
"141 165 OFFCURVE",
"81 165 CURVE SMOOTH",
"39 165 OFFCURVE",
"-4 215 OFFCURVE",
"-4 215 CURVE",
"-89 64 LINE",
"-87 64 OFFCURVE",
"-26 -15 OFFCURVE",
"98 -15 CURVE SMOOTH",
"257 -15 OFFCURVE",
"358 64 OFFCURVE",
"386 226 CURVE SMOOTH"
);
}
);
width = 469;
},
{
layerId = "7984B694-437B-44C7-A8AE-41A7C9CC5720";
paths = (
{
closed = 1;
nodes = (
"442 825 LINE",
"374 825 LINE",
"271 243 LINE SMOOTH",
"257 160 OFFCURVE",
"229 45 OFFCURVE",
"97 45 CURVE SMOOTH",
"-13 45 OFFCURVE",
"-53 127 OFFCURVE",
"-53 127 CURVE",
"-93 61 LINE",
"-93 61 OFFCURVE",
"-39 -15 OFFCURVE",
"93 -15 CURVE SMOOTH",
"256 -15 OFFCURVE",
"312 89 OFFCURVE",
"340 251 CURVE SMOOTH"
);
}
);
width = 419;
}
);
rightKerningGroup = d;
unicode = 004A;
},
{
glyphname = K;
lastChange = "2017-06-25 12:04:12 +0000";
layers = (
{
layerId = "6F85D940-A117-47EE-950D-70F837F8C9CE";
paths = (
{
closed = 1;
nodes = (
"804 825 LINE",
"572 825 LINE",
"259 488 LINE",
"321 825 LINE",
"133 825 LINE",
"-13 0 LINE",
"175 0 LINE",
"241 360 LINE",
"451 0 LINE",
"686 0 LINE",
"421 434 LINE"
);
}
);
width = 761;
},
{
layerId = "7984B694-437B-44C7-A8AE-41A7C9CC5720";
paths = (
{
closed = 1;
nodes = (
"603 825 LINE",
"513 825 LINE",
"130 428 LINE",
"201 825 LINE",
"133 825 LINE",
"-13 0 LINE",
"55 0 LINE",
"125 390 LINE",
"390 0 LINE",
"477 0 LINE",
"197 414 LINE"
);
}
);
width = 551;
}
);
rightKerningGroup = d;
unicode = 004B;
},
{
glyphname = L;
lastChange = "2017-06-25 12:04:12 +0000";
layers = (
{
layerId = "6F85D940-A117-47EE-950D-70F837F8C9CE";
paths = (
{
closed = 1;
nodes = (
"-13 0 LINE",
"459 0 LINE",
"488 165 LINE",
"204 165 LINE",
"321 825 LINE",
"133 825 LINE"
);
}
);
width = 565;
},
{
layerId = "7984B694-437B-44C7-A8AE-41A7C9CC5720";
paths = (
{
closed = 1;
nodes = (
"-13 0 LINE",
"389 0 LINE",
"401 65 LINE",
"67 65 LINE",
"201 825 LINE",
"133 825 LINE"
);
}
);
width = 495;
}
);
rightKerningGroup = L;
unicode = 004C;
},
{
glyphname = Lslash;
lastChange = "2017-06-25 12:04:12 +0000";
layers = (
{
layerId = "6F85D940-A117-47EE-950D-70F837F8C9CE";
paths = (
{
closed = 1;
nodes = (
"495 0 LINE",
"524 165 LINE",
"240 165 LINE",
"294 457 LINE",
"413 540 LINE",
"437 693 LINE",
"317 610 LINE",
"357 825 LINE",
"169 825 LINE",
"103 462 LINE",
"17 403 LINE",
"-7 250 LINE",
"79 309 LINE",
"23 0 LINE"
);
}
);
width = 601;
},
{
layerId = "7984B694-437B-44C7-A8AE-41A7C9CC5720";
paths = (
{
closed = 1;
nodes = (
"439 0 LINE",
"451 65 LINE",
"117 65 LINE",
"184 444 LINE",
"274 506 LINE",
"287 589 LINE",
"198 527 LINE",
"251 825 LINE",
"183 825 LINE",
"120 474 LINE",
"18 403 LINE",
"4 320 LINE",
"107 391 LINE",
"37 0 LINE"
);
}
);
width = 545;
}
);
rightKerningGroup = L;
unicode = 0141;
},
{
glyphname = M;
lastChange = "2017-06-25 12:04:12 +0000";
layers = (
{
layerId = "6F85D940-A117-47EE-950D-70F837F8C9CE";
paths = (
{
closed = 1;
nodes = (
"741 825 LINE",
"432 301 LINE",
"423 279 LINE",
"420 301 LINE",
"299 825 LINE",
"103 825 LINE",
"-43 0 LINE",
"145 0 LINE",
"228 461 LINE",
"231 423 LINE",
"312 0 LINE",
"444 0 LINE",
"676 423 LINE",
"689 461 LINE",
"607 0 LINE",
"795 0 LINE",
"941 825 LINE"
);
}
);
width = 908;
},
{
layerId = "7984B694-437B-44C7-A8AE-41A7C9CC5720";
paths = (
{
closed = 1;
nodes = (
"732 825 LINE",
"342 121 LINE",
"333 99 LINE",
"330 121 LINE",
"190 825 LINE",
"123 825 LINE",
"-23 0 LINE",
"45 0 LINE",
"159 641 LINE",
"161 603 LINE",
"291 0 LINE",
"343 0 LINE",
"687 603 LINE",
"701 641 LINE",
"587 0 LINE",
"655 0 LINE",
"801 825 LINE"
);
}
);
width = 788;
}
);
rightKerningGroup = d;
unicode = 004D;
},
{
glyphname = N;
lastChange = "2017-06-25 12:04:12 +0000";
layers = (
{
layerId = "6F85D940-A117-47EE-950D-70F837F8C9CE";
paths = (
{
closed = 1;
nodes = (
"507 0 LINE",
"693 0 LINE",
"839 825 LINE",
"651 825 LINE",
"560 313 LINE",
"556 313 LINE",
"319 825 LINE",
"133 825 LINE",
"-13 0 LINE",
"175 0 LINE",
"266 512 LINE",
"270 512 LINE"
);
}
);
width = 826;
},
{
layerId = "7984B694-437B-44C7-A8AE-41A7C9CC5720";
paths = (
{
closed = 1;
nodes = (
"506 0 LINE",
"573 0 LINE",
"719 825 LINE",
"651 825 LINE",
"527 125 LINE",
"524 125 LINE",
"200 825 LINE",
"133 825 LINE",
"-13 0 LINE",
"55 0 LINE",
"178 695 LINE",
"181 695 LINE"
);
}
);
width = 706;
}
);
rightKerningGroup = d;
unicode = 004E;
},
{
glyphname = Eng;
lastChange = "2017-06-25 12:04:12 +0000";
layers = (
{
components = (
{
name = N;
}
);
layerId = "6F85D940-A117-47EE-950D-70F837F8C9CE";
paths = (
{
closed = 1;
nodes = (
"680 -72 LINE SMOOTH",
"664 -163 OFFCURVE",
"595 -275 OFFCURVE",
"437 -275 CURVE SMOOTH",
"359 -275 OFFCURVE",
"331 -257 OFFCURVE",
"308 -246 CURVE",
"390 -100 LINE",
"388 -100 OFFCURVE",
"420 -115 OFFCURVE",
"448 -115 CURVE SMOOTH",
"472 -115 OFFCURVE",
"488 -100 OFFCURVE",
"496 -52 CURVE SMOOTH",
"505 0 LINE",
"693 0 LINE"
);
}
);
width = 826;
},
{
components = (
{
name = N;
}
);
layerId = "7984B694-437B-44C7-A8AE-41A7C9CC5720";
paths = (
{
closed = 1;
nodes = (
"560 -77 LINE SMOOTH",
"542 -178 OFFCURVE",
"495 -275 OFFCURVE",
"385 -275 CURVE SMOOTH",
"334 -275 OFFCURVE",
"303 -256 OFFCURVE",
"301 -254 CURVE",
"342 -190 LINE",
"341 -190 OFFCURVE",
"359 -213 OFFCURVE",
"403 -213 CURVE SMOOTH",
"461 -213 OFFCURVE",
"480 -145 OFFCURVE",
"497 -47 CURVE SMOOTH",
"505 0 LINE",
"573 0 LINE"
);
}
);
width = 706;
}
);
unicode = 014A;
},
{
glyphname = O;
lastChange = "2017-06-25 12:04:12 +0000";
layers = (
{
layerId = "6F85D940-A117-47EE-950D-70F837F8C9CE";
paths = (
{
closed = 1;
nodes = (
"247 529 OFFCURVE",
"343 659 OFFCURVE",
"494 659 CURVE SMOOTH",
"634 659 OFFCURVE",
"674 543 OFFCURVE",
"653 426 CURVE SMOOTH",
"631 297 OFFCURVE",
"540 167 OFFCURVE",
"384 167 CURVE SMOOTH",
"236 167 OFFCURVE",
"203 283 OFFCURVE",
"224 400 CURVE SMOOTH"
);
},
{
closed = 1;
nodes = (
"-18 179 OFFCURVE",
"125 -15 OFFCURVE",
"375 -15 CURVE SMOOTH",
"606 -15 OFFCURVE",
"810 165 OFFCURVE",
"852 400 CURVE SMOOTH",
"895 647 OFFCURVE",
"738 840 OFFCURVE",
"503 840 CURVE SMOOTH",
"282 840 OFFCURVE",
"67 661 OFFCURVE",
"25 426 CURVE SMOOTH"
);
}
);
width = 877;
},
{
layerId = "7984B694-437B-44C7-A8AE-41A7C9CC5720";
paths = (
{
closed = 1;
nodes = (
"130 604 OFFCURVE",
"281 779 OFFCURVE",
"478 779 CURVE SMOOTH",
"672 779 OFFCURVE",
"756 608 OFFCURVE",
"722 418 CURVE SMOOTH",
"687 222 OFFCURVE",
"542 47 OFFCURVE",
"340 47 CURVE SMOOTH",
"138 47 OFFCURVE",
"62 218 OFFCURVE",
"95 408 CURVE SMOOTH"
);
},
{
closed = 1;
nodes = (
"-19 174 OFFCURVE",
"92 -15 OFFCURVE",
"338 -15 CURVE SMOOTH",
"573 -15 OFFCURVE",
"751 170 OFFCURVE",
"793 408 CURVE SMOOTH",
"836 652 OFFCURVE",
"711 840 OFFCURVE",
"480 840 CURVE SMOOTH",
"255 840 OFFCURVE",
"66 656 OFFCURVE",
"24 418 CURVE SMOOTH"
);
}
);
width = 817;
}
);
leftKerningGroup = O;
rightKerningGroup = O;
unicode = 004F;
},
{
glyphname = Oslash;
lastChange = "2017-06-25 12:04:12 +0000";
layers = (
{
layerId = "6F85D940-A117-47EE-950D-70F837F8C9CE";
paths = (
{
closed = 1;
nodes = (
"172 41 LINE",
"224 7 OFFCURVE",
"291 -15 OFFCURVE",
"375 -15 CURVE SMOOTH",
"606 -15 OFFCURVE",
"810 165 OFFCURVE",
"852 400 CURVE SMOOTH",
"872 515 OFFCURVE",
"847 615 OFFCURVE",
"797 689 CURVE",
"873 767 LINE",
"772 853 LINE",
"702 782 LINE",
"649 817 OFFCURVE",
"583 840 OFFCURVE",
"503 840 CURVE SMOOTH",
"282 840 OFFCURVE",
"67 661 OFFCURVE",
"25 426 CURVE SMOOTH",
"5 309 OFFCURVE",
"27 208 OFFCURVE",
"76 133 CURVE",
"4 59 LINE",
"105 -27 LINE"
);
},
{
closed = 1;
nodes = (
"354 167 OFFCURVE",
"325 170 OFFCURVE",
"301 182 CURVE",
"653 542 LINE",
"661 504 OFFCURVE",
"660 462 OFFCURVE",
"653 426 CURVE SMOOTH",
"631 297 OFFCURVE",
"540 167 OFFCURVE",
"384 167 CURVE SMOOTH"
);
},
{
closed = 1;
nodes = (
"215 320 OFFCURVE",
"217 363 OFFCURVE",
"224 400 CURVE SMOOTH",
"247 529 OFFCURVE",
"343 659 OFFCURVE",
"494 659 CURVE SMOOTH",
"522 659 OFFCURVE",
"551 655 OFFCURVE",
"574 643 CURVE",
"222 282 LINE"
);
}
);
width = 877;
},
{
layerId = "7984B694-437B-44C7-A8AE-41A7C9CC5720";
paths = (
{
closed = 1;
nodes = (
"113 65 LINE",
"165 16 OFFCURVE",
"240 -15 OFFCURVE",
"338 -15 CURVE SMOOTH",
"573 -15 OFFCURVE",
"751 170 OFFCURVE",
"793 408 CURVE SMOOTH",
"815 530 OFFCURVE",
"794 635 OFFCURVE",
"741 712 CURVE",
"823 795 LINE",
"783 829 LINE",
"708 751 LINE",
"655 806 OFFCURVE",
"577 840 OFFCURVE",
"480 840 CURVE SMOOTH",
"255 840 OFFCURVE",
"66 656 OFFCURVE",
"24 418 CURVE SMOOTH",
"2 291 OFFCURVE",
"22 181 OFFCURVE",
"78 103 CURVE",
"1 25 LINE",
"41 -9 LINE"
);
},
{
closed = 1;
nodes = (
"262 47 OFFCURVE",
"202 71 OFFCURVE",
"160 115 CURVE",
"692 660 LINE",
"728 594 OFFCURVE",
"738 507 OFFCURVE",
"722 418 CURVE SMOOTH",
"687 222 OFFCURVE",
"542 47 OFFCURVE",
"340 47 CURVE SMOOTH"
);
},
{
closed = 1;
nodes = (
"88 223 OFFCURVE",
"79 315 OFFCURVE",
"95 408 CURVE SMOOTH",
"130 604 OFFCURVE",
"281 779 OFFCURVE",
"478 779 CURVE SMOOTH",
"557 779 OFFCURVE",
"619 751 OFFCURVE",
"662 703 CURVE",
"129 156 LINE"
);
}
);
width = 817;
}
);
leftKerningGroup = O;
rightKerningGroup = O;
unicode = 00D8;
},
{
glyphname = OE;
lastChange = "2017-06-25 12:04:12 +0000";
layers = (
{
layerId = "6F85D940-A117-47EE-950D-70F837F8C9CE";
paths = (
{
closed = 1;
nodes = (
"889 0 LINE",
"918 165 LINE",
"634 165 LINE",
"664 331 LINE",
"936 331 LINE",
"965 496 LINE",
"693 496 LINE",
"722 660 LINE",
"1006 660 LINE",
"1035 825 LINE",
"506 825 LINE SMOOTH",
"279 825 OFFCURVE",
"67 660 OFFCURVE",
"25 425 CURVE SMOOTH",
"-18 178 OFFCURVE",
"145 0 OFFCURVE",
"372 0 CURVE SMOOTH"
);
},
{
closed = 1;
nodes = (
"272 168 OFFCURVE",
"201 268 OFFCURVE",
"224 400 CURVE SMOOTH",
"249 543 OFFCURVE",
"370 657 OFFCURVE",
"510 657 CURVE SMOOTH",
"533 657 LINE",
"447 168 LINE",
"412 168 LINE SMOOTH"
);
}
);
width = 1010;
},
{
layerId = "7984B694-437B-44C7-A8AE-41A7C9CC5720";
paths = (
{
closed = 1;
nodes = (
"798 0 LINE",
"810 65 LINE",
"456 65 LINE",
"511 381 LINE",
"853 381 LINE",
"865 446 LINE",
"523 446 LINE",
"578 760 LINE",
"932 760 LINE",
"944 825 LINE",
"479 825 LINE SMOOTH",
"252 825 OFFCURVE",
"66 656 OFFCURVE",
"24 418 CURVE SMOOTH",
"-19 174 OFFCURVE",
"95 0 OFFCURVE",
"339 0 CURVE SMOOTH"
);
},
{
closed = 1;
nodes = (
"141 62 OFFCURVE",
"62 218 OFFCURVE",
"95 408 CURVE SMOOTH",
"130 604 OFFCURVE",
"278 764 OFFCURVE",
"473 764 CURVE SMOOTH",
"511 764 LINE",
"387 62 LINE",
"345 62 LINE SMOOTH"
);
}
);
width = 919;
}
);
rightKerningGroup = d;
unicode = 0152;
},
{
glyphname = P;
lastChange = "2017-06-25 12:04:12 +0000";
layers = (
{
layerId = "6F85D940-A117-47EE-950D-70F837F8C9CE";
paths = (
{
closed = 1;
nodes = (
"-13 0 LINE",
"175 0 LINE",
"229 306 LINE",
"348 306 LINE SMOOTH",
"509 306 OFFCURVE",
"640 394 OFFCURVE",
"669 558 CURVE SMOOTH",
"700 735 OFFCURVE",
"589 825 OFFCURVE",
"428 825 CURVE SMOOTH",
"133 825 LINE"
);
},
{
closed = 1;
nodes = (
"294 675 LINE",
"353 675 LINE SMOOTH",
"427 675 OFFCURVE",
"488 657 OFFCURVE",
"474 578 CURVE SMOOTH",
"458 488 OFFCURVE",
"377 456 OFFCURVE",
"303 456 CURVE SMOOTH",
"256 456 LINE"
);
}
);
width = 666;
},
{
layerId = "7984B694-437B-44C7-A8AE-41A7C9CC5720";
paths = (
{
closed = 1;
nodes = (
"-3 0 LINE",
"65 0 LINE",
"125 336 LINE",
"260 336 LINE SMOOTH",
"421 336 OFFCURVE",
"543 412 OFFCURVE",
"572 579 CURVE SMOOTH",
"603 753 OFFCURVE",
"502 825 OFFCURVE",
"341 825 CURVE SMOOTH",
"143 825 LINE"
);
},
{
closed = 1;
nodes = (
"199 760 LINE",
"315 760 LINE SMOOTH",
"419 760 OFFCURVE",
"536 736 OFFCURVE",
"510 589 CURVE SMOOTH",
"483 434 OFFCURVE",
"351 401 OFFCURVE",
"247 401 CURVE SMOOTH",
"136 401 LINE"
);
}
);
width = 566;
}
);
rightKerningGroup = d;
unicode = 0050;
},
{
glyphname = Thorn;
lastChange = "2017-06-25 12:04:12 +0000";
layers = (
{
layerId = "6F85D940-A117-47EE-950D-70F837F8C9CE";
paths = (
{
closed = 1;
nodes = (
"-13 0 LINE",
"175 0 LINE",
"202 153 LINE",
"321 153 LINE SMOOTH",
"482 153 OFFCURVE",
"613 241 OFFCURVE",
"642 405 CURVE SMOOTH",
"673 582 OFFCURVE",
"562 672 OFFCURVE",
"401 672 CURVE SMOOTH",
"294 672 LINE",
"321 825 LINE",
"133 825 LINE"
);
},
{
closed = 1;
nodes = (
"267 522 LINE",
"326 522 LINE SMOOTH",
"400 522 OFFCURVE",
"456 503 OFFCURVE",
"442 425 CURVE SMOOTH",
"426 336 OFFCURVE",
"350 303 OFFCURVE",
"276 303 CURVE SMOOTH",
"229 303 LINE"
);
}
);
width = 666;
},
{
layerId = "7984B694-437B-44C7-A8AE-41A7C9CC5720";
paths = (
{
closed = 1;
nodes = (
"-13 0 LINE",
"55 0 LINE",
"82 153 LINE",
"228 153 LINE SMOOTH",
"389 153 OFFCURVE",
"504 246 OFFCURVE",
"533 413 CURVE SMOOTH",
"564 587 OFFCURVE",
"475 672 OFFCURVE",
"314 672 CURVE SMOOTH",
"174 672 LINE",
"201 825 LINE",
"133 825 LINE"
);
},
{
closed = 1;
nodes = (
"162 607 LINE",
"318 607 LINE SMOOTH",
"432 607 OFFCURVE",
"495 554 OFFCURVE",
"472 423 CURVE SMOOTH",
"448 287 OFFCURVE",
"358 218 OFFCURVE",
"244 218 CURVE SMOOTH",
"94 218 LINE"
);
}
);
width = 556;
}
);
rightKerningGroup = d;
unicode = 00DE;
},
{
glyphname = Q;
lastChange = "2017-06-25 12:04:12 +0000";
layers = (
{
layerId = "6F85D940-A117-47EE-950D-70F837F8C9CE";
paths = (
{
closed = 1;
nodes = (
"247 529 OFFCURVE",
"343 659 OFFCURVE",
"494 659 CURVE SMOOTH",
"634 659 OFFCURVE",
"674 543 OFFCURVE",
"653 426 CURVE SMOOTH",
"631 297 OFFCURVE",
"540 167 OFFCURVE",
"384 167 CURVE SMOOTH",
"236 167 OFFCURVE",
"203 283 OFFCURVE",
"224 400 CURVE SMOOTH"
);
},
{
closed = 1;
nodes = (
"-18 179 OFFCURVE",
"125 -15 OFFCURVE",
"375 -15 CURVE SMOOTH",
"606 -15 OFFCURVE",
"810 165 OFFCURVE",
"852 400 CURVE SMOOTH",
"895 647 OFFCURVE",
"738 840 OFFCURVE",
"503 840 CURVE SMOOTH",
"282 840 OFFCURVE",
"67 661 OFFCURVE",
"25 426 CURVE SMOOTH"
);
},
{
closed = 1;
nodes = (
"566 -104 LINE",
"767 -104 LINE",
"607 288 LINE",
"406 288 LINE"
);
}
);
width = 875;
},
{
layerId = "7984B694-437B-44C7-A8AE-41A7C9CC5720";
paths = (
{
closed = 1;
nodes = (
"138 647 OFFCURVE",
"310 775 OFFCURVE",
"467 775 CURVE SMOOTH",
"621 775 OFFCURVE",
"742 651 OFFCURVE",
"701 418 CURVE SMOOTH",
"659 179 OFFCURVE",
"493 51 OFFCURVE",
"331 51 CURVE SMOOTH",
"169 51 OFFCURVE",
"55 175 OFFCURVE",
"96 408 CURVE SMOOTH"
);
},
{
closed = 1;
nodes = (
"-30 114 OFFCURVE",
"132 -15 OFFCURVE",
"328 -15 CURVE SMOOTH",
"513 -15 OFFCURVE",
"721 110 OFFCURVE",
"773 408 CURVE SMOOTH",
"827 712 OFFCURVE",
"651 840 OFFCURVE",
"470 840 CURVE SMOOTH",
"295 840 OFFCURVE",
"77 716 OFFCURVE",
"24 418 CURVE SMOOTH"
);
},
{
closed = 1;
nodes = (
"580 -104 LINE",
"663 -104 LINE",
"503 288 LINE",
"420 288 LINE"
);
}
);
width = 815;
}
);
unicode = 0051;
},
{
glyphname = R;
lastChange = "2017-06-25 12:04:12 +0000";
layers = (
{
layerId = "6F85D940-A117-47EE-950D-70F837F8C9CE";
paths = (
{
closed = 1;
nodes = (
"-13 0 LINE",
"175 0 LINE",
"233 326 LINE",
"236 326 LINE",
"399 0 LINE",
"634 0 LINE",
"445 339 LINE",
"554 371 OFFCURVE",
"631 449 OFFCURVE",
"651 567 CURVE SMOOTH",
"681 735 OFFCURVE",
"585 825 OFFCURVE",
"432 825 CURVE SMOOTH",
"133 825 LINE"
);
},
{
closed = 1;
nodes = (
"294 675 LINE",
"322 675 LINE SMOOTH",
"393 675 OFFCURVE",
"473 677 OFFCURVE",
"456 580 CURVE SMOOTH",
"436 471 OFFCURVE",
"343 459 OFFCURVE",
"272 459 CURVE SMOOTH",
"256 459 LINE"
);
}
);
width = 716;
},
{
layerId = "7984B694-437B-44C7-A8AE-41A7C9CC5720";
paths = (
{
closed = 1;
nodes = (
"-13 0 LINE",
"55 0 LINE",
"118 356 LINE",
"246 356 LINE",
"407 0 LINE",
"485 0 LINE",
"324 362 LINE",
"385 369 OFFCURVE",
"535 416 OFFCURVE",
"565 590 CURVE SMOOTH",
"595 760 OFFCURVE",
"494 825 OFFCURVE",
"335 825 CURVE SMOOTH",
"133 825 LINE"
);
},
{
closed = 1;
nodes = (
"189 760 LINE",
"326 760 LINE SMOOTH",
"458 760 OFFCURVE",
"523 709 OFFCURVE",
"504 599 CURVE SMOOTH",
"483 483 OFFCURVE",
"393 419 OFFCURVE",
"264 419 CURVE SMOOTH",
"129 419 LINE"
);
}
);
width = 579;
}
);
rightKerningGroup = R;
unicode = 0052;
},
{
glyphname = S;
lastChange = "2017-06-25 12:04:12 +0000";
layers = (
{
layerId = "6F85D940-A117-47EE-950D-70F837F8C9CE";
paths = (
{
closed = 1;
nodes = (
"301 840 OFFCURVE",
"151 759 OFFCURVE",
"125 611 CURVE SMOOTH",
"109 519 OFFCURVE",
"161 428 OFFCURVE",
"257 382 CURVE SMOOTH",
"341 330 OFFCURVE",
"419 307 OFFCURVE",
"410 253 CURVE SMOOTH",
"395 170 OFFCURVE",
"310 159 OFFCURVE",
"263 159 CURVE SMOOTH",
"177 159 OFFCURVE",
"91 246 OFFCURVE",
"91 246 CURVE",
"-30 94 LINE",
"-27 94 OFFCURVE",
"70 -15 OFFCURVE",
"269 -15 CURVE SMOOTH",
"424 -15 OFFCURVE",
"580 47 OFFCURVE",
"613 238 CURVE SMOOTH",
"633 352 OFFCURVE",
"542 434 OFFCURVE",
"451 471 CURVE SMOOTH",
"370 513 OFFCURVE",
"296 543 OFFCURVE",
"304 589 CURVE SMOOTH",
"313 640 OFFCURVE",
"364 669 OFFCURVE",
"434 669 CURVE SMOOTH",
"513 669 OFFCURVE",
"578 618 OFFCURVE",
"578 618 CURVE",
"678 762 LINE",
"676 762 OFFCURVE",
"584 840 OFFCURVE",
"428 840 CURVE SMOOTH"
);
}
);
width = 672;
},
{
layerId = "7984B694-437B-44C7-A8AE-41A7C9CC5720";
paths = (
{
closed = 1;
nodes = (
"254 840 OFFCURVE",
"135 754 OFFCURVE",
"116 643 CURVE SMOOTH",
"98 544 OFFCURVE",
"157 486 OFFCURVE",
"262 428 CURVE SMOOTH",
"349 376 OFFCURVE",
"470 339 OFFCURVE",
"448 216 CURVE SMOOTH",
"431 115 OFFCURVE",
"341 54 OFFCURVE",
"215 54 CURVE SMOOTH",
"97 54 OFFCURVE",
"16 134 OFFCURVE",
"16 134 CURVE",
"-36 68 LINE",
"-35 68 OFFCURVE",
"63 -15 OFFCURVE",
"212 -15 CURVE SMOOTH",
"371 -15 OFFCURVE",
"494 72 OFFCURVE",
"518 206 CURVE SMOOTH",
"545 361 OFFCURVE",
"433 418 OFFCURVE",
"335 466 CURVE SMOOTH",
"249 512 OFFCURVE",
"174 556 OFFCURVE",
"188 633 CURVE SMOOTH",
"203 718 OFFCURVE",
"276 774 OFFCURVE",
"389 774 CURVE SMOOTH",
"492 774 OFFCURVE",
"557 717 OFFCURVE",
"557 717 CURVE",
"598 775 LINE",
"598 775 OFFCURVE",
"524 840 OFFCURVE",
"385 840 CURVE SMOOTH"
);
}
);
width = 582;
}
);
leftKerningGroup = S;
rightKerningGroup = d;
unicode = 0053;
},
{
glyphname = T;
lastChange = "2017-06-25 12:04:12 +0000";
layers = (
{
layerId = "6F85D940-A117-47EE-950D-70F837F8C9CE";
paths = (
{
closed = 1;
nodes = (
"131 0 LINE",
"319 0 LINE",
"436 660 LINE",
"632 660 LINE",
"661 825 LINE",
"81 825 LINE",
"52 660 LINE",
"248 660 LINE"
);
}
);
width = 596;
},
{
layerId = "7984B694-437B-44C7-A8AE-41A7C9CC5720";
paths = (
{
closed = 1;
nodes = (
"171 0 LINE",
"239 0 LINE",
"373 760 LINE",
"609 760 LINE",
"621 825 LINE",
"81 825 LINE",
"69 760 LINE",
"305 760 LINE"
);
}
);
width = 556;
}
);
leftKerningGroup = T;
rightKerningGroup = T;
unicode = 0054;
},
{
glyphname = Tbar;
lastChange = "2017-06-25 12:04:12 +0000";
layers = (
{
components = (
{
name = T;
}
);
layerId = "6F85D940-A117-47EE-950D-70F837F8C9CE";
paths = (
{
closed = 1;
nodes = (
"0 375 LINE",
"581 375 LINE",
"606 515 LINE",
"25 515 LINE"
);
}
);
width = 596;
},
{
components = (
{
name = T;
transform = "{1, 0, 0, 1, 1, 0}";
}
);
layerId = "7984B694-437B-44C7-A8AE-41A7C9CC5720";
paths = (
{
closed = 1;
nodes = (
"10 415 LINE",
"531 415 LINE",
"544 485 LINE",
"23 485 LINE"
);
}
);
width = 557;
}
);
unicode = 0166;
},
{
glyphname = U;
lastChange = "2017-06-25 12:04:12 +0000";
layers = (
{
layerId = "6F85D940-A117-47EE-950D-70F837F8C9CE";
paths = (
{
closed = 1;
nodes = (
"503 395 LINE SMOOTH",
"475 237 OFFCURVE",
"415 170 OFFCURVE",
"318 170 CURVE SMOOTH",
"231 170 OFFCURVE",
"205 223 OFFCURVE",
"233 381 CURVE SMOOTH",
"311 825 LINE",
"123 825 LINE",
"37 340 LINE SMOOTH",
"1 136 OFFCURVE",
"92 -15 OFFCURVE",
"308 -15 CURVE SMOOTH",
"512 -15 OFFCURVE",
"643 122 OFFCURVE",
"679 326 CURVE SMOOTH",
"767 825 LINE",
"579 825 LINE"
);
}
);
width = 744;
},
{
layerId = "7984B694-437B-44C7-A8AE-41A7C9CC5720";
paths = (
{
closed = 1;
nodes = (
"516 300 LINE SMOOTH",
"494 172 OFFCURVE",
"408 50 OFFCURVE",
"264 50 CURVE SMOOTH",
"124 50 OFFCURVE",
"85 168 OFFCURVE",
"107 296 CURVE SMOOTH",
"201 825 LINE",
"133 825 LINE",
"43 315 LINE SMOOTH",
"7 111 OFFCURVE",
"79 -15 OFFCURVE",
"261 -15 CURVE SMOOTH",
"439 -15 OFFCURVE",
"550 107 OFFCURVE",
"586 311 CURVE SMOOTH",
"677 825 LINE",
"609 825 LINE"
);
}
);
width = 664;
}
);
rightKerningGroup = d;
unicode = 0055;
},
{
glyphname = V;
lastChange = "2017-06-25 12:04:12 +0000";
layers = (
{
layerId = "6F85D940-A117-47EE-950D-70F837F8C9CE";
paths = (
{
closed = 1;
nodes = (
"867 825 LINE",
"651 825 LINE",
"369 303 LINE",
"275 825 LINE",
"67 825 LINE",
"244 0 LINE",
"398 0 LINE"
);
}
);
width = 784;
},
{
layerId = "7984B694-437B-44C7-A8AE-41A7C9CC5720";
paths = (
{
closed = 1;
nodes = (
"764 825 LINE",
"687 825 LINE",
"284 93 LINE",
"141 825 LINE",
"66 825 LINE",
"233 0 LINE",
"307 0 LINE"
);
}
);
width = 684;
}
);
leftKerningGroup = V;
rightKerningGroup = V;
unicode = 0056;
},
{
glyphname = W;
lastChange = "2017-06-25 12:04:12 +0000";
layers = (
{
layerId = "6F85D940-A117-47EE-950D-70F837F8C9CE";
paths = (
{
closed = 1;
nodes = (
"1210 825 LINE",
"999 825 LINE",
"759 259 LINE",
"754 259 LINE",
"703 825 LINE",
"561 825 LINE",
"312 259 LINE",
"307 259 LINE",
"265 825 LINE",
"59 825 LINE",
"149 0 LINE",
"358 0 LINE",
"573 463 LINE",
"622 0 LINE",
"830 0 LINE"
);
}
);
width = 1136;
},
{
layerId = "7984B694-437B-44C7-A8AE-41A7C9CC5720";
paths = (
{
closed = 1;
nodes = (
"961 825 LINE",
"886 825 LINE",
"622 123 LINE",
"616 123 LINE",
"548 825 LINE",
"470 825 LINE",
"154 123 LINE",
"155 123 LINE",
"132 825 LINE",
"58 825 LINE",
"94 0 LINE",
"173 0 LINE",
"489 703 LINE",
"557 0 LINE",
"635 0 LINE"
);
}
);
width = 888;
}
);
leftKerningGroup = V;
rightKerningGroup = V;
unicode = 0057;
},
{
glyphname = X;
lastChange = "2017-06-25 12:04:12 +0000";
layers = (
{
layerId = "6F85D940-A117-47EE-950D-70F837F8C9CE";
paths = (
{
closed = 1;
nodes = (
"855 825 LINE",
"617 825 LINE",
"423 600 LINE",
"313 825 LINE",
"93 825 LINE",
"284 444 LINE",
"-99 0 LINE",
"138 0 LINE",
"375 281 LINE",
"508 0 LINE",
"747 0 LINE",
"516 444 LINE"
);
}
);
width = 798;
},
{
layerId = "7984B694-437B-44C7-A8AE-41A7C9CC5720";
paths = (
{
closed = 1;
nodes = (
"706 825 LINE",
"624 825 LINE",
"332 490 LINE",
"160 825 LINE",
"82 825 LINE",
"284 444 LINE",
"-98 0 LINE",
"-17 0 LINE",
"318 391 LINE",
"513 0 LINE",
"590 0 LINE",
"368 444 LINE"
);
}
);
width = 640;
}
);
rightKerningGroup = d;
unicode = 0058;
},
{
glyphname = Y;
lastChange = "2017-06-25 12:04:12 +0000";
layers = (
{
layerId = "6F85D940-A117-47EE-950D-70F837F8C9CE";
paths = (
{
closed = 1;
nodes = (
"201 0 LINE",
"389 0 LINE",
"457 370 LINE",
"821 825 LINE",
"591 825 LINE",
"390 561 LINE",
"287 825 LINE",
"65 825 LINE",
"269 370 LINE"
);
}
);
width = 736;
},
{
layerId = "7984B694-437B-44C7-A8AE-41A7C9CC5720";
paths = (
{
closed = 1;
nodes = (
"191 0 LINE",
"259 0 LINE",
"317 320 LINE",
"680 825 LINE",
"602 825 LINE",
"291 384 LINE",
"138 825 LINE",
"64 825 LINE",
"249 320 LINE"
);
}
);
width = 596;
}
);
leftKerningGroup = Y;
rightKerningGroup = Y;
unicode = 0059;
},
{
glyphname = Z;
lastChange = "2017-06-25 12:04:12 +0000";
layers = (
{
layerId = "6F85D940-A117-47EE-950D-70F837F8C9CE";
paths = (
{
closed = 1;
nodes = (
"118 660 LINE",
"465 660 LINE",
"-59 0 LINE",
"653 0 LINE",
"682 165 LINE",
"303 165 LINE",
"828 825 LINE",
"147 825 LINE"
);
}
);
width = 769;
},
{
layerId = "7984B694-437B-44C7-A8AE-41A7C9CC5720";
paths = (
{
closed = 1;
nodes = (
"134 760 LINE",
"570 760 LINE",
"-59 0 LINE",
"532 0 LINE",
"544 65 LINE",
"80 65 LINE",
"706 825 LINE",
"146 825 LINE"
);
}
);
width = 647;
}
);
unicode = 005A;
},
{
glyphname = Q.ss02;
lastChange = "2017-06-25 12:04:12 +0000";
layers = (
{
layerId = "6F85D940-A117-47EE-950D-70F837F8C9CE";
paths = (
{
closed = 1;
nodes = (
"450 -15 OFFCURVE",
"531 5 OFFCURVE",
"608 53 CURVE",
"636 31 OFFCURVE",
"685 -1 OFFCURVE",
"741 -24 CURVE",
"844 140 LINE",
"796 153 OFFCURVE",
"761 166 OFFCURVE",
"739 174 CURVE",
"795 242 OFFCURVE",
"828 320 OFFCURVE",
"842 400 CURVE SMOOTH",
"885 647 OFFCURVE",
"733 840 OFFCURVE",
"498 840 CURVE SMOOTH",
"277 840 OFFCURVE",
"67 661 OFFCURVE",
"25 426 CURVE SMOOTH",
"-18 179 OFFCURVE",
"120 -15 OFFCURVE",
"370 -15 CURVE SMOOTH"
);
},
{
closed = 1;
nodes = (
"232 175 OFFCURVE",
"203 283 OFFCURVE",
"224 400 CURVE SMOOTH",
"247 529 OFFCURVE",
"337 651 OFFCURVE",
"488 651 CURVE SMOOTH",
"628 651 OFFCURVE",
"664 543 OFFCURVE",
"643 426 CURVE SMOOTH",
"633 370 OFFCURVE",
"613 321 OFFCURVE",
"580 277 CURVE",
"507 329 OFFCURVE",
"470 389 OFFCURVE",
"470 389 CURVE",
"373 299 LINE",
"389 276 OFFCURVE",
"418 230 OFFCURVE",
"452 189 CURVE",
"429 179 OFFCURVE",
"407 175 OFFCURVE",
"381 175 CURVE SMOOTH"
);
}
);
width = 876;
},
{
layerId = "7984B694-437B-44C7-A8AE-41A7C9CC5720";
paths = (
{
closed = 1;
nodes = (
"447 -15 OFFCURVE",
"544 24 OFFCURVE",
"624 93 CURVE",
"672 64 OFFCURVE",
"720 42 OFFCURVE",
"759 31 CURVE",
"798 90 LINE",
"769 96 OFFCURVE",
"722 115 OFFCURVE",
"671 143 CURVE",
"734 216 OFFCURVE",
"776 309 OFFCURVE",
"793 408 CURVE SMOOTH",
"836 652 OFFCURVE",
"711 840 OFFCURVE",
"480 840 CURVE SMOOTH",
"255 840 OFFCURVE",
"66 656 OFFCURVE",
"24 418 CURVE SMOOTH",
"-19 174 OFFCURVE",
"92 -15 OFFCURVE",
"338 -15 CURVE SMOOTH"
);
},
{
closed = 1;
nodes = (
"138 47 OFFCURVE",
"62 218 OFFCURVE",
"95 408 CURVE SMOOTH",
"130 604 OFFCURVE",
"281 779 OFFCURVE",
"478 779 CURVE SMOOTH",
"672 779 OFFCURVE",
"756 608 OFFCURVE",
"722 418 CURVE SMOOTH",
"706 329 OFFCURVE",
"669 247 OFFCURVE",
"612 182 CURVE",
"561 215 OFFCURVE",
"510 257 OFFCURVE",
"473 304 CURVE",
"432 263 LINE",
"469 216 OFFCURVE",
"517 170 OFFCURVE",
"567 134 CURVE",
"505 81 OFFCURVE",
"428 47 OFFCURVE",
"340 47 CURVE SMOOTH"
);
}
);
width = 833;
}
);
leftKerningGroup = G;
rightKerningGroup = d;
},
{
color = 1;
glyphname = a;
lastChange = "2017-06-25 12:06:12 +0000";
layers = (
{
background = {
components = (
{
name = n;
transform = "{-1, 0, 0, -1, 563, 513}";
}
);
};
layerId = "7984B694-437B-44C7-A8AE-41A7C9CC5720";
paths = (
{
closed = 1;
nodes = (
"133 461 OFFCURVE",
"311 493 OFFCURVE",
"482 464 CURVE",
"462 346 LINE SMOOTH",
"432 167 OFFCURVE",
"330 48 OFFCURVE",
"216 48 CURVE SMOOTH",
"145 48 OFFCURVE",
"74 116 OFFCURVE",
"97 249 CURVE SMOOTH"
);
},
{
closed = 1;
nodes = (
"468 0 LINE",
"558 513 LINE",
"512 521 OFFCURVE",
"446 528 OFFCURVE",
"384 528 CURVE SMOOTH",
"207 528 OFFCURVE",
"61 450 OFFCURVE",
"27 259 CURVE SMOOTH",
"-1 106 OFFCURVE",
"69 -14 OFFCURVE",
"205 -14 CURVE SMOOTH",
"321 -14 OFFCURVE",
"397 73 OFFCURVE",
"430 155 CURVE",
"400 0 LINE"
);
}
);
width = 572;
},
{
layerId = "6F85D940-A117-47EE-950D-70F837F8C9CE";
paths = (
{
closed = 1;
nodes = (
"-5 115 OFFCURVE",
"76 -12 OFFCURVE",
"217 -12 CURVE SMOOTH",
"324 -12 OFFCURVE",
"392 66 OFFCURVE",
"427 151 CURVE",
"400 0 LINE",
"577 0 LINE",
"664 512 LINE",
"601 519 OFFCURVE",
"524 524 OFFCURVE",
"425 525 CURVE SMOOTH",
"149 527 OFFCURVE",
"47 409 OFFCURVE",
"21 261 CURVE SMOOTH"
);
},
{
closed = 1;
nodes = (
"219 343 OFFCURVE",
"286 384 OFFCURVE",
"353 383 CURVE SMOOTH",
"463 382 LINE",
"455 335 LINE SMOOTH",
"436 225 OFFCURVE",
"371 155 OFFCURVE",
"300 155 CURVE SMOOTH",
"231 155 OFFCURVE",
"195 202 OFFCURVE",
"207 270 CURVE SMOOTH"
);
}
);
width = 697;
}
);
leftKerningGroup = aacute;
leftMetricsKey = o;
rightKerningGroup = aacute;
unicode = 0061;
},
{
color = 1;
glyphname = ae;
lastChange = "2017-06-25 12:04:12 +0000";
layers = (
{
layerId = "6F85D940-A117-47EE-950D-70F837F8C9CE";
paths = (
{
closed = 1;
nodes = (
"126 357 LINE",
"124 357 OFFCURVE",
"188 387 OFFCURVE",
"286 387 CURVE SMOOTH",
"331 387 OFFCURVE",
"382 362 OFFCURVE",
"372 306 CURVE SMOOTH",
"362 278 LINE",
"342 294 OFFCURVE",
"289 332 OFFCURVE",
"196 323 CURVE SMOOTH",
"84 308 OFFCURVE",
"23 255 OFFCURVE",
"4 149 CURVE SMOOTH",
"-13 50 OFFCURVE",
"64 -15 OFFCURVE",
"177 -15 CURVE SMOOTH",
"328 -15 OFFCURVE",
"396 74 OFFCURVE",
"401 79 CURVE",
"447 26 OFFCURVE",
"518 -15 OFFCURVE",
"609 -15 CURVE SMOOTH",
"717 -15 OFFCURVE",
"814 16 OFFCURVE",
"889 113 CURVE",
"766 188 LINE",
"716 142 OFFCURVE",
"686 126 OFFCURVE",
"623 126 CURVE SMOOTH",
"584 126 OFFCURVE",
"528 146 OFFCURVE",
"542 225 CURVE",
"914 226 LINE",
"917 232 OFFCURVE",
"918 242 OFFCURVE",
"918 243 CURVE SMOOTH",
"950 429 OFFCURVE",
"843 528 OFFCURVE",
"681 528 CURVE SMOOTH",
"618 528 OFFCURVE",
"552 508 OFFCURVE",
"491 464 CURVE",
"441 509 OFFCURVE",
"355 528 OFFCURVE",
"287 528 CURVE SMOOTH",
"162 528 OFFCURVE",
"92 472 OFFCURVE",
"92 472 CURVE"
);
},
{
closed = 1;
nodes = (
"186 199 OFFCURVE",
"238 222 OFFCURVE",
"280 219 CURVE SMOOTH",
"320 215 OFFCURVE",
"330 199 OFFCURVE",
"326 175 CURVE SMOOTH",
"319 139 OFFCURVE",
"280 108 OFFCURVE",
"237 104 CURVE SMOOTH",
"204 98 OFFCURVE",
"170 106 OFFCURVE",
"176 146 CURVE SMOOTH"
);
},
{
closed = 1;
nodes = (
"564 323 LINE",
"575 370 OFFCURVE",
"622 413 OFFCURVE",
"689 413 CURVE SMOOTH",
"735 413 OFFCURVE",
"763 390 OFFCURVE",
"762 336 CURVE"
);
}
);
width = 943;
},
{
layerId = "7984B694-437B-44C7-A8AE-41A7C9CC5720";
paths = (
{
closed = 1;
nodes = (
"112 410 LINE",
"111 410 OFFCURVE",
"176 464 OFFCURVE",
"270 464 CURVE SMOOTH",
"319 464 OFFCURVE",
"413 437 OFFCURVE",
"389 301 CURVE SMOOTH",
"381 260 LINE",
"371 292 OFFCURVE",
"298 333 OFFCURVE",
"201 322 CURVE SMOOTH",
"116 310 OFFCURVE",
"24 271 OFFCURVE",
"4 162 CURVE SMOOTH",
"-19 29 OFFCURVE",
"88 -15 OFFCURVE",
"178 -15 CURVE SMOOTH",
"286 -15 OFFCURVE",
"367 77 OFFCURVE",
"369 79 CURVE",
"412 23 OFFCURVE",
"472 -15 OFFCURVE",
"560 -15 CURVE SMOOTH",
"671 -15 OFFCURVE",
"739 37 OFFCURVE",
"794 107 CURVE",
"732 142 LINE",
"717 112 OFFCURVE",
"664 50 OFFCURVE",
"575 50 CURVE SMOOTH",
"459 50 OFFCURVE",
"419 111 OFFCURVE",
"442 240 CURVE",
"824 240 LINE",
"826 246 OFFCURVE",
"826 247 OFFCURVE",
"827 251 CURVE SMOOTH",
"859 434 OFFCURVE",
"785 528 OFFCURVE",
"646 528 CURVE SMOOTH",
"560 528 OFFCURVE",
"475 471 OFFCURVE",
"444 421 CURVE",
"427 477 OFFCURVE",
"377 528 OFFCURVE",
"272 528 CURVE SMOOTH",
"154 528 OFFCURVE",
"85 463 OFFCURVE",
"85 463 CURVE"
);
},
{
closed = 1;
nodes = (
"86 234 OFFCURVE",
"170 264 OFFCURVE",
"239 262 CURVE SMOOTH",
"313 260 OFFCURVE",
"371 230 OFFCURVE",
"362 175 CURVE SMOOTH",
"349 105 OFFCURVE",
"251 50 OFFCURVE",
"172 50 CURVE SMOOTH",
"116 50 OFFCURVE",
"57 71 OFFCURVE",
"72 154 CURVE SMOOTH"
);
},
{
closed = 1;
nodes = (
"457 298 LINE",
"477 408 OFFCURVE",
"542 464 OFFCURVE",
"649 464 CURVE SMOOTH",
"780 464 OFFCURVE",
"775 356 OFFCURVE",
"773 302 CURVE"
);
}
);
width = 853;
}
);
rightKerningGroup = d;
unicode = 00E6;
},
{
color = 1;
glyphname = b;
lastChange = "2017-06-26 19:31:52 +0000";
layers = (
{
layerId = "6F85D940-A117-47EE-950D-70F837F8C9CE";
paths = (
{
closed = 1;
nodes = (
"361 527 OFFCURVE",
"292 463 OFFCURVE",
"257 377 CURVE",
"344 861 LINE",
"166 861 LINE",
"16 0 LINE",
"19 0 LINE",
"125 -15 OFFCURVE",
"227 -26 OFFCURVE",
"362 -15 CURVE SMOOTH",
"510 -2 OFFCURVE",
"634 103 OFFCURVE",
"660 251 CURVE SMOOTH",
"685 403 OFFCURVE",
"610 527 OFFCURVE",
"457 527 CURVE SMOOTH"
);
},
{
closed = 1;
nodes = (
"220 137 LINE",
"230 191 LINE",
"242 262 OFFCURVE",
"297 358 OFFCURVE",
"378 358 CURVE SMOOTH",
"442 358 OFFCURVE",
"485 317 OFFCURVE",
"473 248 CURVE SMOOTH",
"461 176 OFFCURVE",
"405 136 OFFCURVE",
"330 136 CURVE"
);
}
);
width = 683;
},
{
components = (
{
name = a;
transform = "{-1, 0, 0, -1, 565, 510}";
}
);
guideLines = (
{
position = "{219, -16}";
}
);
layerId = "7984B694-437B-44C7-A8AE-41A7C9CC5720";
paths = (
{
closed = 1;
nodes = (
"104 510 LINE",
"172 510 LINE",
"234 860 LINE",
"168 860 LINE"
);
}
);
width = 565;
}
);
rightKerningGroup = b;
rightMetricsKey = o;
unicode = 0062;
},
{
color = 1;
glyphname = c;
lastChange = "2017-06-26 19:31:52 +0000";
layers = (
{
background = {
components = (
{
name = e;
transform = "{1, 0, 0, 1, -2, 0}";
}
);
};
layerId = "7984B694-437B-44C7-A8AE-41A7C9CC5720";
paths = (
{
closed = 1;
nodes = (
"369 63 OFFCURVE",
"310 48 OFFCURVE",
"258 48 CURVE SMOOTH",
"131 48 OFFCURVE",
"74 141 OFFCURVE",
"96 265 CURVE SMOOTH",
"120 402 OFFCURVE",
"218 466 OFFCURVE",
"315 466 CURVE SMOOTH",
"377 466 OFFCURVE",
"439 440 OFFCURVE",
"451 429 CURVE",
"463 495 LINE",
"448 508 OFFCURVE",
"394 528 OFFCURVE",
"326 528 CURVE SMOOTH",
"162 528 OFFCURVE",
"54 413 OFFCURVE",
"29 268 CURVE SMOOTH",
"2 112 OFFCURVE",
"79 -15 OFFCURVE",
"251 -15 CURVE SMOOTH",
"306 -15 OFFCURVE",
"359 -2 OFFCURVE",
"399 20 CURVE",
"410 87 LINE"
);
}
);
width = 459;
},
{
layerId = "6F85D940-A117-47EE-950D-70F837F8C9CE";
paths = (
{
closed = 1;
nodes = (
"341 135 OFFCURVE",
"306 135 CURVE SMOOTH",
"230 135 OFFCURVE",
"179 174 OFFCURVE",
"191 252 CURVE SMOOTH",
"203 332 OFFCURVE",
"258 377 OFFCURVE",
"332 377 CURVE SMOOTH",
"366 377 OFFCURVE",
"404 368 OFFCURVE",
"445 347 CURVE",
"472 505 LINE",
"438 520 OFFCURVE",
"400 528 OFFCURVE",
"342 528 CURVE SMOOTH",
"169 528 OFFCURVE",
"49 418 OFFCURVE",
"21 261 CURVE SMOOTH",
"21 258 LINE SMOOTH",
"-7 101 OFFCURVE",
"93 -12 OFFCURVE",
"268 -15 CURVE SMOOTH",
"328 -16 OFFCURVE",
"365 -6 OFFCURVE",
"401 9 CURVE",
"422 159 LINE",
"381 143 OFFCURVE"
);
}
);
width = 473;
}
);
leftKerningGroup = c;
leftMetricsKey = o;
rightKerningGroup = c;
unicode = 0063;
},
{
color = 1;
glyphname = d;
lastChange = "2017-06-26 19:32:56 +0000";
layers = (
{
background = {
paths = (
{
closed = 1;
nodes = (
"629 470 LINE",
"671 861 LINE",
"494 861 LINE",
"457 501 LINE"
);
},
{
closed = 1;
nodes = (
"228 155 OFFCURVE",
"185 201 OFFCURVE",
"192 271 CURVE SMOOTH",
"198 334 OFFCURVE",
"243 381 OFFCURVE",
"338 380 CURVE SMOOTH",
"440 379 LINE",
"433 317 LINE SMOOTH",
"425 246 OFFCURVE",
"377 155 OFFCURVE",
"304 155 CURVE SMOOTH"
);
},
{
closed = 1;
nodes = (
"482 514 LINE",
"188 554 OFFCURVE",
"30 459 OFFCURVE",
"5 251 CURVE SMOOTH",
"-11 118 OFFCURVE",
"73 -12 OFFCURVE",
"223 -12 CURVE SMOOTH",
"313 -12 OFFCURVE",
"389 59 OFFCURVE",
"420 151 CURVE",
"404 -1 LINE",
"578 -1 LINE",
"579 -1 LINE",
"633 502 LINE"
);
}
);
};
components = (
{
name = a;
}
);
layerId = "6F85D940-A117-47EE-950D-70F837F8C9CE";
paths = (
{
closed = 1;
nodes = (
"663 501 LINE",
"727 860 LINE",
"552 860 LINE",
"490 499 LINE"
);
}
);
width = 664;
},
{
anchors = (
{
name = bottom;
position = "{269, 0}";
},
{
name = center;
position = "{314, 257}";
},
{
name = top;
position = "{359, 513}";
},
{
name = topright;
position = "{635, 513}";
}
);
components = (
{
name = a;
}
);
guideLines = (
{
position = "{221, -16}";
}
);
layerId = "7984B694-437B-44C7-A8AE-41A7C9CC5720";
paths = (
{
closed = 1;
nodes = (
"621 860 LINE",
"554 860 LINE",
"487 494 LINE",
"554 492 LINE"
);
}
);
width = 565;
}
);
leftKerningGroup = d;
leftMetricsKey = o;
rightKerningGroup = d;
unicode = 0064;
},
{
color = 1;
glyphname = eth;
lastChange = "2017-06-25 12:04:12 +0000";
layers = (
{
background = {
components = (
{
name = o;
transform = "{1, 0, 0, 1, -14, 0}";
}
);
};
layerId = "7984B694-437B-44C7-A8AE-41A7C9CC5720";
paths = (
{
closed = 1;
nodes = (
"0 107 OFFCURVE",
"67 -15 OFFCURVE",
"238 -15 CURVE SMOOTH",
"404 -15 OFFCURVE",
"519 112 OFFCURVE",
"545 251 CURVE SMOOTH",
"587 477 OFFCURVE",
"516 644 OFFCURVE",
"368 729 CURVE",
"463 803 LINE",
"419 847 LINE",
"314 753 LINE",
"281 782 OFFCURVE",
"181 814 OFFCURVE",
"181 814 CURVE",
"149 753 LINE",
"150 753 OFFCURVE",
"211 741 OFFCURVE",
"264 707 CURVE",
"167 624 LINE",
"206 581 LINE",
"322 685 LINE",
"409 639 OFFCURVE",
"489 520 OFFCURVE",
"498 435 CURVE",
"465 487 OFFCURVE",
"427 528 OFFCURVE",
"309 526 CURVE SMOOTH",
"196 524 OFFCURVE",
"56 424 OFFCURVE",
"27 259 CURVE SMOOTH"
);
},
{
closed = 1;
nodes = (
"114 356 OFFCURVE",
"197 466 OFFCURVE",
"314 466 CURVE SMOOTH",
"426 466 OFFCURVE",
"498 382 OFFCURVE",
"478 258 CURVE SMOOTH",
"457 131 OFFCURVE",
"367 49 OFFCURVE",
"242 49 CURVE SMOOTH",
"135 49 OFFCURVE",
"75 127 OFFCURVE",
"97 254 CURVE SMOOTH"
);
}
);
width = 580;
},
{
background = {
components = (
{
name = o;
transform = "{1, 0, 0, 1, 45, 0}";
}
);
};
layerId = "6F85D940-A117-47EE-950D-70F837F8C9CE";
paths = (
{
closed = 1;
nodes = (
"38 114 OFFCURVE",
"122 -15 OFFCURVE",
"304 -15 CURVE SMOOTH",
"481 -15 OFFCURVE",
"613 95 OFFCURVE",
"645 280 CURVE SMOOTH",
"674 442 OFFCURVE",
"635 628 OFFCURVE",
"494 741 CURVE",
"560 797 LINE",
"494 875 LINE",
"405 800 LINE",
"313 853 OFFCURVE",
"238 869 OFFCURVE",
"238 869 CURVE",
"172 725 LINE",
"174 725 OFFCURVE",
"220 717 OFFCURVE",
"278 687 CURVE",
"200 622 LINE",
"267 545 LINE",
"381 641 LINE",
"426 611 OFFCURVE",
"482 539 OFFCURVE",
"484 487 CURVE",
"469 511 OFFCURVE",
"435 528 OFFCURVE",
"381 528 CURVE SMOOTH",
"251 528 OFFCURVE",
"93 429 OFFCURVE",
"65 269 CURVE SMOOTH"
);
},
{
closed = 1;
nodes = (
"236 321 OFFCURVE",
"292 376 OFFCURVE",
"366 376 CURVE SMOOTH",
"425 376 OFFCURVE",
"477 336 OFFCURVE",
"470 268 CURVE SMOOTH",
"462 189 OFFCURVE",
"403 136 OFFCURVE",
"331 136 CURVE SMOOTH",
"264 136 OFFCURVE",
"223 181 OFFCURVE",
"229 245 CURVE SMOOTH"
);
}
);
width = 684;
}
);
rightKerningGroup = d;
unicode = 00F0;
},
{
color = 1;
glyphname = dcroat;
lastChange = "2017-06-25 12:04:12 +0000";
layers = (
{
components = (
{
name = d;
}
);
layerId = "6F85D940-A117-47EE-950D-70F837F8C9CE";
paths = (
{
closed = 1;
nodes = (
"749 628 LINE",
"769 742 LINE",
"407 742 LINE",
"387 628 LINE"
);
}
);
width = 683;
},
{
components = (
{
name = d;
transform = "{1, 0, 0, 1, 8, 0}";
}
);
layerId = "7984B694-437B-44C7-A8AE-41A7C9CC5720";
paths = (
{
closed = 1;
nodes = (
"660 648 LINE",
"670 702 LINE",
"388 702 LINE",
"378 648 LINE"
);
}
);
width = 572;
}
);
rightKerningGroup = d;
unicode = 0111;
},
{
color = 1;
glyphname = e;
lastChange = "2017-06-25 12:04:12 +0000";
layers = (
{
background = {
components = (
{
name = c;
transform = "{1, 0, 0, 1, 3, 0}";
}
);
};
layerId = "7984B694-437B-44C7-A8AE-41A7C9CC5720";
paths = (
{
closed = 1;
nodes = (
"496 251 LINE",
"544 419 OFFCURVE",
"481 528 OFFCURVE",
"313 528 CURVE SMOOTH",
"165 528 OFFCURVE",
"54 415 OFFCURVE",
"29 268 CURVE SMOOTH",
"-1 96 OFFCURVE",
"83 -16 OFFCURVE",
"265 -16 CURVE SMOOTH",
"333 -16 OFFCURVE",
"405 -1 OFFCURVE",
"461 26 CURVE",
"470 91 LINE",
"410 63 OFFCURVE",
"342 48 OFFCURVE",
"281 48 CURVE SMOOTH",
"158 48 OFFCURVE",
"67 115 OFFCURVE",
"95 250 CURVE"
);
},
{
closed = 1;
nodes = (
"109 308 LINE",
"118 353 OFFCURVE",
"175 465 OFFCURVE",
"310 465 CURVE SMOOTH",
"434 465 OFFCURVE",
"455 371 OFFCURVE",
"441 312 CURVE"
);
}
);
width = 534;
},
{
background = {
paths = (
{
closed = 1;
nodes = (
"534 219 LINE",
"534 222 OFFCURVE",
"536 228 OFFCURVE",
"538 234 CURVE SMOOTH",
"552 283 OFFCURVE",
"557 346 OFFCURVE",
"542 397 CURVE SMOOTH",
"516 483 OFFCURVE",
"438 528 OFFCURVE",
"329 528 CURVE SMOOTH",
"167 528 OFFCURVE",
"48 421 OFFCURVE",
"22 273 CURVE SMOOTH",
"-23 21 OFFCURVE",
"214 -75 OFFCURVE",
"486 12 CURVE",
"507 163 LINE",
"459 143 OFFCURVE",
"395 130 OFFCURVE",
"337 130 CURVE SMOOTH",
"256 130 OFFCURVE",
"187 155 OFFCURVE",
"191 219 CURVE"
);
},
{
closed = 1;
nodes = (
"207 329 LINE",
"217 374 OFFCURVE",
"269 415 OFFCURVE",
"323 415 CURVE SMOOTH",
"371 415 OFFCURVE",
"399 376 OFFCURVE",
"390 335 CURVE"
);
}
);
};
layerId = "6F85D940-A117-47EE-950D-70F837F8C9CE";
paths = (
{
closed = 1;
nodes = (
"534 219 LINE",
"585 399 OFFCURVE",
"519 528 OFFCURVE",
"329 528 CURVE SMOOTH",
"167 528 OFFCURVE",
"48 421 OFFCURVE",
"22 273 CURVE SMOOTH",
"-12 82 OFFCURVE",
"116 -19 OFFCURVE",
"298 -19 CURVE SMOOTH",
"356 -19 OFFCURVE",
"420 -9 OFFCURVE",
"486 12 CURVE",
"507 163 LINE",
"459 143 OFFCURVE",
"395 130 OFFCURVE",
"337 130 CURVE SMOOTH",
"256 130 OFFCURVE",
"187 155 OFFCURVE",
"191 219 CURVE"
);
},
{
closed = 1;
nodes = (
"207 329 LINE",
"217 374 OFFCURVE",
"269 415 OFFCURVE",
"323 415 CURVE SMOOTH",
"371 415 OFFCURVE",
"399 376 OFFCURVE",
"390 335 CURVE"
);
}
);
width = 574;
}
);
leftKerningGroup = c;
leftMetricsKey = o;
note = " ";
rightKerningGroup = c;
unicode = 0065;
},
{
color = 1;
glyphname = f;
lastChange = "2017-06-25 12:04:12 +0000";
layers = (
{
layerId = "7984B694-437B-44C7-A8AE-41A7C9CC5720";
paths = (
{
closed = 1;
nodes = (
"38 456 LINE",
"152 456 LINE",
"27 -260 LINE",
"94 -260 LINE",
"219 456 LINE",
"370 456 LINE",
"380 513 LINE",
"229 513 LINE",
"247 615 LINE SMOOTH",
"267 732 OFFCURVE",
"303 816 OFFCURVE",
"392 816 CURVE SMOOTH",
"407 816 OFFCURVE",
"426 814 OFFCURVE",
"446 811 CURVE",
"455 871 LINE",
"441 874 OFFCURVE",
"423 876 OFFCURVE",
"403 876 CURVE SMOOTH",
"279 876 OFFCURVE",
"208 776 OFFCURVE",
"185 644 CURVE SMOOTH",
"162 513 LINE",
"48 513 LINE"
);
}
);
width = 338;
},
{
layerId = "6F85D940-A117-47EE-950D-70F837F8C9CE";
paths = (
{
closed = 1;
nodes = (
"21 378 LINE",
"105 378 LINE",
"-8 -264 LINE",
"170 -264 LINE",
"283 378 LINE",
"391 378 LINE",
"414 513 LINE",
"306 513 LINE",
"326 624 LINE SMOOTH",
"339 695 OFFCURVE",
"378 718 OFFCURVE",
"407 718 CURVE SMOOTH",
"426 718 OFFCURVE",
"450 718 OFFCURVE",
"459 717 CURVE",
"486 870 LINE",
"486 870 OFFCURVE",
"494 875 OFFCURVE",
"409 875 CURVE SMOOTH",
"293 875 OFFCURVE",
"178 795 OFFCURVE",
"152 645 CURVE SMOOTH",
"129 513 LINE",
"45 513 LINE"
);
}
);
width = 375;
}
);
note = " ";
rightKerningGroup = d;
unicode = 0066;
},
{
color = 1;
glyphname = g;
lastChange = "2017-06-26 19:31:52 +0000";
layers = (
{
components = (
{
name = a;
}
);
layerId = "6F85D940-A117-47EE-950D-70F837F8C9CE";
paths = (
{
closed = 1;
nodes = (
"401 0 LINE",
"384 -80 OFFCURVE",
"319 -119 OFFCURVE",
"252 -124 CURVE SMOOTH",
"167 -134 OFFCURVE",
"90 -110 OFFCURVE",
"42 -80 CURVE",
"19 -232 LINE",
"65 -256 OFFCURVE",
"125 -275 OFFCURVE",
"234 -275 CURVE SMOOTH",
"416 -275 OFFCURVE",
"545 -183 OFFCURVE",
"578 0 CURVE"
);
}
);
width = 680;
},
{
components = (
{
name = a;
}
);
guideLines = (
{
angle = 84;
position = "{506, -41}";
}
);
layerId = "7984B694-437B-44C7-A8AE-41A7C9CC5720";
paths = (
{
closed = 1;
nodes = (
"400 0 LINE",
"382 -97 OFFCURVE",
"343 -160 OFFCURVE",
"262 -193 CURVE SMOOTH",
"191 -222 OFFCURVE",
"82 -213 OFFCURVE",
"5 -174 CURVE",
"-5 -241 LINE",
"96 -283 OFFCURVE",
"203 -284 OFFCURVE",
"289 -251 CURVE SMOOTH",
"383 -215 OFFCURVE",
"445 -132 OFFCURVE",
"468 0 CURVE"
);
}
);
width = 565;
}
);
leftKerningGroup = g;
leftMetricsKey = o;
rightKerningGroup = g;
unicode = 0067;
},
{
color = 1;
glyphname = h;
lastChange = "2017-06-26 19:31:52 +0000";
layers = (
{
background = {
components = (
{
name = n;
}
);
};
components = (
{
name = n;
}
);
layerId = "6F85D940-A117-47EE-950D-70F837F8C9CE";
paths = (
{
closed = 1;
nodes = (
"282 513 LINE",
"343 860 LINE",
"166 860 LINE",
"105 513 LINE"
);
}
);
width = 661;
},
{
background = {
components = (
{
name = n;
transform = "{1, 0, 0, 1, -8, 0}";
}
);
};
components = (
{
name = n;
transform = "{1, 0, 0, 1, -14, 0}";
}
);
layerId = "7984B694-437B-44C7-A8AE-41A7C9CC5720";
paths = (
{
closed = 1;
nodes = (
"158 513 LINE",
"220 860 LINE",
"151 860 LINE",
"89 507 LINE"
);
}
);
width = 538;
}
);
note = " ";
rightKerningGroup = b;
rightMetricsKey = n;
unicode = 0068;
},
{
color = 1;
glyphname = hbar;
lastChange = "2017-06-25 12:04:12 +0000";
layers = (
{
components = (
{
name = h;
}
);
layerId = "6F85D940-A117-47EE-950D-70F837F8C9CE";
paths = (
{
closed = 1;
nodes = (
"430 628 LINE",
"450 742 LINE",
"88 742 LINE",
"68 628 LINE"
);
}
);
width = 661;
},
{
components = (
{
name = h;
transform = "{1, 0, 0, 1, -12, 0}";
}
);
layerId = "7984B694-437B-44C7-A8AE-41A7C9CC5720";
paths = (
{
closed = 1;
nodes = (
"341 648 LINE",
"351 702 LINE",
"69 702 LINE",
"59 648 LINE"
);
}
);
width = 552;
}
);
unicode = 0127;
},
{
color = 1;
glyphname = i;
lastChange = "2017-06-25 12:04:12 +0000";
layers = (
{
layerId = "7984B694-437B-44C7-A8AE-41A7C9CC5720";
paths = (
{
closed = 1;
nodes = (
"80 0 LINE",
"170 513 LINE",
"103 513 LINE",
"13 0 LINE"
);
},
{
closed = 1;
nodes = (
"206 722 OFFCURVE",
"232 744 OFFCURVE",
"237 771 CURVE SMOOTH",
"242 804 OFFCURVE",
"220 830 OFFCURVE",
"188 830 CURVE SMOOTH",
"160 830 OFFCURVE",
"135 808 OFFCURVE",
"129 781 CURVE SMOOTH",
"124 748 OFFCURVE",
"146 722 OFFCURVE",
"178 722 CURVE SMOOTH"
);
}
);
width = 183;
},
{
layerId = "6F85D940-A117-47EE-950D-70F837F8C9CE";
paths = (
{
closed = 1;
nodes = (
"191 0 LINE",
"281 513 LINE",
"104 513 LINE",
"14 0 LINE"
);
},
{
closed = 1;
nodes = (
"277 620 OFFCURVE",
"325 660 OFFCURVE",
"335 712 CURVE SMOOTH",
"347 776 OFFCURVE",
"302 830 OFFCURVE",
"238 830 CURVE SMOOTH",
"186 830 OFFCURVE",
"137 790 OFFCURVE",
"128 738 CURVE SMOOTH",
"117 674 OFFCURVE",
"161 620 OFFCURVE",
"225 620 CURVE SMOOTH"
);
}
);
width = 300;
}
);
leftKerningGroup = i;
rightKerningGroup = d;
unicode = 0069;
},
{
color = 1;
glyphname = dotlessi;
lastChange = "2017-06-25 12:04:12 +0000";
layers = (
{
layerId = "6F85D940-A117-47EE-950D-70F837F8C9CE";
paths = (
{
closed = 1;
nodes = (
"178 0 LINE",
"268 513 LINE",
"91 513 LINE",
"1 0 LINE"
);
}
);
width = 269;
},
{
layerId = "7984B694-437B-44C7-A8AE-41A7C9CC5720";
paths = (
{
closed = 1;
nodes = (
"81 0 LINE",
"171 513 LINE",
"104 513 LINE",
"14 0 LINE"
);
}
);
width = 185;
}
);
leftKerningGroup = i;
rightKerningGroup = d;
unicode = 0131;
},
{
color = 1;
glyphname = j;
lastChange = "2017-06-25 12:04:12 +0000";
layers = (
{
layerId = "7984B694-437B-44C7-A8AE-41A7C9CC5720";
paths = (
{
closed = 1;
nodes = (
"68 -74 LINE SMOOTH",
"46 -199 OFFCURVE",
"2 -275 OFFCURVE",
"-120 -275 CURVE SMOOTH",
"-139 -275 OFFCURVE",
"-148 -275 OFFCURVE",
"-173 -270 CURVE",
"-160 -210 LINE",
"-134 -214 OFFCURVE",
"-126 -214 OFFCURVE",
"-107 -214 CURVE SMOOTH",
"-32 -214 OFFCURVE",
"-17 -168 OFFCURVE",
"6 -47 CURVE SMOOTH",
"104 513 LINE",
"172 513 LINE"
);
},
{
closed = 1;
nodes = (
"154 830 OFFCURVE",
"129 808 OFFCURVE",
"123 781 CURVE SMOOTH",
"116 748 OFFCURVE",
"140 722 OFFCURVE",
"172 722 CURVE SMOOTH",
"200 722 OFFCURVE",
"226 744 OFFCURVE",
"231 771 CURVE SMOOTH",
"237 804 OFFCURVE",
"214 830 OFFCURVE",
"182 830 CURVE SMOOTH"
);
}
);
width = 185;
},
{
layerId = "6F85D940-A117-47EE-950D-70F837F8C9CE";
paths = (
{
closed = 1;
nodes = (
"181 -76 LINE SMOOTH",
"165 -167 OFFCURVE",
"100 -269 OFFCURVE",
"-43 -275 CURVE SMOOTH",
"-87 -277 OFFCURVE",
"-126 -274 OFFCURVE",
"-147 -272 CURVE",
"-114 -116 LINE",
"-115 -116 OFFCURVE",
"-71 -116 OFFCURVE",
"-46 -115 CURVE SMOOTH",
"-19 -114 OFFCURVE",
"3 -96 OFFCURVE",
"11 -48 CURVE SMOOTH",
"108 513 LINE",
"285 513 LINE"
);
},
{
closed = 1;
nodes = (
"195 830 OFFCURVE",
"142 786 OFFCURVE",
"131 730 CURVE SMOOTH",
"120 670 OFFCURVE",
"162 620 OFFCURVE",
"222 620 CURVE SMOOTH",
"278 620 OFFCURVE",
"331 664 OFFCURVE",
"341 720 CURVE SMOOTH",
"351 780 OFFCURVE",
"311 830 OFFCURVE",
"250 830 CURVE SMOOTH"
);
}
);
width = 297;
}
);
note = " ";
rightKerningGroup = d;
unicode = 006A;
},
{
color = 1;
glyphname = k;
lastChange = "2017-06-25 12:04:12 +0000";
layers = (
{
layerId = "7984B694-437B-44C7-A8AE-41A7C9CC5720";
paths = (
{
closed = 1;
nodes = (
"377 427 LINE SMOOTH",
"362 346 OFFCURVE",
"325 307 OFFCURVE",
"249 307 CURVE SMOOTH",
"135 307 LINE",
"231 860 LINE",
"163 860 LINE",
"13 0 LINE",
"81 0 LINE",
"123 243 LINE",
"325 0 LINE",
"419 0 LINE",
"193 256 LINE",
"264 257 LINE SMOOTH",
"375 259 OFFCURVE",
"424 320 OFFCURVE",
"441 410 CURVE SMOOTH",
"461 513 LINE",
"393 513 LINE"
);
}
);
width = 466;
},
{
layerId = "6F85D940-A117-47EE-950D-70F837F8C9CE";
paths = (
{
closed = 1;
nodes = (
"192 0 LINE",
"232 232 LINE",
"370 0 LINE",
"578 0 LINE",
"416 239 LINE",
"454 239 LINE SMOOTH",
"532 239 OFFCURVE",
"576 274 OFFCURVE",
"598 390 CURVE SMOOTH",
"620 513 LINE",
"447 511 LINE",
"431 425 LINE SMOOTH",
"423 374 OFFCURVE",
"394 348 OFFCURVE",
"336 348 CURVE SMOOTH",
"253 348 LINE",
"343 860 LINE",
"166 860 LINE",
"15 0 LINE"
);
}
);
width = 646;
}
);
rightKerningGroup = d;
unicode = 006B;
},
{
color = 1;
glyphname = l;
lastChange = "2017-06-25 12:04:12 +0000";
layers = (
{
layerId = "7984B694-437B-44C7-A8AE-41A7C9CC5720";
paths = (
{
closed = 1;
nodes = (
"231 860 LINE",
"163 860 LINE",
"13 0 LINE",
"81 0 LINE"
);
}
);
width = 184;
},
{
layerId = "6F85D940-A117-47EE-950D-70F837F8C9CE";
paths = (
{
closed = 1;
nodes = (
"326 860 LINE",
"149 860 LINE",
"-1 0 LINE",
"176 0 LINE"
);
}
);
width = 297;
}
);
leftKerningGroup = i;
rightKerningGroup = d;
unicode = 006C;
},
{
color = 1;
glyphname = lslash;
lastChange = "2017-06-25 12:04:12 +0000";
layers = (
{
layerId = "6F85D940-A117-47EE-950D-70F837F8C9CE";
paths = (
{
closed = 1;
nodes = (
"228 0 LINE",
"309 449 LINE",
"395 509 LINE",
"419 662 LINE",
"332 602 LINE",
"379 860 LINE",
"202 860 LINE",
"131 463 LINE",
"44 403 LINE",
"21 250 LINE",
"107 310 LINE",
"51 0 LINE"
);
}
);
width = 369;
},
{
layerId = "7984B694-437B-44C7-A8AE-41A7C9CC5720";
paths = (
{
closed = 1;
nodes = (
"99 0 LINE",
"174 420 LINE",
"257 477 LINE",
"270 561 LINE",
"187 504 LINE",
"250 860 LINE",
"182 860 LINE",
"109 450 LINE",
"41 403 LINE",
"28 319 LINE",
"96 366 LINE",
"31 0 LINE"
);
}
);
width = 219;
}
);
rightKerningGroup = d;
unicode = 0142;
},
{
color = 1;
glyphname = m;
lastChange = "2017-06-25 12:04:12 +0000";
layers = (
{
layerId = "7984B694-437B-44C7-A8AE-41A7C9CC5720";
paths = (
{
closed = 1;
nodes = (
"583 528 OFFCURVE",
"506 477 OFFCURVE",
"478 418 CURVE",
"477 469 OFFCURVE",
"439 528 OFFCURVE",
"347 528 CURVE SMOOTH",
"262 528 OFFCURVE",
"180 475 OFFCURVE",
"154 417 CURVE",
"172 513 LINE",
"104 513 LINE",
"14 0 LINE",
"82 0 LINE",
"129 268 LINE SMOOTH",
"153 406 OFFCURVE",
"271 464 OFFCURVE",
"326 464 CURVE SMOOTH",
"389 464 OFFCURVE",
"428 434 OFFCURVE",
"405 295 CURVE SMOOTH",
"353 0 LINE",
"420 0 LINE",
"469 278 LINE SMOOTH",
"492 416 OFFCURVE",
"600 464 OFFCURVE",
"655 464 CURVE SMOOTH",
"718 464 OFFCURVE",
"752 434 OFFCURVE",
"729 295 CURVE SMOOTH",
"677 0 LINE",
"744 0 LINE",
"801 326 LINE SMOOTH",
"827 474 OFFCURVE",
"754 528 OFFCURVE",
"666 528 CURVE SMOOTH"
);
}
);
width = 840;
},
{
layerId = "6F85D940-A117-47EE-950D-70F837F8C9CE";
paths = (
{
closed = 1;
nodes = (
"683 525 OFFCURVE",
"632 447 OFFCURVE",
"598 376 CURVE",
"616 483 OFFCURVE",
"557 525 OFFCURVE",
"458 525 CURVE SMOOTH",
"355 525 OFFCURVE",
"280 420 OFFCURVE",
"256 376 CURVE",
"282 513 LINE",
"105 513 LINE",
"15 0 LINE",
"192 0 LINE",
"227 187 LINE SMOOTH",
"246 297 OFFCURVE",
"303 363 OFFCURVE",
"358 363 CURVE SMOOTH",
"411 363 OFFCURVE",
"430 350 OFFCURVE",
"418 281 CURVE SMOOTH",
"369 0 LINE",
"531 0 LINE",
"564 182 LINE SMOOTH",
"577 253 OFFCURVE",
"614 363 OFFCURVE",
"691 363 CURVE SMOOTH",
"744 363 OFFCURVE",
"754 327 OFFCURVE",
"742 258 CURVE SMOOTH",
"698 0 LINE",
"875 0 LINE",
"935 335 LINE SMOOTH",
"960 483 OFFCURVE",
"905 525 OFFCURVE",
"809 525 CURVE SMOOTH"
);
}
);
width = 975;
}
);
leftKerningGroup = r;
note = " ";
rightKerningGroup = b;
unicode = 006D;
},
{
color = 1;
glyphname = n;
lastChange = "2017-06-25 12:04:12 +0000";
layers = (
{
background = {
paths = (
{
closed = 1;
nodes = (
"123 220 LINE SMOOTH",
"135 331 OFFCURVE",
"225 468 OFFCURVE",
"339 468 CURVE SMOOTH",
"412 468 OFFCURVE",
"451 436 OFFCURVE",
"441 339 CURVE SMOOTH",
"439 321 OFFCURVE",
"427 206 OFFCURVE",
"405 0 CURVE",
"473 0 LINE",
"508 337 LINE SMOOTH",
"525 491 OFFCURVE",
"453 530 OFFCURVE",
"350 529 CURVE SMOOTH",
"251 528 OFFCURVE",
"172 471 OFFCURVE",
"135 365 CURVE",
"154 513 LINE",
"86 513 LINE",
"32 0 LINE",
"100 0 LINE"
);
}
);
};
layerId = "7984B694-437B-44C7-A8AE-41A7C9CC5720";
paths = (
{
closed = 1;
nodes = (
"82 0 LINE",
"122 224 LINE SMOOTH",
"140 331 OFFCURVE",
"243 468 OFFCURVE",
"356 468 CURVE SMOOTH",
"428 468 OFFCURVE",
"464 437 OFFCURVE",
"447 340 CURVE SMOOTH",
"387 0 LINE",
"455 0 LINE",
"514 336 LINE SMOOTH",
"541 490 OFFCURVE",
"471 529 OFFCURVE",
"367 529 CURVE SMOOTH",
"300 529 OFFCURVE",
"204 497 OFFCURVE",
"144 370 CURVE",
"172 513 LINE",
"104 513 LINE",
"14 0 LINE"
);
}
);
width = 552;
},
{
layerId = "6F85D940-A117-47EE-950D-70F837F8C9CE";
paths = (
{
closed = 1;
nodes = (
"193 0 LINE",
"218 142 LINE SMOOTH",
"240 271 OFFCURVE",
"295 366 OFFCURVE",
"384 366 CURVE SMOOTH",
"446 366 OFFCURVE",
"444 321 OFFCURVE",
"432 252 CURVE SMOOTH",
"389 0 LINE",
"566 0 LINE",
"625 330 LINE SMOOTH",
"651 478 OFFCURVE",
"575 525 OFFCURVE",
"480 526 CURVE SMOOTH",
"392 527 OFFCURVE",
"321 512 OFFCURVE",
"255 373 CURVE",
"282 513 LINE",
"105 513 LINE",
"15 0 LINE"
);
}
);
width = 661;
}
);
leftKerningGroup = r;
rightKerningGroup = b;
unicode = 006E;
},
{
color = 1;
glyphname = eng;
lastChange = "2017-06-25 12:04:12 +0000";
layers = (
{
components = (
{
name = n;
}
);
layerId = "6F85D940-A117-47EE-950D-70F837F8C9CE";
paths = (
{
closed = 1;
nodes = (
"553 -72 LINE SMOOTH",
"537 -163 OFFCURVE",
"468 -275 OFFCURVE",
"321 -275 CURVE SMOOTH",
"243 -275 OFFCURVE",
"214 -257 OFFCURVE",
"191 -246 CURVE",
"273 -100 LINE",
"271 -100 OFFCURVE",
"303 -115 OFFCURVE",
"331 -115 CURVE SMOOTH",
"355 -115 OFFCURVE",
"371 -100 OFFCURVE",
"380 -52 CURVE SMOOTH",
"389 0 LINE",
"566 0 LINE"
);
}
);
width = 661;
},
{
components = (
{
name = n;
}
);
layerId = "7984B694-437B-44C7-A8AE-41A7C9CC5720";
paths = (
{
closed = 1;
nodes = (
"442 -77 LINE SMOOTH",
"424 -178 OFFCURVE",
"377 -275 OFFCURVE",
"268 -275 CURVE SMOOTH",
"216 -275 OFFCURVE",
"186 -256 OFFCURVE",
"183 -254 CURVE",
"225 -190 LINE",
"224 -190 OFFCURVE",
"241 -213 OFFCURVE",
"286 -213 CURVE SMOOTH",
"343 -213 OFFCURVE",
"362 -145 OFFCURVE",
"379 -47 CURVE SMOOTH",
"388 0 LINE",
"456 0 LINE"
);
}
);
width = 551;
}
);
unicode = 014B;
},
{
color = 1;
glyphname = o;
lastChange = "2017-06-25 12:04:12 +0000";
layers = (
{
guideLines = (
{
angle = 80;
position = "{247, -89}";
}
);
layerId = "6F85D940-A117-47EE-950D-70F837F8C9CE";
paths = (
{
closed = 1;
nodes = (
"175 188 OFFCURVE",
"216 136 OFFCURVE",
"286 136 CURVE SMOOTH",
"356 136 OFFCURVE",
"416 189 OFFCURVE",
"426 260 CURVE SMOOTH",
"436 329 OFFCURVE",
"394 377 OFFCURVE",
"324 377 CURVE SMOOTH",
"259 377 OFFCURVE",
"199 334 OFFCURVE",
"187 260 CURVE SMOOTH"
);
},
{
closed = 1;
nodes = (
"47 433 OFFCURVE",
"198 528 OFFCURVE",
"352 528 CURVE SMOOTH",
"516 528 OFFCURVE",
"624 419 OFFCURVE",
"596 258 CURVE SMOOTH",
"568 100 OFFCURVE",
"427 -15 OFFCURVE",
"259 -15 CURVE SMOOTH",
"92 -15 OFFCURVE",
"-4 98 OFFCURVE",
"20 258 CURVE SMOOTH"
);
}
);
width = 616;
},
{
guideLines = (
{
angle = 80;
position = "{273, 187}";
}
);
layerId = "7984B694-437B-44C7-A8AE-41A7C9CC5720";
paths = (
{
closed = 1;
nodes = (
"396 -15 OFFCURVE",
"519 103 OFFCURVE",
"545 255 CURVE SMOOTH",
"571 409 OFFCURVE",
"487 528 OFFCURVE",
"333 528 CURVE SMOOTH",
"180 528 OFFCURVE",
"56 412 OFFCURVE",
"27 255 CURVE SMOOTH",
"0 107 OFFCURVE",
"70 -15 OFFCURVE",
"234 -15 CURVE SMOOTH"
);
},
{
closed = 1;
nodes = (
"141 49 OFFCURVE",
"76 130 OFFCURVE",
"98 255 CURVE SMOOTH",
"121 383 OFFCURVE",
"218 464 OFFCURVE",
"320 464 CURVE SMOOTH",
"423 464 OFFCURVE",
"498 382 OFFCURVE",
"477 255 CURVE SMOOTH",
"456 133 OFFCURVE",
"360 49 OFFCURVE",
"249 49 CURVE SMOOTH"
);
}
);
width = 571;
}
);
leftKerningGroup = c;
rightKerningGroup = c;
unicode = 006F;
},
{
color = 1;
glyphname = oslash;
lastChange = "2017-06-25 12:04:12 +0000";
layers = (
{
layerId = "6F85D940-A117-47EE-950D-70F837F8C9CE";
paths = (
{
closed = 1;
nodes = (
"97 50 LINE",
"140 11 OFFCURVE",
"208 -15 OFFCURVE",
"296 -15 CURVE SMOOTH",
"467 -15 OFFCURVE",
"609 91 OFFCURVE",
"636 243 CURVE SMOOTH",
"648 310 OFFCURVE",
"634 367 OFFCURVE",
"606 410 CURVE",
"708 484 LINE",
"669 538 LINE",
"563 461 LINE",
"518 501 OFFCURVE",
"451 528 OFFCURVE",
"368 528 CURVE SMOOTH",
"201 528 OFFCURVE",
"52 423 OFFCURVE",
"25 269 CURVE SMOOTH",
"13 201 OFFCURVE",
"26 144 OFFCURVE",
"52 100 CURVE",
"-47 28 LINE",
"-8 -26 LINE"
);
},
{
closed = 1;
nodes = (
"277 136 OFFCURVE",
"255 139 OFFCURVE",
"239 151 CURVE",
"454 307 LINE",
"455 293 OFFCURVE",
"454 279 OFFCURVE",
"452 269 CURVE SMOOTH",
"439 193 OFFCURVE",
"373 136 OFFCURVE",
"298 136 CURVE SMOOTH"
);
},
{
closed = 1;
nodes = (
"205 218 OFFCURVE",
"207 232 OFFCURVE",
"209 243 CURVE SMOOTH",
"222 320 OFFCURVE",
"291 377 OFFCURVE",
"364 377 CURVE SMOOTH",
"383 377 OFFCURVE",
"405 373 OFFCURVE",
"422 360 CURVE",
"206 204 LINE"
);
}
);
width = 661;
},
{
layerId = "7984B694-437B-44C7-A8AE-41A7C9CC5720";
paths = (
{
closed = 1;
nodes = (
"97 47 LINE",
"133 9 OFFCURVE",
"188 -15 OFFCURVE",
"265 -15 CURVE SMOOTH",
"428 -15 OFFCURVE",
"543 106 OFFCURVE",
"569 250 CURVE SMOOTH",
"581 319 OFFCURVE",
"571 381 OFFCURVE",
"543 428 CURVE",
"607 484 LINE",
"570 538 LINE",
"500 478 LINE",
"465 509 OFFCURVE",
"415 528 OFFCURVE",
"351 528 CURVE SMOOTH",
"192 528 OFFCURVE",
"71 407 OFFCURVE",
"45 260 CURVE SMOOTH",
"34 199 OFFCURVE",
"39 144 OFFCURVE",
"60 100 CURVE",
"-23 28 LINE",
"14 -26 LINE"
);
},
{
closed = 1;
nodes = (
"218 49 OFFCURVE",
"178 63 OFFCURVE",
"150 92 CURVE",
"491 384 LINE",
"507 350 OFFCURVE",
"511 307 OFFCURVE",
"503 261 CURVE SMOOTH",
"480 134 OFFCURVE",
"382 49 OFFCURVE",
"268 49 CURVE SMOOTH"
);
},
{
closed = 1;
nodes = (
"108 178 OFFCURVE",
"107 214 OFFCURVE",
"114 251 CURVE SMOOTH",
"137 379 OFFCURVE",
"240 464 OFFCURVE",
"350 464 CURVE SMOOTH",
"388 464 OFFCURVE",
"423 453 OFFCURVE",
"450 433 CURVE",
"117 148 LINE"
);
}
);
width = 603;
}
);
leftKerningGroup = c;
rightKerningGroup = c;
unicode = 00F8;
},
{
color = 1;
glyphname = p;
lastChange = "2017-06-26 19:31:52 +0000";
layers = (
{
layerId = "6F85D940-A117-47EE-950D-70F837F8C9CE";
paths = (
{
closed = 1;
nodes = (
"461 -28 OFFCURVE",
"625 50 OFFCURVE",
"660 251 CURVE SMOOTH",
"687 403 OFFCURVE",
"606 525 OFFCURVE",
"454 525 CURVE SMOOTH",
"366 525 OFFCURVE",
"291 455 OFFCURVE",
"254 363 CURVE",
"280 513 LINE",
"106 513 LINE",
"105 513 LINE",
"-30 -260 LINE",
"147 -260 LINE",
"192 -11 LINE"
);
},
{
closed = 1;
nodes = (
"445 358 OFFCURVE",
"485 317 OFFCURVE",
"473 249 CURVE SMOOTH",
"461 176 OFFCURVE",
"414 132 OFFCURVE",
"319 133 CURVE SMOOTH",
"220 134 LINE",
"229 190 LINE SMOOTH",
"240 263 OFFCURVE",
"297 358 OFFCURVE",
"378 358 CURVE SMOOTH"
);
}
);
width = 683;
},
{
background = {
components = (
{
name = a;
transform = "{-1, 0, 0, -1, 567, 513}";
}
);
paths = (
{
closed = 1;
nodes = (
"-26 -260 LINE",
"42 -260 LINE",
"71 19 LINE",
"3 19 LINE"
);
}
);
};
components = (
{
name = a;
transform = "{-1, 0, 0, -1, 565, 514}";
}
);
guideLines = (
{
position = "{185, -16}";
}
);
layerId = "7984B694-437B-44C7-A8AE-41A7C9CC5720";
paths = (
{
closed = 1;
nodes = (
"-30 -260 LINE",
"38 -260 LINE",
"86 19 LINE",
"18 19 LINE"
);
}
);
width = 564;
}
);
leftKerningGroup = r;
rightKerningGroup = b;
rightMetricsKey = o;
unicode = 0070;
},
{
color = 1;
glyphname = thorn;
lastChange = "2017-06-25 12:04:12 +0000";
layers = (
{
layerId = "6F85D940-A117-47EE-950D-70F837F8C9CE";
paths = (
{
closed = 1;
nodes = (
"144 -260 LINE",
"205 63 LINE",
"235 21 OFFCURVE",
"293 -15 OFFCURVE",
"369 -15 CURVE SMOOTH",
"513 -15 OFFCURVE",
"632 99 OFFCURVE",
"658 243 CURVE SMOOTH",
"685 399 OFFCURVE",
"597 528 OFFCURVE",
"441 528 CURVE SMOOTH",
"378 528 OFFCURVE",
"320 510 OFFCURVE",
"270 469 CURVE",
"343 860 LINE",
"166 860 LINE",
"-31 -260 LINE"
);
},
{
closed = 1;
nodes = (
"256 136 OFFCURVE",
"219 179 OFFCURVE",
"231 243 CURVE SMOOTH",
"244 320 OFFCURVE",
"313 377 OFFCURVE",
"385 377 CURVE SMOOTH",
"446 377 OFFCURVE",
"486 334 OFFCURVE",
"474 269 CURVE SMOOTH",
"461 193 OFFCURVE",
"397 136 OFFCURVE",
"319 136 CURVE SMOOTH"
);
}
);
width = 683;
},
{
background = {
components = (
{
name = p;
transform = "{1, 0, 0, 1, -14, 0}";
}
);
paths = (
{
closed = 1;
nodes = (
"103 514 LINE",
"171 514 LINE",
"231 859 LINE",
"165 859 LINE"
);
}
);
};
components = (
{
name = p;
transform = "{1, 0, 0, 1, -1, 0}";
}
);
layerId = "7984B694-437B-44C7-A8AE-41A7C9CC5720";
paths = (
{
closed = 1;
nodes = (
"103 514 LINE",
"171 514 LINE",
"231 859 LINE",
"165 859 LINE"
);
}
);
width = 572;
}
);
rightKerningGroup = b;
unicode = 00FE;
},
{
color = 1;
glyphname = q;
lastChange = "2017-06-25 12:04:12 +0000";
layers = (
{
background = {
components = (
{
name = a;
transform = "{1, 0, 0, 1, 26, 0}";
}
);
paths = (
{
closed = 1;
nodes = (
"403 -261 LINE",
"580 -261 LINE",
"607 0 LINE",
"430 0 LINE"
);
}
);
};
layerId = "6F85D940-A117-47EE-950D-70F837F8C9CE";
paths = (
{
closed = 1;
nodes = (
"334 -12 OFFCURVE",
"401 46 OFFCURVE",
"436 132 CURVE",
"367 -260 LINE",
"544 -260 LINE",
"676 512 LINE",
"569 524 OFFCURVE",
"456 531 OFFCURVE",
"336 520 CURVE SMOOTH",
"178 503 OFFCURVE",
"63 422 OFFCURVE",
"35 262 CURVE SMOOTH",
"10 110 OFFCURVE",
"85 -12 OFFCURVE",
"237 -12 CURVE SMOOTH"
);
},
{
closed = 1;
nodes = (
"475 379 LINE",
"465 322 LINE",
"453 251 OFFCURVE",
"398 155 OFFCURVE",
"317 155 CURVE SMOOTH",
"253 155 OFFCURVE",
"208 196 OFFCURVE",
"220 265 CURVE SMOOTH",
"232 337 OFFCURVE",
"290 380 OFFCURVE",
"365 380 CURVE"
);
}
);
width = 683;
},
{
components = (
{
name = a;
}
);
layerId = "7984B694-437B-44C7-A8AE-41A7C9CC5720";
paths = (
{
closed = 1;
nodes = (
"419 148 LINE",
"392 2 LINE",
"345 -260 LINE",
"416 -260 LINE",
"492 178 LINE"
);
}
);
width = 565;
}
);
leftKerningGroup = d;
leftMetricsKey = o;
rightKerningGroup = d;
unicode = 0071;
},
{
color = 1;
glyphname = r;
lastChange = "2017-06-25 12:04:12 +0000";
layers = (
{
background = {
components = (
{
name = n;
transform = "{1, 0, 0, 1, -1, 0}";
}
);
};
layerId = "7984B694-437B-44C7-A8AE-41A7C9CC5720";
paths = (
{
closed = 1;
nodes = (
"118 209 LINE SMOOTH",
"129 271 OFFCURVE",
"166 346 OFFCURVE",
"219 399 CURVE SMOOTH",
"263 444 OFFCURVE",
"316 469 OFFCURVE",
"376 463 CURVE",
"387 523 LINE",
"349 531 OFFCURVE",
"302 522 OFFCURVE",
"266 501 CURVE SMOOTH",
"214 474 OFFCURVE",
"174 427 OFFCURVE",
"142 365 CURVE",
"171 513 LINE",
"104 513 LINE",
"14 0 LINE",
"82 0 LINE"
);
}
);
width = 347;
},
{
layerId = "6F85D940-A117-47EE-950D-70F837F8C9CE";
paths = (
{
closed = 1;
nodes = (
"221 170 LINE SMOOTH",
"235 249 OFFCURVE",
"272 303 OFFCURVE",
"328 332 CURVE SMOOTH",
"365 356 OFFCURVE",
"415 365 OFFCURVE",
"471 362 CURVE",
"495 520 LINE",
"478 523 OFFCURVE",
"462 524 OFFCURVE",
"438 523 CURVE SMOOTH",
"318 517 OFFCURVE",
"264 384 OFFCURVE",
"257 371 CURVE",
"282 513 LINE",
"105 513 LINE",
"15 0 LINE",
"192 0 LINE"
);
}
);
width = 498;
}
);
leftKerningGroup = r;
note = " ";
rightKerningGroup = r;
unicode = 0072;
},
{
color = 1;
glyphname = s;
lastChange = "2017-06-25 12:04:12 +0000";
layers = (
{
layerId = "7984B694-437B-44C7-A8AE-41A7C9CC5720";
paths = (
{
closed = 1;
nodes = (
"153 528 OFFCURVE",
"67 480 OFFCURVE",
"51 393 CURVE SMOOTH",
"33 288 OFFCURVE",
"141 255 OFFCURVE",
"190 238 CURVE SMOOTH",
"225 222 OFFCURVE",
"303 205 OFFCURVE",
"293 147 CURVE SMOOTH",
"282 84 OFFCURVE",
"239 49 OFFCURVE",
"143 49 CURVE SMOOTH",
"69 49 OFFCURVE",
"22 67 OFFCURVE",
"1 85 CURVE",
"-10 17 LINE",
"1 5 OFFCURVE",
"48 -15 OFFCURVE",
"137 -15 CURVE SMOOTH",
"241 -15 OFFCURVE",
"343 31 OFFCURVE",
"362 138 CURVE SMOOTH",
"383 257 OFFCURVE",
"268 282 OFFCURVE",
"219 296 CURVE SMOOTH",
"185 311 OFFCURVE",
"112 329 OFFCURVE",
"122 384 CURVE SMOOTH",
"130 431 OFFCURVE",
"166 466 OFFCURVE",
"251 465 CURVE SMOOTH",
"320 464 OFFCURVE",
"349 450 OFFCURVE",
"369 441 CURVE",
"381 508 LINE",
"381 508 OFFCURVE",
"348 528 OFFCURVE",
"256 528 CURVE SMOOTH"
);
}
);
width = 401;
},
{
layerId = "6F85D940-A117-47EE-950D-70F837F8C9CE";
paths = (
{
closed = 1;
nodes = (
"175 528 OFFCURVE",
"77 471 OFFCURVE",
"58 368 CURVE SMOOTH",
"45 289 OFFCURVE",
"94 249 OFFCURVE",
"143 224 CURVE SMOOTH",
"194 192 OFFCURVE",
"245 191 OFFCURVE",
"240 156 CURVE SMOOTH",
"232 108 OFFCURVE",
"108 113 OFFCURVE",
"27 136 CURVE",
"5 3 LINE",
"5 3 OFFCURVE",
"33 -15 OFFCURVE",
"160 -15 CURVE SMOOTH",
"262 -15 OFFCURVE",
"401 6 OFFCURVE",
"427 155 CURVE SMOOTH",
"446 262 OFFCURVE",
"363 296 OFFCURVE",
"296 317 CURVE SMOOTH",
"257 332 OFFCURVE",
"225 338 OFFCURVE",
"229 363 CURVE SMOOTH",
"235 409 OFFCURVE",
"375 399 OFFCURVE",
"434 376 CURVE",
"455 509 LINE",
"455 509 OFFCURVE",
"409 528 OFFCURVE",
"307 528 CURVE SMOOTH"
);
}
);
width = 484;
}
);
leftKerningGroup = s;
rightKerningGroup = s;
unicode = 0073;
},
{
color = 1;
glyphname = germandbls;
lastChange = "2017-06-25 12:04:12 +0000";
layers = (
{
layerId = "6F85D940-A117-47EE-950D-70F837F8C9CE";
paths = (
{
closed = 1;
nodes = (
"314 -15 LINE",
"492 -15 OFFCURVE",
"634 90 OFFCURVE",
"660 242 CURVE SMOOTH",
"679 349 OFFCURVE",
"635 420 OFFCURVE",
"566 454 CURVE",
"638 491 OFFCURVE",
"682 544 OFFCURVE",
"695 617 CURVE SMOOTH",
"720 761 OFFCURVE",
"620 875 OFFCURVE",
"461 875 CURVE SMOOTH",
"302 875 OFFCURVE",
"182 779 OFFCURVE",
"156 629 CURVE",
"45 0 LINE",
"222 0 LINE",
"333 629 LINE SMOOTH",
"343 688 OFFCURVE",
"418 726 OFFCURVE",
"457 726 CURVE SMOOTH",
"510 726 OFFCURVE",
"542 697 OFFCURVE",
"532 643 CURVE SMOOTH",
"520 574 OFFCURVE",
"455 524 OFFCURVE",
"397 524 CURVE",
"385 389 LINE",
"461 389 OFFCURVE",
"491 345 OFFCURVE",
"479 277 CURVE SMOOTH",
"465 201 OFFCURVE",
"400 147 OFFCURVE",
"331 147 CURVE"
);
}
);
width = 686;
},
{
layerId = "7984B694-437B-44C7-A8AE-41A7C9CC5720";
paths = (
{
closed = 1;
nodes = (
"198 -15 LINE",
"376 -15 OFFCURVE",
"499 75 OFFCURVE",
"526 230 CURVE SMOOTH",
"545 334 OFFCURVE",
"473 437 OFFCURVE",
"398 453 CURVE",
"467 471 OFFCURVE",
"548 569 OFFCURVE",
"563 655 CURVE SMOOTH",
"588 796 OFFCURVE",
"512 875 OFFCURVE",
"386 875 CURVE SMOOTH",
"254 875 OFFCURVE",
"149 774 OFFCURVE",
"123 624 CURVE",
"-32 -260 LINE",
"36 -260 LINE",
"192 634 LINE SMOOTH",
"209 733 OFFCURVE",
"278 814 OFFCURVE",
"384 814 CURVE SMOOTH",
"460 814 OFFCURVE",
"514 779 OFFCURVE",
"495 672 CURVE SMOOTH",
"478 576 OFFCURVE",
"400 484 OFFCURVE",
"282 484 CURVE",
"275 419 LINE",
"411 419 OFFCURVE",
"471 329 OFFCURVE",
"455 238 CURVE SMOOTH",
"437 135 OFFCURVE",
"355 53 OFFCURVE",
"206 53 CURVE"
);
}
);
width = 553;
}
);
rightKerningGroup = d;
unicode = 00DF;
},
{
color = 1;
glyphname = t;
lastChange = "2017-06-25 12:04:12 +0000";
layers = (
{
layerId = "7984B694-437B-44C7-A8AE-41A7C9CC5720";
paths = (
{
closed = 1;
nodes = (
"39 456 LINE",
"125 456 LINE",
"73 163 LINE SMOOTH",
"57 73 OFFCURVE",
"58 -11 OFFCURVE",
"162 -14 CURVE SMOOTH",
"197 -15 OFFCURVE",
"222 -8 OFFCURVE",
"246 -2 CURVE",
"253 49 LINE",
"203 40 OFFCURVE",
"161 37 OFFCURVE",
"146 56 CURVE SMOOTH",
"134 70 OFFCURVE",
"130 97 OFFCURVE",
"138 142 CURVE SMOOTH",
"192 456 LINE",
"330 456 LINE",
"340 513 LINE",
"203 513 LINE",
"236 704 LINE",
"168 704 LINE",
"135 513 LINE",
"49 513 LINE"
);
}
);
width = 308;
},
{
layerId = "6F85D940-A117-47EE-950D-70F837F8C9CE";
paths = (
{
closed = 1;
nodes = (
"39 378 LINE",
"113 378 LINE",
"78 184 LINE SMOOTH",
"63 93 OFFCURVE",
"81 -15 OFFCURVE",
"225 -15 CURVE SMOOTH",
"277 -15 OFFCURVE",
"307 -11 OFFCURVE",
"343 0 CURVE",
"364 143 LINE",
"364 143 OFFCURVE",
"310 143 OFFCURVE",
"285 144 CURVE SMOOTH",
"259 145 OFFCURVE",
"254 164 OFFCURVE",
"262 212 CURVE SMOOTH",
"291 378 LINE",
"399 378 LINE",
"422 513 LINE",
"314 513 LINE",
"348 704 LINE",
"170 704 LINE",
"137 513 LINE",
"63 513 LINE"
);
}
);
width = 386;
}
);
leftKerningGroup = t;
rightKerningGroup = t;
unicode = 0074;
},
{
color = 1;
glyphname = tbar;
lastChange = "2017-06-25 12:04:12 +0000";
layers = (
{
components = (
{
name = t;
}
);
layerId = "6F85D940-A117-47EE-950D-70F837F8C9CE";
paths = (
{
closed = 1;
nodes = (
"8 208 LINE",
"366 208 LINE",
"390 343 LINE",
"32 343 LINE"
);
}
);
width = 400;
},
{
components = (
{
name = t;
transform = "{1, 0, 0, 1, -1, 0}";
}
);
layerId = "7984B694-437B-44C7-A8AE-41A7C9CC5720";
paths = (
{
closed = 1;
nodes = (
"28 282 LINE",
"314 282 LINE",
"324 339 LINE",
"38 339 LINE"
);
}
);
width = 337;
}
);
unicode = 0167;
},
{
color = 1;
glyphname = u;
lastChange = "2017-06-26 19:33:27 +0000";
layers = (
{
layerId = "7984B694-437B-44C7-A8AE-41A7C9CC5720";
paths = (
{
closed = 1;
nodes = (
"157 513 LINE",
"90 513 LINE",
"47 268 LINE SMOOTH",
"18 103 OFFCURVE",
"55 -15 OFFCURVE",
"219 -15 CURVE SMOOTH",
"377 -15 OFFCURVE",
"450 99 OFFCURVE",
"480 264 CURVE SMOOTH",
"524 513 LINE",
"457 513 LINE",
"420 295 LINE SMOOTH",
"393 134 OFFCURVE",
"339 49 OFFCURVE",
"224 49 CURVE SMOOTH",
"113 49 OFFCURVE",
"89 132 OFFCURVE",
"118 293 CURVE SMOOTH"
);
}
);
width = 525;
},
{
layerId = "6F85D940-A117-47EE-950D-70F837F8C9CE";
paths = (
{
closed = 1;
nodes = (
"268 513 LINE",
"91 513 LINE",
"48 273 LINE SMOOTH",
"18 101 OFFCURVE",
"90 -15 OFFCURVE",
"288 -15 CURVE SMOOTH",
"474 -15 OFFCURVE",
"572 87 OFFCURVE",
"602 259 CURVE SMOOTH",
"647 513 LINE",
"470 513 LINE",
"429 286 LINE SMOOTH",
"412 185 OFFCURVE",
"370 129 OFFCURVE",
"289 129 CURVE SMOOTH",
"222 129 OFFCURVE",
"208 171 OFFCURVE",
"226 272 CURVE SMOOTH"
);
}
);
width = 647;
}
);
leftKerningGroup = u;
rightKerningGroup = u;
unicode = 0075;
},
{
color = 1;
glyphname = v;
lastChange = "2017-06-26 19:31:52 +0000";
layers = (
{
layerId = "6F85D940-A117-47EE-950D-70F837F8C9CE";
paths = (
{
closed = 1;
nodes = (
"139.143 385 LINE",
"78.775 293.522 OFFCURVE",
"51.002 176.468 OFFCURVE",
"94 93 CURVE",
"125 24 OFFCURVE",
"196 -15 OFFCURVE",
"303 -15 CURVE SMOOTH",
"490 -15 OFFCURVE",
"593 91 OFFCURVE",
"623 263 CURVE SMOOTH",
"666 513 LINE",
"489 513 LINE",
"448 282 LINE SMOOTH",
"431 181 OFFCURVE",
"393 129 OFFCURVE",
"318 129 CURVE SMOOTH",
"255 129 OFFCURVE",
"240 175 OFFCURVE",
"257 276 CURVE SMOOTH",
"296.513 510.117 LINE",
"298 513 LINE",
"67 513 LINE",
"45 385 LINE"
);
}
);
width = 667;
},
{
guideLines = (
{
angle = 80;
position = "{279, 246}";
}
);
layerId = "7984B694-437B-44C7-A8AE-41A7C9CC5720";
paths = (
{
closed = 1;
nodes = (
"129 455 LINE",
"88 314 OFFCURVE",
"49 193 OFFCURVE",
"60 110 CURVE SMOOTH",
"71 27 OFFCURVE",
"131 -16 OFFCURVE",
"223 -15 CURVE SMOOTH",
"369 -14 OFFCURVE",
"438 85 OFFCURVE",
"458 195 CURVE SMOOTH",
"516 513 LINE",
"449 513 LINE",
"393 202 LINE SMOOTH",
"378 120 OFFCURVE",
"338 47 OFFCURVE",
"232 47 CURVE SMOOTH",
"129 47 OFFCURVE",
"117 103 OFFCURVE",
"139 230 CURVE SMOOTH",
"189 513 LINE",
"49 513 LINE",
"39 455 LINE"
);
}
);
width = 517;
}
);
leftKerningGroup = v;
rightKerningGroup = v;
rightMetricsKey = u;
unicode = 0076;
},
{
color = 1;
glyphname = w;
lastChange = "2017-06-26 19:31:52 +0000";
layers = (
{
background = {
paths = (
{
closed = 1;
nodes = (
"135 456 LINE",
"91 292 OFFCURVE",
"49 193 OFFCURVE",
"60 110 CURVE SMOOTH",
"71 27 OFFCURVE",
"131 -16 OFFCURVE",
"223 -15 CURVE SMOOTH",
"369 -13 OFFCURVE",
"438 85 OFFCURVE",
"458 195 CURVE SMOOTH",
"516 513 LINE",
"449 513 LINE",
"393 202 LINE SMOOTH",
"378 120 OFFCURVE",
"333 49 OFFCURVE",
"227 50 CURVE SMOOTH",
"126 51 OFFCURVE",
"116 138 OFFCURVE",
"140 230 CURVE SMOOTH",
"214 513 LINE",
"49 513 LINE",
"39 455 LINE"
);
}
);
};
guideLines = (
{
angle = 84;
position = "{292, 178}";
}
);
layerId = "7984B694-437B-44C7-A8AE-41A7C9CC5720";
paths = (
{
closed = 1;
nodes = (
"135 456 LINE",
"121 398 OFFCURVE",
"79 273 OFFCURVE",
"63 183 CURVE SMOOTH",
"44 73 OFFCURVE",
"94 -15 OFFCURVE",
"214 -15 CURVE SMOOTH",
"315 -15 OFFCURVE",
"370 51 OFFCURVE",
"400 110 CURVE",
"409 53 OFFCURVE",
"453 -15 OFFCURVE",
"549 -15 CURVE SMOOTH",
"673 -15 OFFCURVE",
"740 85 OFFCURVE",
"760 195 CURVE SMOOTH",
"818 513 LINE",
"751 513 LINE",
"695 202 LINE SMOOTH",
"680 119 OFFCURVE",
"635 51 OFFCURVE",
"558 51 CURVE SMOOTH",
"463 51 OFFCURVE",
"433 120 OFFCURVE",
"452 233 CURVE SMOOTH",
"499 513 LINE",
"431 513 LINE",
"383 235 LINE SMOOTH",
"364 125 OFFCURVE",
"313 51 OFFCURVE",
"222 51 CURVE SMOOTH",
"137 51 OFFCURVE",
"114 123 OFFCURVE",
"137 213 CURVE SMOOTH",
"214 513 LINE",
"49 513 LINE",
"39 455 LINE"
);
}
);
width = 819;
},
{
background = {
components = (
{
name = v;
transform = "{1, 0, 0, 1, 3, 0}";
}
);
};
layerId = "6F85D940-A117-47EE-950D-70F837F8C9CE";
paths = (
{
closed = 1;
nodes = (
"128 24 OFFCURVE",
"187 -15 OFFCURVE",
"281 -15 CURVE SMOOTH",
"370 -15 OFFCURVE",
"445 22 OFFCURVE",
"484 74 CURVE",
"500 30 OFFCURVE",
"573 -15 OFFCURVE",
"639 -15 CURVE SMOOTH",
"810 -15 OFFCURVE",
"913 91 OFFCURVE",
"943 263 CURVE SMOOTH",
"986 513 LINE",
"809 513 LINE",
"768 282 LINE SMOOTH",
"751 181 OFFCURVE",
"713 129 OFFCURVE",
"654 129 CURVE SMOOTH",
"593 129 OFFCURVE",
"583 191 OFFCURVE",
"597 276 CURVE SMOOTH",
"635 513 LINE",
"464 513 LINE",
"424 282 LINE SMOOTH",
"407 181 OFFCURVE",
"374 129 OFFCURVE",
"310 129 CURVE SMOOTH",
"254 129 OFFCURVE",
"243 175 OFFCURVE",
"260 276 CURVE SMOOTH",
"300 513 LINE",
"274 513 LINE",
"138 447 OFFCURVE",
"29 225 OFFCURVE",
"97 93 CURVE SMOOTH"
);
},
{
closed = 1;
nodes = (
"48 384 LINE",
"233 384 LINE",
"301 513 LINE",
"70 513 LINE"
);
}
);
width = 1007;
}
);
leftKerningGroup = v;
note = " ";
rightKerningGroup = v;
rightMetricsKey = u;
unicode = 0077;
},
{
color = 1;
glyphname = x;
lastChange = "2017-06-25 12:04:12 +0000";
layers = (
{
layerId = "7984B694-437B-44C7-A8AE-41A7C9CC5720";
paths = (
{
closed = 1;
nodes = (
"558 513 LINE",
"475 513 LINE",
"281 319 LINE",
"157 513 LINE",
"76 513 LINE",
"231 268 LINE",
"-46 0 LINE",
"44 0 LINE",
"267 220 LINE",
"410 0 LINE",
"498 0 LINE",
"317 268 LINE"
);
}
);
width = 542;
},
{
layerId = "6F85D940-A117-47EE-950D-70F837F8C9CE";
paths = (
{
closed = 1;
nodes = (
"654 513 LINE",
"442 513 LINE",
"330 394 LINE",
"264 513 LINE",
"62 513 LINE",
"205 268 LINE",
"-64 0 LINE",
"155 0 LINE",
"296 145 LINE",
"381 0 LINE",
"590 0 LINE",
"421 268 LINE"
);
}
);
width = 654;
}
);
rightKerningGroup = d;
unicode = 0078;
},
{
color = 1;
glyphname = y;
lastChange = "2017-06-25 12:04:12 +0000";
layers = (
{
background = {
components = (
{
name = v;
transform = "{1, 0, 0, 1, 2, 0}";
}
);
};
layerId = "6F85D940-A117-47EE-950D-70F837F8C9CE";
paths = (
{
closed = 1;
nodes = (
"467 306 LINE",
"451 189 OFFCURVE",
"414 129 OFFCURVE",
"331 129 CURVE SMOOTH",
"260 129 OFFCURVE",
"244 175 OFFCURVE",
"262 276 CURVE SMOOTH",
"302 513 LINE",
"276 513 LINE",
"140 447 OFFCURVE",
"32 226 OFFCURVE",
"99 93 CURVE SMOOTH",
"130 24 OFFCURVE",
"175 -13 OFFCURVE",
"290 -13 CURVE SMOOTH",
"449 -13 OFFCURVE",
"527 192 OFFCURVE",
"552 374 CURVE"
);
},
{
closed = 1;
nodes = (
"45 385 LINE",
"225 385 LINE",
"291 513 LINE",
"67 513 LINE"
);
},
{
closed = 1;
nodes = (
"400 -76 OFFCURVE",
"331 -125 OFFCURVE",
"259 -125 CURVE SMOOTH",
"201 -125 OFFCURVE",
"115 -117 OFFCURVE",
"56 -80 CURVE",
"31 -232 LINE",
"74 -258 OFFCURVE",
"143 -275 OFFCURVE",
"247 -275 CURVE SMOOTH",
"386 -275 OFFCURVE",
"541 -224 OFFCURVE",
"580 -18 CURVE SMOOTH",
"681 513 LINE",
"504 513 LINE",
"420 36 LINE SMOOTH"
);
}
);
width = 656;
},
{
background = {
components = (
{
name = a;
transform = "{1, 0, 0, 1, -10, 0}";
}
);
};
layerId = "7984B694-437B-44C7-A8AE-41A7C9CC5720";
paths = (
{
closed = 1;
nodes = (
"542 513 LINE",
"474 513 LINE",
"415 185 LINE",
"417 171 LINE",
"383 -3 LINE SMOOTH",
"364 -100 OFFCURVE",
"326 -160 OFFCURVE",
"245 -193 CURVE SMOOTH",
"175 -224 OFFCURVE",
"77 -213 OFFCURVE",
"0 -174 CURVE",
"-11 -241 LINE",
"90 -283 OFFCURVE",
"186 -284 OFFCURVE",
"272 -251 CURVE SMOOTH",
"365 -213 OFFCURVE",
"428 -133 OFFCURVE",
"451 -1 CURVE"
);
},
{
closed = 1;
nodes = (
"129 456 LINE",
"112 401 OFFCURVE",
"75 277 OFFCURVE",
"62 186 CURVE SMOOTH",
"47 81 OFFCURVE",
"82 -21 OFFCURVE",
"212 -14 CURVE SMOOTH",
"339 -7 OFFCURVE",
"427 131 OFFCURVE",
"451 288 CURVE",
"439 313 LINE",
"422 216 OFFCURVE",
"333 60 OFFCURVE",
"228 51 CURVE SMOOTH",
"139 43 OFFCURVE",
"117 115 OFFCURVE",
"135 210 CURVE SMOOTH",
"194 513 LINE",
"49 513 LINE",
"39 455 LINE"
);
}
);
width = 556;
}
);
leftKerningGroup = v;
rightKerningGroup = v;
unicode = 0079;
},
{
color = 1;
glyphname = z;
lastChange = "2017-06-25 12:04:12 +0000";
layers = (
{
layerId = "7984B694-437B-44C7-A8AE-41A7C9CC5720";
paths = (
{
closed = 1;
nodes = (
"56 448 LINE",
"350 448 LINE",
"-28 30 LINE",
"26 0 LINE",
"74 51 LINE",
"216 -3 LINE SMOOTH",
"299 -35 OFFCURVE",
"416 -8 OFFCURVE",
"423 120 CURVE",
"360 122 LINE",
"353 47 OFFCURVE",
"305 33 OFFCURVE",
"234 59 CURVE SMOOTH",
"116 103 LINE",
"487 513 LINE",
"68 513 LINE"
);
}
);
width = 463;
},
{
anchors = (
{
name = bottom;
position = "{229, 0}";
},
{
name = top;
position = "{319, 513}";
}
);
layerId = "6F85D940-A117-47EE-950D-70F837F8C9CE";
paths = (
{
closed = 1;
nodes = (
"565 513 LINE",
"231 131 LINE",
"310 113 LINE SMOOTH",
"358 101 OFFCURVE",
"372 121 OFFCURVE",
"382 179 CURVE",
"534 181 LINE",
"523 122 LINE SMOOTH",
"502 5 OFFCURVE",
"396 -59 OFFCURVE",
"257 -27 CURVE SMOOTH",
"127 4 LINE",
"88 -36 LINE",
"-48 33 LINE",
"246 378 LINE",
"34 378 LINE",
"57 513 LINE"
);
}
);
width = 548;
}
);
leftKerningGroup = z;
rightKerningGroup = d;
unicode = 007A;
},
{
color = 1;
glyphname = e.001;
lastChange = "2017-06-25 12:04:12 +0000";
layers = (
{
layerId = "7984B694-437B-44C7-A8AE-41A7C9CC5720";
paths = (
{
closed = 1;
nodes = (
"514 250 LINE",
"516 256 OFFCURVE",
"518 267 OFFCURVE",
"518 271 CURVE SMOOTH",
"545 424 OFFCURVE",
"450 528 OFFCURVE",
"321 528 CURVE SMOOTH",
"182 528 OFFCURVE",
"54 415 OFFCURVE",
"29 268 CURVE SMOOTH",
"0 105 OFFCURVE",
"81 -15 OFFCURVE",
"237 -15 CURVE SMOOTH",
"348 -15 OFFCURVE",
"415 26 OFFCURVE",
"482 107 CURVE",
"424 146 LINE",
"398 114 OFFCURVE",
"348 49 OFFCURVE",
"243 49 CURVE SMOOTH",
"130 49 OFFCURVE",
"76 141 OFFCURVE",
"95 250 CURVE"
);
},
{
closed = 1;
nodes = (
"109 308 LINE",
"118 353 OFFCURVE",
"200 464 OFFCURVE",
"323 464 CURVE SMOOTH",
"436 464 OFFCURVE",
"456 353 OFFCURVE",
"450 312 CURVE"
);
}
);
width = 539;
},
{
layerId = "6F85D940-A117-47EE-950D-70F837F8C9CE";
paths = (
{
closed = 1;
nodes = (
"3 154 OFFCURVE",
"47 61 OFFCURVE",
"142 18 CURVE SMOOTH",
"227 -25 OFFCURVE",
"337 -28 OFFCURVE",
"477 12 CURVE",
"496 154 LINE",
"371 108 OFFCURVE",
"179 117 OFFCURVE",
"199 225 CURVE",
"322 155 OFFCURVE",
"538 202 OFFCURVE",
"562 341 CURVE SMOOTH",
"583 468 OFFCURVE",
"483 528 OFFCURVE",
"351 528 CURVE SMOOTH",
"205 528 OFFCURVE",
"62 438 OFFCURVE",
"30 288 CURVE SMOOTH"
);
},
{
closed = 1;
nodes = (
"221 367 OFFCURVE",
"253 409 OFFCURVE",
"324 409 CURVE SMOOTH",
"388 409 OFFCURVE",
"403 382 OFFCURVE",
"397 348 CURVE SMOOTH",
"388 291 OFFCURVE",
"280 278 OFFCURVE",
"207 303 CURVE"
);
}
);
width = 593;
}
);
leftKerningGroup = c;
note = " ";
rightKerningGroup = c;
},
{
color = 1;
glyphname = f.001;
lastChange = "2017-06-25 12:04:12 +0000";
layers = (
{
layerId = "7984B694-437B-44C7-A8AE-41A7C9CC5720";
paths = (
{
closed = 1;
nodes = (
"39 448 LINE",
"153 448 LINE",
"75 0 LINE",
"142 0 LINE",
"220 448 LINE",
"371 448 LINE",
"383 513 LINE",
"232 513 LINE",
"249 615 LINE SMOOTH",
"276 766 OFFCURVE",
"338 813 OFFCURVE",
"387 813 CURVE SMOOTH",
"434 813 OFFCURVE",
"449 785 OFFCURVE",
"449 785 CURVE",
"485 846 LINE",
"483 846 OFFCURVE",
"454 875 OFFCURVE",
"389 875 CURVE SMOOTH",
"310 875 OFFCURVE",
"215 804 OFFCURVE",
"187 644 CURVE SMOOTH",
"165 513 LINE",
"51 513 LINE"
);
}
);
width = 343;
},
{
layerId = "6F85D940-A117-47EE-950D-70F837F8C9CE";
paths = (
{
closed = 1;
nodes = (
"21 378 LINE",
"105 378 LINE",
"10 -193 LINE",
"223 48 LINE",
"283 378 LINE",
"391 378 LINE",
"414 513 LINE",
"306 513 LINE",
"326 624 LINE SMOOTH",
"339 695 OFFCURVE",
"378 718 OFFCURVE",
"407 718 CURVE SMOOTH",
"426 718 OFFCURVE",
"445 719 OFFCURVE",
"454 718 CURVE",
"480 868 LINE",
"480 868 OFFCURVE",
"488 876 OFFCURVE",
"409 875 CURVE SMOOTH",
"293 873 OFFCURVE",
"178 795 OFFCURVE",
"152 645 CURVE SMOOTH",
"129 513 LINE",
"45 513 LINE"
);
},
{
closed = 1;
nodes = (
"261 233 LINE",
"314 582 LINE",
"141 582 LINE",
"83 233 LINE",
"59 98 LINE",
"40 -13 LINE SMOOTH",
"28 -84 OFFCURVE",
"-14 -110 OFFCURVE",
"-43 -110 CURVE SMOOTH",
"-62 -110 OFFCURVE",
"-75 -110 OFFCURVE",
"-84 -109 CURVE",
"-112 -259 LINE",
"-112 -259 OFFCURVE",
"-120 -264 OFFCURVE",
"-43 -264 CURVE SMOOTH",
"73 -264 OFFCURVE",
"187 -184 OFFCURVE",
"214 -34 CURVE SMOOTH",
"237 98 LINE"
);
}
);
width = 375;
}
);
note = " ";
rightKerningGroup = d;
},
{
color = 1;
glyphname = g.001;
lastChange = "2017-06-25 12:04:12 +0000";
layers = (
{
layerId = "7984B694-437B-44C7-A8AE-41A7C9CC5720";
paths = (
{
closed = 1;
nodes = (
"431 -1 LINE",
"431 1 LINE SMOOTH",
"411 -107 OFFCURVE",
"343 -211 OFFCURVE",
"204 -211 CURVE SMOOTH",
"69 -211 OFFCURVE",
"57 -152 OFFCURVE",
"47 -132 CURVE",
"-23 -166 LINE",
"-1 -220 OFFCURVE",
"73 -275 OFFCURVE",
"203 -275 CURVE SMOOTH",
"335 -275 OFFCURVE",
"466 -186 OFFCURVE",
"496 -17 CURVE SMOOTH",
"499 -1 LINE"
);
},
{
closed = 1;
nodes = (
"-1 88 OFFCURVE",
"91 -15 OFFCURVE",
"234 -15 CURVE SMOOTH",
"351 -15 OFFCURVE",
"434 60 OFFCURVE",
"445 89 CURVE",
"447 91 LINE",
"431 -1 LINE",
"499 -1 LINE",
"589 513 LINE",
"519 513 LINE",
"502 422 LINE",
"501 455 OFFCURVE",
"441 528 OFFCURVE",
"319 528 CURVE SMOOTH",
"182 528 OFFCURVE",
"59 428 OFFCURVE",
"29 261 CURVE SMOOTH"
);
},
{
closed = 1;
nodes = (
"121 385 OFFCURVE",
"216 464 OFFCURVE",
"317 464 CURVE SMOOTH",
"424 464 OFFCURVE",
"494 379 OFFCURVE",
"474 261 CURVE SMOOTH",
"453 138 OFFCURVE",
"350 49 OFFCURVE",
"236 49 CURVE SMOOTH",
"139 49 OFFCURVE",
"76 124 OFFCURVE",
"98 251 CURVE SMOOTH"
);
}
);
width = 603;
},
{
layerId = "6F85D940-A117-47EE-950D-70F837F8C9CE";
paths = (
{
closed = 1;
nodes = (
"268 380 OFFCURVE",
"340 379 CURVE SMOOTH",
"456 378 LINE",
"447 322 LINE SMOOTH",
"442 285 OFFCURVE",
"400 156 OFFCURVE",
"293 156 CURVE SMOOTH",
"220 156 OFFCURVE",
"196 203 OFFCURVE",
"200 256 CURVE SMOOTH",
"205 329 OFFCURVE"
);
},
{
closed = 1;
nodes = (
"-61 -172 OFFCURVE",
"26 -275 OFFCURVE",
"223 -275 CURVE SMOOTH",
"443 -275 OFFCURVE",
"545 -157 OFFCURVE",
"584 61 CURVE SMOOTH",
"663 510 LINE",
"663 511 OFFCURVE",
"538 525 OFFCURVE",
"423 525 CURVE SMOOTH",
"207 525 OFFCURVE",
"51 464 OFFCURVE",
"17 261 CURVE SMOOTH",
"-4 135 OFFCURVE",
"81 36 OFFCURVE",
"173 27 CURVE",
"122 -6 OFFCURVE",
"25 -37 OFFCURVE",
"-40 -41 CURVE"
);
},
{
closed = 1;
nodes = (
"287 -46 OFFCURVE",
"371 30 OFFCURVE",
"421 149 CURVE",
"402 38 OFFCURVE",
"386 -52 OFFCURVE",
"326 -98 CURVE SMOOTH",
"281 -138 OFFCURVE",
"176 -160 OFFCURVE",
"154 -83 CURVE"
);
}
);
width = 683;
}
);
leftKerningGroup = g;
rightKerningGroup = g;
},
{
color = 1;
glyphname = y.001;
lastChange = "2017-06-25 12:04:12 +0000";
layers = (
{
layerId = "7984B694-437B-44C7-A8AE-41A7C9CC5720";
paths = (
{
closed = 1;
nodes = (
"121 513 LINE",
"48 513 LINE",
"178 0 LINE",
"5 -260 LINE",
"80 -260 LINE",
"558 513 LINE",
"483 513 LINE",
"225 77 LINE"
);
}
);
width = 515;
},
{
layerId = "6F85D940-A117-47EE-950D-70F837F8C9CE";
paths = (
{
closed = 1;
nodes = (
"-30 -278 LINE",
"409 -295 OFFCURVE",
"624 233 OFFCURVE",
"653 510 CURVE",
"474 516 LINE",
"421 127 OFFCURVE",
"207 -124 OFFCURVE",
"-10 -133 CURVE"
);
},
{
closed = 1;
nodes = (
"213 -63 LINE",
"348 79 LINE",
"235 512 LINE",
"51 513 LINE"
);
}
);
width = 656;
}
);
leftKerningGroup = v;
rightKerningGroup = v;
},
{
color = 1;
glyphname = z.001;
lastChange = "2017-06-25 12:04:12 +0000";
layers = (
{
layerId = "7984B694-437B-44C7-A8AE-41A7C9CC5720";
paths = (
{
closed = 1;
nodes = (
"70 448 LINE",
"364 448 LINE",
"-41 0 LINE",
"401 0 LINE",
"412 65 LINE",
"96 65 LINE",
"501 513 LINE",
"82 513 LINE"
);
}
);
width = 466;
},
{
layerId = "6F85D940-A117-47EE-950D-70F837F8C9CE";
paths = (
{
closed = 1;
nodes = (
"571 513 LINE",
"276 174 LINE",
"434 181 OFFCURVE",
"508 128 OFFCURVE",
"481 -21 CURVE SMOOTH",
"430 -308 OFFCURVE",
"54 -314 OFFCURVE",
"-77 -234 CURVE",
"-44 -84 LINE",
"122 -154 OFFCURVE",
"286 -144 OFFCURVE",
"307 -38 CURVE SMOOTH",
"318 24 OFFCURVE",
"295 62 OFFCURVE",
"165 61 CURVE SMOOTH",
"135 61 OFFCURVE",
"16 59 OFFCURVE",
"-24 58 CURVE",
"252 378 LINE",
"40 378 LINE",
"63 513 LINE"
);
}
);
width = 561;
}
);
leftKerningGroup = z;
rightKerningGroup = d;
},
{
color = 1;
glyphname = k.ss01;
lastChange = "2017-06-25 12:04:12 +0000";
layers = (
{
layerId = "7984B694-437B-44C7-A8AE-41A7C9CC5720";
paths = (
{
closed = 1;
nodes = (
"132 295 LINE",
"231 860 LINE",
"163 860 LINE",
"13 0 LINE",
"81 0 LINE",
"123 235 LINE",
"340 0 LINE",
"432 0 LINE",
"184 267 LINE",
"509 513 LINE",
"418 513 LINE"
);
}
);
width = 476;
},
{
layerId = "6F85D940-A117-47EE-950D-70F837F8C9CE";
paths = (
{
closed = 1;
nodes = (
"343 860 LINE",
"166 860 LINE",
"15 0 LINE",
"192 0 LINE"
);
},
{
closed = 1;
nodes = (
"394 0 LINE",
"620 0 LINE",
"420 204 LINE",
"160 274 LINE"
);
},
{
closed = 1;
nodes = (
"230 222 LINE",
"418 179 LINE SMOOTH",
"637 127 OFFCURVE",
"744 524 OFFCURVE",
"458 524 CURVE SMOOTH",
"345 524 OFFCURVE",
"262 441 OFFCURVE",
"240 305 CURVE"
);
},
{
closed = 1;
nodes = (
"274 298 OFFCURVE",
"331 380 OFFCURVE",
"389 380 CURVE SMOOTH",
"486 380 OFFCURVE",
"470 251 OFFCURVE",
"371 251 CURVE",
"265 249 LINE"
);
}
);
width = 646;
}
);
rightKerningGroup = d;
},
{
glyphname = f_f;
lastChange = "2017-06-25 12:04:12 +0000";
layers = (
{
layerId = "6F85D940-A117-47EE-950D-70F837F8C9CE";
paths = (
{
closed = 1;
nodes = (
"21 378 LINE",
"105 378 LINE",
"38 0 LINE",
"216 0 LINE",
"283 378 LINE",
"391 378 LINE",
"414 513 LINE",
"306 513 LINE",
"326 624 LINE SMOOTH",
"339 695 OFFCURVE",
"378 718 OFFCURVE",
"407 718 CURVE SMOOTH",
"426 718 OFFCURVE",
"450 718 OFFCURVE",
"459 717 CURVE",
"486 870 LINE",
"486 870 OFFCURVE",
"494 875 OFFCURVE",
"409 875 CURVE SMOOTH",
"293 875 OFFCURVE",
"178 795 OFFCURVE",
"152 645 CURVE SMOOTH",
"129 513 LINE",
"45 513 LINE"
);
},
{
closed = 1;
nodes = (
"379 378 LINE",
"463 378 LINE",
"350 -264 LINE",
"528 -264 LINE",
"641 378 LINE",
"749 378 LINE",
"772 513 LINE",
"664 513 LINE",
"684 624 LINE SMOOTH",
"697 695 OFFCURVE",
"736 718 OFFCURVE",
"765 718 CURVE SMOOTH",
"784 718 OFFCURVE",
"808 718 OFFCURVE",
"817 717 CURVE",
"844 870 LINE",
"844 870 OFFCURVE",
"852 875 OFFCURVE",
"767 875 CURVE SMOOTH",
"651 875 OFFCURVE",
"536 795 OFFCURVE",
"510 645 CURVE SMOOTH",
"487 513 LINE",
"403 513 LINE"
);
}
);
width = 733;
},
{
background = {
components = (
{
name = f;
transform = "{1, 0, 0, 1, 2, 0}";
}
);
};
components = (
{
name = f;
transform = "{1, 0, 0, 1, 289, 0}";
}
);
layerId = "7984B694-437B-44C7-A8AE-41A7C9CC5720";
paths = (
{
closed = 1;
nodes = (
"140 0 LINE",
"219 455 LINE",
"439 455 LINE",
"450 513 LINE",
"230 513 LINE",
"248 615 LINE SMOOTH",
"279 787 OFFCURVE",
"338 816 OFFCURVE",
"390 816 CURVE SMOOTH",
"418 816 OFFCURVE",
"429 815 OFFCURVE",
"448 811 CURVE",
"457 871 LINE",
"446 873 OFFCURVE",
"432 876 OFFCURVE",
"400 876 CURVE SMOOTH",
"310 876 OFFCURVE",
"218 812 OFFCURVE",
"187 644 CURVE SMOOTH",
"163 513 LINE",
"49 513 LINE",
"38 455 LINE",
"152 455 LINE",
"73 0 LINE"
);
}
);
width = 627;
}
);
leftMetricsKey = f;
rightKerningGroup = d;
rightMetricsKey = f;
unicode = FB00;
},
{
color = 3;
glyphname = f_f_i;
lastChange = "2017-06-25 12:04:12 +0000";
layers = (
{
layerId = "6F85D940-A117-47EE-950D-70F837F8C9CE";
paths = (
{
closed = 1;
nodes = (
"620 378 LINE",
"804 378 LINE",
"738 0 LINE",
"915 0 LINE",
"1005 513 LINE",
"644 513 LINE"
);
},
{
closed = 1;
nodes = (
"21 378 LINE",
"105 378 LINE",
"38 0 LINE",
"216 0 LINE",
"283 378 LINE",
"391 378 LINE",
"414 513 LINE",
"306 513 LINE",
"326 624 LINE SMOOTH",
"339 695 OFFCURVE",
"378 718 OFFCURVE",
"407 718 CURVE SMOOTH",
"426 718 OFFCURVE",
"450 718 OFFCURVE",
"459 717 CURVE",
"486 870 LINE",
"486 870 OFFCURVE",
"494 875 OFFCURVE",
"409 875 CURVE SMOOTH",
"293 875 OFFCURVE",
"178 795 OFFCURVE",
"152 645 CURVE SMOOTH",
"129 513 LINE",
"45 513 LINE"
);
},
{
closed = 1;
nodes = (
"528 -264 LINE",
"641 378 LINE",
"749 378 LINE",
"772 513 LINE",
"664 513 LINE",
"684 624 LINE SMOOTH",
"697 695 OFFCURVE",
"736 713 OFFCURVE",
"765 718 CURVE SMOOTH",
"804 725 OFFCURVE",
"843 715 OFFCURVE",
"889 673 CURVE",
"971 792 LINE",
"954 825 OFFCURVE",
"886 880 OFFCURVE",
"767 875 CURVE SMOOTH",
"651 870 OFFCURVE",
"536 795 OFFCURVE",
"510 645 CURVE SMOOTH",
"487 513 LINE",
"403 513 LINE",
"379 378 LINE",
"463 378 LINE",
"350 -264 LINE"
);
}
);
width = 1005;
},
{
background = {
components = (
{
name = i;
transform = "{1, 0, 0, 1, 638, 0}";
}
);
};
layerId = "7984B694-437B-44C7-A8AE-41A7C9CC5720";
paths = (
{
closed = 1;
nodes = (
"140 0 LINE",
"219 455 LINE",
"439 455 LINE",
"450 513 LINE",
"230 513 LINE",
"248 615 LINE SMOOTH",
"279 787 OFFCURVE",
"338 816 OFFCURVE",
"390 816 CURVE SMOOTH",
"418 816 OFFCURVE",
"429 815 OFFCURVE",
"448 811 CURVE",
"457 871 LINE",
"446 873 OFFCURVE",
"432 876 OFFCURVE",
"400 876 CURVE SMOOTH",
"310 876 OFFCURVE",
"218 812 OFFCURVE",
"187 644 CURVE SMOOTH",
"163 513 LINE",
"49 513 LINE",
"38 455 LINE",
"152 455 LINE",
"73 0 LINE"
);
},
{
closed = 1;
nodes = (
"327 456 LINE",
"441 456 LINE",
"316 -260 LINE",
"383 -260 LINE",
"508 456 LINE",
"659 456 LINE",
"669 513 LINE",
"518 513 LINE",
"536 615 LINE SMOOTH",
"556 732 OFFCURVE",
"596 819 OFFCURVE",
"685 819 CURVE SMOOTH",
"736 819 OFFCURVE",
"765 793 OFFCURVE",
"781 755 CURVE",
"828 796 LINE",
"814 827 OFFCURVE",
"772 876 OFFCURVE",
"692 876 CURVE SMOOTH",
"568 876 OFFCURVE",
"497 776 OFFCURVE",
"474 644 CURVE SMOOTH",
"451 513 LINE",
"337 513 LINE"
);
},
{
closed = 1;
nodes = (
"507 456 LINE",
"732 456 LINE",
"652 0 LINE",
"719 0 LINE",
"809 513 LINE",
"517 513 LINE"
);
}
);
width = 801;
}
);
leftMetricsKey = f;
rightKerningGroup = d;
rightMetricsKey = i;
unicode = FB03;
},
{
color = 3;
glyphname = f_f_j;
lastChange = "2017-06-26 19:35:15 +0000";
layers = (
{
background = {
paths = (
{
closed = 1;
nodes = (
"21 378 LINE",
"105 378 LINE",
"-5 -260 LINE",
"173 -260 LINE",
"283 378 LINE",
"391 378 LINE",
"414 513 LINE",
"306 513 LINE",
"326 624 LINE SMOOTH",
"339 695 OFFCURVE",
"378 718 OFFCURVE",
"407 718 CURVE SMOOTH",
"426 718 OFFCURVE",
"450 718 OFFCURVE",
"459 717 CURVE",
"486 870 LINE",
"486 870 OFFCURVE",
"494 875 OFFCURVE",
"409 875 CURVE SMOOTH",
"293 875 OFFCURVE",
"178 795 OFFCURVE",
"152 645 CURVE SMOOTH",
"129 513 LINE",
"45 513 LINE"
);
},
{
closed = 1;
nodes = (
"580 0 LINE",
"641 378 LINE",
"749 378 LINE",
"772 513 LINE",
"664 513 LINE",
"684 624 LINE SMOOTH",
"697 695 OFFCURVE",
"736 713 OFFCURVE",
"765 718 CURVE SMOOTH",
"804 725 OFFCURVE",
"843 715 OFFCURVE",
"889 673 CURVE",
"971 792 LINE",
"954 825 OFFCURVE",
"886 880 OFFCURVE",
"767 875 CURVE SMOOTH",
"651 870 OFFCURVE",
"536 795 OFFCURVE",
"510 645 CURVE SMOOTH",
"487 513 LINE",
"403 513 LINE",
"379 378 LINE",
"463 378 LINE",
"402 0 LINE"
);
},
{
closed = 1;
nodes = (
"595 -274 OFFCURVE",
"634 -277 OFFCURVE",
"678 -275 CURVE SMOOTH",
"821 -269 OFFCURVE",
"886 -167 OFFCURVE",
"902 -76 CURVE SMOOTH",
"1006 513 LINE",
"679 513 LINE",
"655 378 LINE",
"805.658 378 LINE",
"732 -48 LINE SMOOTH",
"724 -96 OFFCURVE",
"702 -114 OFFCURVE",
"675 -115 CURVE SMOOTH",
"650 -116 OFFCURVE",
"606 -116 OFFCURVE",
"607 -116 CURVE",
"574 -272 LINE"
);
}
);
};
layerId = "6F85D940-A117-47EE-950D-70F837F8C9CE";
paths = (
{
closed = 1;
nodes = (
"21 378 LINE",
"105 378 LINE",
"-5 -260 LINE",
"173 -260 LINE",
"283 378 LINE",
"391 378 LINE",
"414 513 LINE",
"306 513 LINE",
"326 624 LINE SMOOTH",
"339 695 OFFCURVE",
"378 718 OFFCURVE",
"407 718 CURVE SMOOTH",
"426 718 OFFCURVE",
"450 718 OFFCURVE",
"459 717 CURVE",
"486 870 LINE",
"486 870 OFFCURVE",
"494 875 OFFCURVE",
"409 875 CURVE SMOOTH",
"293 875 OFFCURVE",
"178 795 OFFCURVE",
"152 645 CURVE SMOOTH",
"129 513 LINE",
"45 513 LINE"
);
},
{
closed = 1;
nodes = (
"580 0 LINE",
"641 378 LINE",
"749 378 LINE",
"772 513 LINE",
"664 513 LINE",
"684 624 LINE SMOOTH",
"697 695 OFFCURVE",
"736 713 OFFCURVE",
"765 718 CURVE SMOOTH",
"804 725 OFFCURVE",
"843 715 OFFCURVE",
"889 673 CURVE",
"971 792 LINE",
"954 825 OFFCURVE",
"886 880 OFFCURVE",
"767 875 CURVE SMOOTH",
"651 870 OFFCURVE",
"536 795 OFFCURVE",
"510 645 CURVE SMOOTH",
"487 513 LINE",
"403 513 LINE",
"379 378 LINE",
"463 378 LINE",
"402 0 LINE"
);
},
{
closed = 1;
nodes = (
"595 -274 OFFCURVE",
"634 -277 OFFCURVE",
"678 -275 CURVE SMOOTH",
"821 -269 OFFCURVE",
"886 -167 OFFCURVE",
"902 -76 CURVE SMOOTH",
"1006 513 LINE",
"679 513 LINE",
"655 378 LINE",
"805.658 378 LINE",
"732 -48 LINE SMOOTH",
"724 -96 OFFCURVE",
"702 -114 OFFCURVE",
"675 -115 CURVE SMOOTH",
"650 -116 OFFCURVE",
"606 -116 OFFCURVE",
"607 -116 CURVE",
"574 -272 LINE"
);
}
);
width = 999;
},
{
layerId = "7984B694-437B-44C7-A8AE-41A7C9CC5720";
paths = (
{
closed = 1;
nodes = (
"97 -260 LINE",
"219 455 LINE",
"439 455 LINE",
"450 513 LINE",
"230 513 LINE",
"248 615 LINE SMOOTH",
"279 787 OFFCURVE",
"338 816 OFFCURVE",
"390 816 CURVE SMOOTH",
"418 816 OFFCURVE",
"429 815 OFFCURVE",
"448 811 CURVE",
"457 871 LINE",
"446 873 OFFCURVE",
"432 876 OFFCURVE",
"400 876 CURVE SMOOTH",
"310 876 OFFCURVE",
"218 812 OFFCURVE",
"187 644 CURVE SMOOTH",
"163 513 LINE",
"49 513 LINE",
"38 455 LINE",
"152 455 LINE",
"30 -260 LINE"
);
},
{
closed = 1;
nodes = (
"327 456 LINE",
"441 456 LINE",
"361 0 LINE",
"428 0 LINE",
"508 456 LINE",
"747 456 LINE",
"757 513 LINE",
"518 513 LINE",
"536 615 LINE SMOOTH",
"556 732 OFFCURVE",
"596 819 OFFCURVE",
"685 819 CURVE SMOOTH",
"736 819 OFFCURVE",
"765 793 OFFCURVE",
"781 755 CURVE",
"828 796 LINE",
"814 827 OFFCURVE",
"772 876 OFFCURVE",
"692 876 CURVE SMOOTH",
"568 876 OFFCURVE",
"497 776 OFFCURVE",
"474 644 CURVE SMOOTH",
"451 513 LINE",
"337 513 LINE"
);
},
{
closed = 1;
nodes = (
"731 513 LINE",
"633 -47 LINE SMOOTH",
"610 -168 OFFCURVE",
"595 -214 OFFCURVE",
"520 -214 CURVE SMOOTH",
"501 -214 OFFCURVE",
"493 -214 OFFCURVE",
"467 -210 CURVE",
"454 -270 LINE",
"479 -275 OFFCURVE",
"488 -275 OFFCURVE",
"507 -275 CURVE SMOOTH",
"629 -275 OFFCURVE",
"673 -199 OFFCURVE",
"695 -74 CURVE SMOOTH",
"799 513 LINE"
);
}
);
width = 799;
},
{
associatedMasterId = "7984B694-437B-44C7-A8AE-41A7C9CC5720";
layerId = "A4E552E4-62BE-43BB-A58F-34F0EE3B77B8";
paths = (
{
closed = 1;
nodes = (
"943 -275 OFFCURVE",
"987 -170 OFFCURVE",
"987 -79 CURVE SMOOTH",
"987 513 LINE",
"642 513 LINE",
"642 617 LINE SMOOTH",
"642 688 OFFCURVE",
"658 719 OFFCURVE",
"728 719 CURVE SMOOTH",
"781 719 OFFCURVE",
"845 667 OFFCURVE",
"845 667 CURVE",
"907 792 LINE",
"907 792 OFFCURVE",
"814 875 OFFCURVE",
"676 875 CURVE SMOOTH",
"536 875 OFFCURVE",
"466 772 OFFCURVE",
"465 622 CURVE SMOOTH",
"465 513 LINE",
"287 513 LINE",
"287 617 LINE SMOOTH",
"287 688 OFFCURVE",
"297 718 OFFCURVE",
"342 718 CURVE SMOOTH",
"371 718 OFFCURVE",
"395 704 OFFCURVE",
"395 704 CURVE",
"457 829 LINE",
"457 829 OFFCURVE",
"401 875 OFFCURVE",
"311 875 CURVE SMOOTH",
"183 875 OFFCURVE",
"111 772 OFFCURVE",
"110 622 CURVE SMOOTH",
"110 513 LINE",
"36 513 LINE",
"36 378 LINE",
"110 378 LINE",
"110 0 LINE",
"287 0 LINE",
"287 378 LINE",
"465 378 LINE",
"465 0 LINE",
"642 0 LINE",
"642 378 LINE",
"810 378 LINE",
"810 -45 LINE SMOOTH",
"810 -93 OFFCURVE",
"791 -115 OFFCURVE",
"761 -115 CURVE SMOOTH",
"739 -115 OFFCURVE",
"716 -100 OFFCURVE",
"716 -100 CURVE",
"661 -243 LINE",
"686 -254 OFFCURVE",
"718 -275 OFFCURVE",
"802 -275 CURVE SMOOTH"
);
}
);
width = 1047;
},
{
associatedMasterId = "7984B694-437B-44C7-A8AE-41A7C9CC5720";
layerId = "7B60DD57-6012-4D0F-BD38-A72A4BAC0E9D";
paths = (
{
closed = 1;
nodes = (
"756 -275 OFFCURVE",
"784 -180 OFFCURVE",
"784 -79 CURVE SMOOTH",
"784 513 LINE",
"503 513 LINE",
"503 617 LINE SMOOTH",
"503 768 OFFCURVE",
"564 813 OFFCURVE",
"611 813 CURVE SMOOTH",
"710 813 OFFCURVE",
"727 743 OFFCURVE",
"727 743 CURVE",
"763 796 LINE",
"763 796 OFFCURVE",
"725 875 OFFCURVE",
"612 875 CURVE SMOOTH",
"531 875 OFFCURVE",
"436 802 OFFCURVE",
"436 642 CURVE SMOOTH",
"436 513 LINE",
"216 513 LINE",
"216 617 LINE SMOOTH",
"216 768 OFFCURVE",
"267 813 OFFCURVE",
"314 813 CURVE SMOOTH",
"363 813 OFFCURVE",
"386 783 OFFCURVE",
"386 783 CURVE",
"412 847 LINE",
"412 847 OFFCURVE",
"378 875 OFFCURVE",
"315 875 CURVE SMOOTH",
"234 875 OFFCURVE",
"149 802 OFFCURVE",
"149 642 CURVE SMOOTH",
"149 513 LINE",
"35 513 LINE",
"35 448 LINE",
"149 448 LINE",
"149 0 LINE",
"216 0 LINE",
"216 448 LINE",
"436 448 LINE",
"436 0 LINE",
"503 0 LINE",
"503 448 LINE",
"716 448 LINE",
"716 -45 LINE SMOOTH",
"716 -143 OFFCURVE",
"707 -213 OFFCURVE",
"647 -213 CURVE SMOOTH",
"605 -213 OFFCURVE",
"588 -190 OFFCURVE",
"588 -190 CURVE",
"558 -253 LINE",
"561 -255 OFFCURVE",
"595 -275 OFFCURVE",
"649 -275 CURVE SMOOTH"
);
}
);
width = 855;
}
);
leftMetricsKey = f;
rightKerningGroup = d;
rightMetricsKey = j;
},
{
color = 3;
glyphname = f_f_l;
lastChange = "2017-06-25 12:04:12 +0000";
layers = (
{
components = (
{
name = f_f;
}
);
layerId = "6F85D940-A117-47EE-950D-70F837F8C9CE";
paths = (
{
closed = 1;
nodes = (
"909 0 LINE",
"1060 860 LINE",
"883 860 LINE",
"732 0 LINE"
);
}
);
width = 1030;
},
{
background = {
components = (
{
name = f;
transform = "{1, 0, 0, 1, 289, 0}";
},
{
name = l;
transform = "{1, 0, 0, 1, 636, 0}";
}
);
paths = (
{
closed = 1;
nodes = (
"140 0 LINE",
"219 455 LINE",
"439 455 LINE",
"450 513 LINE",
"230 513 LINE",
"248 615 LINE SMOOTH",
"279 787 OFFCURVE",
"338 816 OFFCURVE",
"390 816 CURVE SMOOTH",
"418 816 OFFCURVE",
"429 815 OFFCURVE",
"448 811 CURVE",
"457 871 LINE",
"446 873 OFFCURVE",
"432 876 OFFCURVE",
"400 876 CURVE SMOOTH",
"310 876 OFFCURVE",
"218 812 OFFCURVE",
"187 644 CURVE SMOOTH",
"163 513 LINE",
"49 513 LINE",
"38 455 LINE",
"152 455 LINE",
"73 0 LINE"
);
}
);
};
components = (
{
name = f;
transform = "{1, 0, 0, 1, 289, 0}";
},
{
name = l;
transform = "{1, 0, 0, 1, 636, 0}";
}
);
layerId = "7984B694-437B-44C7-A8AE-41A7C9CC5720";
paths = (
{
closed = 1;
nodes = (
"140 0 LINE",
"219 455 LINE",
"439 455 LINE",
"450 513 LINE",
"230 513 LINE",
"248 615 LINE SMOOTH",
"279 787 OFFCURVE",
"338 816 OFFCURVE",
"390 816 CURVE SMOOTH",
"418 816 OFFCURVE",
"429 815 OFFCURVE",
"448 811 CURVE",
"457 871 LINE",
"446 873 OFFCURVE",
"432 876 OFFCURVE",
"400 876 CURVE SMOOTH",
"310 876 OFFCURVE",
"218 812 OFFCURVE",
"187 644 CURVE SMOOTH",
"163 513 LINE",
"49 513 LINE",
"38 455 LINE",
"152 455 LINE",
"73 0 LINE"
);
}
);
width = 820;
}
);
leftMetricsKey = f;
rightKerningGroup = d;
rightMetricsKey = l;
unicode = FB04;
},
{
color = 3;
glyphname = f_f_t;
lastChange = "2017-06-25 12:04:12 +0000";
layers = (
{
components = (
{
name = f_f;
transform = "{1, 0, 0, 1, 28, 0}";
},
{
name = t;
transform = "{1, 0, 0, 1, 721, 0}";
}
);
layerId = "6F85D940-A117-47EE-950D-70F837F8C9CE";
width = 1115;
},
{
background = {
components = (
{
name = f;
transform = "{1, 0, 0, 1, 289, 0}";
},
{
name = t;
transform = "{1, 0, 0, 1, 615, 0}";
}
);
paths = (
{
closed = 1;
nodes = (
"140 0 LINE",
"219 455 LINE",
"439 455 LINE",
"450 513 LINE",
"230 513 LINE",
"248 615 LINE SMOOTH",
"279 787 OFFCURVE",
"338 816 OFFCURVE",
"390 816 CURVE SMOOTH",
"418 816 OFFCURVE",
"429 815 OFFCURVE",
"448 811 CURVE",
"457 871 LINE",
"446 873 OFFCURVE",
"432 876 OFFCURVE",
"400 876 CURVE SMOOTH",
"310 876 OFFCURVE",
"218 812 OFFCURVE",
"187 644 CURVE SMOOTH",
"163 513 LINE",
"49 513 LINE",
"38 455 LINE",
"152 455 LINE",
"73 0 LINE"
);
}
);
};
components = (
{
name = f;
transform = "{1, 0, 0, 1, 289, 0}";
},
{
name = t;
transform = "{1, 0, 0, 1, 615, 0}";
}
);
layerId = "7984B694-437B-44C7-A8AE-41A7C9CC5720";
paths = (
{
closed = 1;
nodes = (
"140 0 LINE",
"219 455 LINE",
"439 455 LINE",
"450 513 LINE",
"230 513 LINE",
"248 615 LINE SMOOTH",
"279 787 OFFCURVE",
"338 816 OFFCURVE",
"390 816 CURVE SMOOTH",
"418 816 OFFCURVE",
"429 815 OFFCURVE",
"448 811 CURVE",
"457 871 LINE",
"446 873 OFFCURVE",
"432 876 OFFCURVE",
"400 876 CURVE SMOOTH",
"310 876 OFFCURVE",
"218 812 OFFCURVE",
"187 644 CURVE SMOOTH",
"163 513 LINE",
"49 513 LINE",
"38 455 LINE",
"152 455 LINE",
"73 0 LINE"
);
}
);
width = 923;
}
);
leftMetricsKey = f;
rightKerningGroup = d;
rightMetricsKey = t;
},
{
color = 3;
glyphname = f_j;
lastChange = "2017-06-25 12:04:12 +0000";
layers = (
{
layerId = "6F85D940-A117-47EE-950D-70F837F8C9CE";
paths = (
{
closed = 1;
nodes = (
"222 0 LINE",
"283 378 LINE",
"391 378 LINE",
"414 513 LINE",
"306 513 LINE",
"326 624 LINE SMOOTH",
"339 695 OFFCURVE",
"378 713 OFFCURVE",
"407 718 CURVE SMOOTH",
"446 725 OFFCURVE",
"485 715 OFFCURVE",
"531 673 CURVE",
"613 792 LINE",
"596 825 OFFCURVE",
"528 880 OFFCURVE",
"409 875 CURVE SMOOTH",
"293 870 OFFCURVE",
"178 795 OFFCURVE",
"152 645 CURVE SMOOTH",
"129 513 LINE",
"45 513 LINE",
"21 378 LINE",
"105 378 LINE",
"44 0 LINE"
);
},
{
closed = 1;
nodes = (
"237 -274 OFFCURVE",
"276 -277 OFFCURVE",
"320 -275 CURVE SMOOTH",
"463 -269 OFFCURVE",
"528 -167 OFFCURVE",
"544 -76 CURVE SMOOTH",
"648 513 LINE",
"321 513 LINE",
"297 378 LINE",
"448 378 LINE",
"374 -48 LINE SMOOTH",
"366 -96 OFFCURVE",
"344 -114 OFFCURVE",
"317 -115 CURVE SMOOTH",
"292 -116 OFFCURVE",
"248 -116 OFFCURVE",
"249 -116 CURVE",
"216 -272 LINE"
);
}
);
width = 641;
},
{
layerId = "7984B694-437B-44C7-A8AE-41A7C9CC5720";
paths = (
{
closed = 1;
nodes = (
"38 456 LINE",
"152 456 LINE",
"72 0 LINE",
"139 0 LINE",
"219 456 LINE",
"458 456 LINE",
"468 513 LINE",
"229 513 LINE",
"247 615 LINE SMOOTH",
"268 732 OFFCURVE",
"299 819 OFFCURVE",
"388 819 CURVE SMOOTH",
"439 819 OFFCURVE",
"468 793 OFFCURVE",
"484 755 CURVE",
"531 796 LINE",
"517 827 OFFCURVE",
"475 876 OFFCURVE",
"395 876 CURVE SMOOTH",
"271 876 OFFCURVE",
"208 776 OFFCURVE",
"185 644 CURVE SMOOTH",
"162 513 LINE",
"48 513 LINE"
);
},
{
closed = 1;
nodes = (
"422 513 LINE",
"324 -47 LINE SMOOTH",
"303 -168 OFFCURVE",
"286 -214 OFFCURVE",
"211 -214 CURVE SMOOTH",
"192 -214 OFFCURVE",
"184 -214 OFFCURVE",
"158 -210 CURVE",
"145 -270 LINE",
"170 -275 OFFCURVE",
"179 -275 OFFCURVE",
"198 -275 CURVE SMOOTH",
"320 -275 OFFCURVE",
"364 -199 OFFCURVE",
"386 -74 CURVE SMOOTH",
"490 513 LINE"
);
}
);
width = 490;
}
);
leftMetricsKey = f;
rightKerningGroup = d;
rightMetricsKey = j;
},
{
color = 3;
glyphname = fi;
lastChange = "2017-06-26 19:31:52 +0000";
layers = (
{
layerId = "6F85D940-A117-47EE-950D-70F837F8C9CE";
paths = (
{
closed = 1;
nodes = (
"281 378 LINE",
"465 378 LINE",
"399 0 LINE",
"576 0 LINE",
"666 513 LINE",
"305 513 LINE"
);
},
{
closed = 1;
nodes = (
"189 -264 LINE",
"302 378 LINE",
"410 378 LINE",
"433 513 LINE",
"325 513 LINE",
"345 624 LINE SMOOTH",
"358 695 OFFCURVE",
"397 713 OFFCURVE",
"426 718 CURVE SMOOTH",
"465 725 OFFCURVE",
"504 715 OFFCURVE",
"550 673 CURVE",
"632 792 LINE",
"615 825 OFFCURVE",
"547 880 OFFCURVE",
"428 875 CURVE SMOOTH",
"312 870 OFFCURVE",
"197 795 OFFCURVE",
"171 645 CURVE SMOOTH",
"148 513 LINE",
"64 513 LINE",
"40 378 LINE",
"124 378 LINE",
"11 -264 LINE"
);
}
);
width = 672;
},
{
layerId = "7984B694-437B-44C7-A8AE-41A7C9CC5720";
paths = (
{
closed = 1;
nodes = (
"38 456 LINE",
"152 456 LINE",
"27 -260 LINE",
"94 -260 LINE",
"219 456 LINE",
"370 456 LINE",
"380 513 LINE",
"229 513 LINE",
"247 615 LINE SMOOTH",
"268 732 OFFCURVE",
"299 819 OFFCURVE",
"388 819 CURVE SMOOTH",
"439 819 OFFCURVE",
"468 793 OFFCURVE",
"484 755 CURVE",
"531 796 LINE",
"517 827 OFFCURVE",
"475 876 OFFCURVE",
"395 876 CURVE SMOOTH",
"271 876 OFFCURVE",
"208 776 OFFCURVE",
"185 644 CURVE SMOOTH",
"162 513 LINE",
"48 513 LINE"
);
},
{
closed = 1;
nodes = (
"176 456 LINE",
"401 456 LINE",
"321 0 LINE",
"388 0 LINE",
"478 513 LINE",
"186 513 LINE"
);
}
);
width = 473;
}
);
leftMetricsKey = f;
rightKerningGroup = d;
rightMetricsKey = i;
unicode = FB01;
},
{
glyphname = ordfeminine;
lastChange = "2017-06-25 12:04:12 +0000";
layers = (
{
layerId = "6F85D940-A117-47EE-950D-70F837F8C9CE";
paths = (
{
closed = 1;
nodes = (
"128 586 OFFCURVE",
"184 504 OFFCURVE",
"283 504 CURVE SMOOTH",
"321 504 OFFCURVE",
"359 518 OFFCURVE",
"388 544 CURVE",
"384 549 LINE",
"380 513 LINE",
"487 513 LINE",
"543 830 LINE",
"434 830 LINE",
"424 796 LINE",
"401 821 OFFCURVE",
"368 840 OFFCURVE",
"319 840 CURVE SMOOTH",
"232 840 OFFCURVE",
"161 771 OFFCURVE",
"145 684 CURVE SMOOTH"
);
},
{
closed = 1;
nodes = (
"267 708 OFFCURVE",
"312 746 OFFCURVE",
"359 746 CURVE SMOOTH",
"394 746 OFFCURVE",
"417 722 OFFCURVE",
"410 684 CURVE SMOOTH",
"402 635 OFFCURVE",
"358 597 OFFCURVE",
"310 597 CURVE SMOOTH",
"271 597 OFFCURVE",
"251 621 OFFCURVE",
"258 658 CURVE SMOOTH"
);
}
);
width = 512;
},
{
layerId = "7984B694-437B-44C7-A8AE-41A7C9CC5720";
paths = (
{
closed = 1;
nodes = (
"25 567 OFFCURVE",
"89 503 OFFCURVE",
"178 503 CURVE SMOOTH",
"239 503 OFFCURVE",
"285 540 OFFCURVE",
"292 557 CURVE",
"293 559 LINE",
"285 513 LINE",
"341 513 LINE",
"397 830 LINE",
"340 831 LINE",
"331 784 LINE",
"329 804 OFFCURVE",
"293 840 OFFCURVE",
"228 840 CURVE SMOOTH",
"144 840 OFFCURVE",
"62 780 OFFCURVE",
"44 677 CURVE SMOOTH"
);
},
{
closed = 1;
nodes = (
"110 742 OFFCURVE",
"172 787 OFFCURVE",
"228 787 CURVE SMOOTH",
"286 787 OFFCURVE",
"326 741 OFFCURVE",
"315 677 CURVE SMOOTH",
"303 607 OFFCURVE",
"242 556 OFFCURVE",
"178 556 CURVE SMOOTH",
"126 556 OFFCURVE",
"85 597 OFFCURVE",
"97 667 CURVE SMOOTH"
);
}
);
width = 466;
}
);
rightKerningGroup = d;
unicode = 00AA;
},
{
glyphname = ordmasculine;
lastChange = "2017-06-25 12:04:12 +0000";
layers = (
{
layerId = "6F85D940-A117-47EE-950D-70F837F8C9CE";
paths = (
{
closed = 1;
nodes = (
"127 581 OFFCURVE",
"196 504 OFFCURVE",
"317 504 CURVE SMOOTH",
"420 504 OFFCURVE",
"506 567 OFFCURVE",
"522 658 CURVE SMOOTH",
"540 763 OFFCURVE",
"464 840 OFFCURVE",
"353 840 CURVE SMOOTH",
"252 840 OFFCURVE",
"162 777 OFFCURVE",
"145 684 CURVE SMOOTH"
);
},
{
closed = 1;
nodes = (
"267 708 OFFCURVE",
"312 746 OFFCURVE",
"359 746 CURVE SMOOTH",
"394 746 OFFCURVE",
"417 722 OFFCURVE",
"410 684 CURVE SMOOTH",
"402 635 OFFCURVE",
"358 597 OFFCURVE",
"310 597 CURVE SMOOTH",
"270 597 OFFCURVE",
"251 621 OFFCURVE",
"258 658 CURVE SMOOTH"
);
}
);
width = 521;
},
{
layerId = "7984B694-437B-44C7-A8AE-41A7C9CC5720";
paths = (
{
closed = 1;
nodes = (
"26 576 OFFCURVE",
"93 504 OFFCURVE",
"190 504 CURVE SMOOTH",
"277 504 OFFCURVE",
"366 572 OFFCURVE",
"383 666 CURVE SMOOTH",
"401 768 OFFCURVE",
"327 840 OFFCURVE",
"240 840 CURVE SMOOTH",
"155 840 OFFCURVE",
"61 772 OFFCURVE",
"44 676 CURVE SMOOTH"
);
},
{
closed = 1;
nodes = (
"114 739 OFFCURVE",
"181 791 OFFCURVE",
"240 791 CURVE SMOOTH",
"293 791 OFFCURVE",
"339 743 OFFCURVE",
"327 676 CURVE SMOOTH",
"314 604 OFFCURVE",
"250 552 OFFCURVE",
"188 552 CURVE SMOOTH",
"129 552 OFFCURVE",
"89 600 OFFCURVE",
"101 666 CURVE SMOOTH"
);
}
);
width = 481;
}
);
rightKerningGroup = d;
unicode = 00BA;
},
{
glyphname = zero;
lastChange = "2017-06-25 12:04:12 +0000";
layers = (
{
layerId = "6F85D940-A117-47EE-950D-70F837F8C9CE";
paths = (
{
closed = 1;
nodes = (
"3 113 OFFCURVE",
"145 -15 OFFCURVE",
"328 -15 CURVE SMOOTH",
"499 -15 OFFCURVE",
"672 99 OFFCURVE",
"725 399 CURVE SMOOTH",
"776 691 OFFCURVE",
"639 840 OFFCURVE",
"456 840 CURVE SMOOTH",
"285 840 OFFCURVE",
"107 705 OFFCURVE",
"58 425 CURVE SMOOTH"
);
},
{
closed = 1;
nodes = (
"274 571 OFFCURVE",
"353 675 OFFCURVE",
"450 675 CURVE SMOOTH",
"534 675 OFFCURVE",
"568 586 OFFCURVE",
"539 425 CURVE SMOOTH",
"507 241 OFFCURVE",
"430 150 OFFCURVE",
"334 150 CURVE SMOOTH",
"249 150 OFFCURVE",
"213 227 OFFCURVE",
"244 399 CURVE SMOOTH"
);
}
);
width = 728;
},
{
layerId = "7984B694-437B-44C7-A8AE-41A7C9CC5720";
paths = (
{
closed = 1;
nodes = (
"10 118 OFFCURVE",
"142 -15 OFFCURVE",
"291 -15 CURVE SMOOTH",
"436 -15 OFFCURVE",
"608 114 OFFCURVE",
"660 407 CURVE SMOOTH",
"713 706 OFFCURVE",
"582 840 OFFCURVE",
"433 840 CURVE SMOOTH",
"288 840 OFFCURVE",
"115 710 OFFCURVE",
"63 417 CURVE SMOOTH"
);
},
{
closed = 1;
nodes = (
"178 652 OFFCURVE",
"308 778 OFFCURVE",
"431 778 CURVE SMOOTH",
"549 778 OFFCURVE",
"630 657 OFFCURVE",
"588 417 CURVE SMOOTH",
"545 172 OFFCURVE",
"415 47 OFFCURVE",
"293 47 CURVE SMOOTH",
"174 47 OFFCURVE",
"93 168 OFFCURVE",
"135 407 CURVE SMOOTH"
);
}
);
width = 668;
}
);
unicode = 0030;
},
{
glyphname = one;
lastChange = "2017-06-25 12:04:12 +0000";
layers = (
{
layerId = "6F85D940-A117-47EE-950D-70F837F8C9CE";
paths = (
{
closed = 1;
nodes = (
"112 0 LINE",
"300 0 LINE",
"446 825 LINE",
"356 825 LINE",
"97 693 LINE",
"67 507 LINE",
"215 575 LINE"
);
}
);
width = 406;
},
{
layerId = "7984B694-437B-44C7-A8AE-41A7C9CC5720";
paths = (
{
closed = 1;
nodes = (
"141 0 LINE",
"209 0 LINE",
"355 825 LINE",
"305 825 LINE",
"100 713 LINE",
"88 637 LINE",
"271 735 LINE"
);
}
);
width = 315;
}
);
unicode = 0031;
},
{
glyphname = two;
lastChange = "2017-06-25 12:04:12 +0000";
layers = (
{
layerId = "6F85D940-A117-47EE-950D-70F837F8C9CE";
paths = (
{
closed = 1;
nodes = (
"521 681 OFFCURVE",
"545 650 OFFCURVE",
"524 573 CURVE SMOOTH",
"487 425 OFFCURVE",
"41 142 OFFCURVE",
"41 142 CURVE",
"16 0 LINE",
"609 0 LINE",
"638 165 LINE",
"342 162 LINE SMOOTH",
"342 162 OFFCURVE",
"665 343 OFFCURVE",
"711 547 CURVE SMOOTH",
"735 657 OFFCURVE",
"710 840 OFFCURVE",
"451 840 CURVE SMOOTH",
"203 840 OFFCURVE",
"90 597 OFFCURVE",
"90 597 CURVE",
"235 524 LINE",
"234 524 OFFCURVE",
"330 681 OFFCURVE",
"446 681 CURVE SMOOTH"
);
}
);
width = 715;
},
{
layerId = "7984B694-437B-44C7-A8AE-41A7C9CC5720";
paths = (
{
closed = 1;
nodes = (
"550 778 OFFCURVE",
"582 697 OFFCURVE",
"527 558 CURVE SMOOTH",
"448 355 OFFCURVE",
"1 55 OFFCURVE",
"1 55 CURVE",
"-9 0 LINE",
"504 0 LINE",
"516 68 LINE",
"127 67 LINE SMOOTH",
"127 67 OFFCURVE",
"511 329 OFFCURVE",
"603 553 CURVE SMOOTH",
"649 669 OFFCURVE",
"627 840 OFFCURVE",
"403 840 CURVE SMOOTH",
"201 840 OFFCURVE",
"108 649 OFFCURVE",
"108 649 CURVE",
"174 622 LINE",
"174 622 OFFCURVE",
"249 778 OFFCURVE",
"401 778 CURVE SMOOTH"
);
}
);
width = 611;
}
);
unicode = 0032;
},
{
glyphname = three;
lastChange = "2017-06-25 12:04:12 +0000";
layers = (
{
layerId = "6F85D940-A117-47EE-950D-70F837F8C9CE";
paths = (
{
closed = 1;
nodes = (
"254 587 LINE",
"253 587 OFFCURVE",
"302 689 OFFCURVE",
"411 689 CURVE SMOOTH",
"459 689 OFFCURVE",
"496 658 OFFCURVE",
"488 611 CURVE SMOOTH",
"476 545 OFFCURVE",
"413 494 OFFCURVE",
"363 494 CURVE SMOOTH",
"327 494 LINE",
"311 371 LINE",
"311 371 OFFCURVE",
"327 371 OFFCURVE",
"353 371 CURVE SMOOTH",
"413 371 OFFCURVE",
"454 334 OFFCURVE",
"443 269 CURVE SMOOTH",
"429 193 OFFCURVE",
"365 147 OFFCURVE",
"291 147 CURVE SMOOTH",
"172 147 OFFCURVE",
"194 270 OFFCURVE",
"194 270 CURVE",
"5 188 LINE",
"6 188 OFFCURVE",
"26 -15 OFFCURVE",
"286 -15 CURVE SMOOTH",
"457 -15 OFFCURVE",
"599 91 OFFCURVE",
"626 243 CURVE SMOOTH",
"644 346 OFFCURVE",
"592 426 OFFCURVE",
"536 442 CURVE",
"600 458 OFFCURVE",
"644 525 OFFCURVE",
"655 587 CURVE SMOOTH",
"681 733 OFFCURVE",
"580 840 OFFCURVE",
"417 840 CURVE SMOOTH",
"192 840 OFFCURVE",
"118 656 OFFCURVE",
"118 656 CURVE"
);
}
);
width = 660;
},
{
layerId = "7984B694-437B-44C7-A8AE-41A7C9CC5720";
paths = (
{
closed = 1;
nodes = (
"196 679 LINE",
"195 679 OFFCURVE",
"237 778 OFFCURVE",
"379 778 CURVE SMOOTH",
"494 778 OFFCURVE",
"532 708 OFFCURVE",
"517 623 CURVE SMOOTH",
"498 515 OFFCURVE",
"410 466 OFFCURVE",
"320 466 CURVE SMOOTH",
"281 466 LINE",
"272 399 LINE",
"272 399 OFFCURVE",
"303 399 OFFCURVE",
"306 399 CURVE SMOOTH",
"434 399 OFFCURVE",
"490 355 OFFCURVE",
"470 241 CURVE SMOOTH",
"451 134 OFFCURVE",
"368 47 OFFCURVE",
"239 47 CURVE SMOOTH",
"85 47 OFFCURVE",
"72 176 OFFCURVE",
"72 176 CURVE",
"-2 146 LINE",
"-1 146 OFFCURVE",
"26 -15 OFFCURVE",
"238 -15 CURVE SMOOTH",
"397 -15 OFFCURVE",
"520 93 OFFCURVE",
"544 231 CURVE SMOOTH",
"566 358 OFFCURVE",
"495 427 OFFCURVE",
"424 435 CURVE",
"503 450 OFFCURVE",
"572 519 OFFCURVE",
"589 615 CURVE SMOOTH",
"610 737 OFFCURVE",
"543 840 OFFCURVE",
"383 840 CURVE SMOOTH",
"205 840 OFFCURVE",
"129 708 OFFCURVE",
"129 708 CURVE"
);
}
);
width = 580;
}
);
unicode = 0033;
},
{
glyphname = four;
lastChange = "2017-06-25 12:04:12 +0000";
layers = (
{
layerId = "6F85D940-A117-47EE-950D-70F837F8C9CE";
paths = (
{
closed = 1;
nodes = (
"441 825 LINE",
"20 309 LINE",
"-2 174 LINE",
"338 174 LINE",
"307 0 LINE",
"483 0 LINE",
"514 174 LINE",
"610 174 LINE",
"639 339 LINE",
"543 339 LINE",
"629 825 LINE"
);
},
{
closed = 1;
nodes = (
"220 339 LINE",
"409 574 LINE",
"408 574 LINE",
"367 339 LINE"
);
}
);
width = 638;
},
{
layerId = "7984B694-437B-44C7-A8AE-41A7C9CC5720";
paths = (
{
closed = 1;
nodes = (
"478 825 LINE",
"7 234 LINE",
"-3 174 LINE",
"347 174 LINE",
"316 0 LINE",
"382 0 LINE",
"413 174 LINE",
"509 174 LINE",
"521 242 LINE",
"425 242 LINE",
"528 825 LINE"
);
},
{
closed = 1;
nodes = (
"95 242 LINE",
"435 668 LINE",
"434 668 LINE",
"359 242 LINE"
);
}
);
width = 537;
}
);
unicode = 0034;
},
{
glyphname = five;
lastChange = "2017-06-25 12:04:12 +0000";
layers = (
{
layerId = "6F85D940-A117-47EE-950D-70F837F8C9CE";
paths = (
{
closed = 1;
nodes = (
"10 170 LINE",
"28 86 OFFCURVE",
"100 -15 OFFCURVE",
"282 -15 CURVE SMOOTH",
"453 -15 OFFCURVE",
"596 95 OFFCURVE",
"627 273 CURVE SMOOTH",
"661 463 OFFCURVE",
"529 552 OFFCURVE",
"396 547 CURVE SMOOTH",
"328 543 OFFCURVE",
"310 525 OFFCURVE",
"310 525 CURVE",
"359 660 LINE",
"643 660 LINE",
"672 825 LINE",
"230 825 LINE",
"83 381 LINE",
"253 354 LINE",
"253 354 OFFCURVE",
"291 400 OFFCURVE",
"355 402 CURVE SMOOTH",
"440 405 OFFCURVE",
"459 364 OFFCURVE",
"446 289 CURVE SMOOTH",
"432 208 OFFCURVE",
"361 142 OFFCURVE",
"287 142 CURVE SMOOTH",
"207 142 OFFCURVE",
"173 179 OFFCURVE",
"167 230 CURVE"
);
}
);
width = 659;
},
{
layerId = "7984B694-437B-44C7-A8AE-41A7C9CC5720";
paths = (
{
closed = 1;
nodes = (
"18 133 LINE",
"25 101 OFFCURVE",
"71 -15 OFFCURVE",
"240 -15 CURVE SMOOTH",
"414 -15 OFFCURVE",
"536 103 OFFCURVE",
"565 268 CURVE SMOOTH",
"594 441 OFFCURVE",
"484 529 OFFCURVE",
"353 526 CURVE SMOOTH",
"244 523 OFFCURVE",
"198 459 OFFCURVE",
"198 459 CURVE",
"300 757 LINE",
"615 757 LINE",
"627 825 LINE",
"250 825 LINE",
"92 360 LINE",
"162 350 LINE",
"161 350 OFFCURVE",
"210 461 OFFCURVE",
"340 462 CURVE SMOOTH",
"439 463 OFFCURVE",
"511 395 OFFCURVE",
"492 276 CURVE SMOOTH",
"470 139 OFFCURVE",
"368 47 OFFCURVE",
"242 47 CURVE SMOOTH",
"124 47 OFFCURVE",
"92 141 OFFCURVE",
"90 165 CURVE"
);
}
);
width = 603;
}
);
unicode = 0035;
},
{
glyphname = six;
lastChange = "2017-06-25 12:04:12 +0000";
layers = (
{
layerId = "6F85D940-A117-47EE-950D-70F837F8C9CE";
paths = (
{
closed = 1;
nodes = (
"476 -15 OFFCURVE",
"619 96 OFFCURVE",
"647 254 CURVE SMOOTH",
"678 427 OFFCURVE",
"558 552 OFFCURVE",
"403 552 CURVE SMOOTH",
"378 552 OFFCURVE",
"326 539 OFFCURVE",
"290 531 CURVE SMOOTH",
"161 487 OFFCURVE",
"56 377 OFFCURVE",
"39 280 CURVE SMOOTH",
"9 110 OFFCURVE",
"116 -15 OFFCURVE",
"306 -15 CURVE SMOOTH"
);
},
{
closed = 1;
nodes = (
"241 143 OFFCURVE",
"203 187 OFFCURVE",
"215 255 CURVE SMOOTH",
"229 335 OFFCURVE",
"301 394 OFFCURVE",
"379 394 CURVE SMOOTH",
"443 394 OFFCURVE",
"487 349 OFFCURVE",
"475 281 CURVE SMOOTH",
"461 201 OFFCURVE",
"391 143 OFFCURVE",
"312 143 CURVE SMOOTH"
);
},
{
closed = 1;
nodes = (
"103 491 OFFCURVE",
"58 390 OFFCURVE",
"38 274 CURVE",
"343 517 LINE",
"365 531 OFFCURVE",
"391 548 OFFCURVE",
"404 561 CURVE",
"671 825 LINE",
"439 825 LINE",
"207 599 LINE"
);
}
);
width = 688;
},
{
layerId = "7984B694-437B-44C7-A8AE-41A7C9CC5720";
paths = (
{
closed = 1;
nodes = (
"442 -15 OFFCURVE",
"560 91 OFFCURVE",
"589 252 CURVE SMOOTH",
"619 422 OFFCURVE",
"521 532 OFFCURVE",
"378 532 CURVE SMOOTH",
"289 532 OFFCURVE",
"243 505 OFFCURVE",
"212 490 CURVE SMOOTH",
"148 450 OFFCURVE",
"56 372 OFFCURVE",
"38 272 CURVE SMOOTH",
"9 105 OFFCURVE",
"90 -15 OFFCURVE",
"270 -15 CURVE SMOOTH"
);
},
{
closed = 1;
nodes = (
"141 47 OFFCURVE",
"89 141 OFFCURVE",
"111 262 CURVE SMOOTH",
"133 389 OFFCURVE",
"232 470 OFFCURVE",
"367 470 CURVE SMOOTH",
"486 470 OFFCURVE",
"538 383 OFFCURVE",
"516 262 CURVE SMOOTH",
"494 135 OFFCURVE",
"403 47 OFFCURVE",
"272 47 CURVE SMOOTH"
);
},
{
closed = 1;
nodes = (
"168 515 OFFCURVE",
"64 415 OFFCURVE",
"38 269 CURVE",
"236 496 LINE",
"240 499 OFFCURVE",
"288 551 OFFCURVE",
"301 564 CURVE",
"559 825 LINE",
"471 825 LINE",
"241 596 LINE"
);
}
);
width = 631;
}
);
unicode = 0036;
},
{
glyphname = seven;
lastChange = "2017-06-25 12:04:12 +0000";
layers = (
{
layerId = "6F85D940-A117-47EE-950D-70F837F8C9CE";
paths = (
{
closed = 1;
nodes = (
"144 660 LINE",
"496 660 LINE",
"0 0 LINE",
"226 0 LINE",
"747 697 LINE",
"768 825 LINE",
"173 825 LINE"
);
}
);
width = 682;
},
{
layerId = "7984B694-437B-44C7-A8AE-41A7C9CC5720";
paths = (
{
closed = 1;
nodes = (
"150 757 LINE",
"574 757 LINE",
"0 0 LINE",
"82 0 LINE",
"657 765 LINE",
"667 825 LINE",
"162 825 LINE"
);
}
);
width = 580;
}
);
unicode = 0037;
},
{
glyphname = eight;
lastChange = "2017-06-25 12:04:12 +0000";
layers = (
{
layerId = "6F85D940-A117-47EE-950D-70F837F8C9CE";
paths = (
{
closed = 1;
nodes = (
"703 762 OFFCURVE",
"582 840 OFFCURVE",
"435 840 CURVE SMOOTH",
"305 840 OFFCURVE",
"162 776 OFFCURVE",
"137 635 CURVE SMOOTH",
"120 538 OFFCURVE",
"162 484 OFFCURVE",
"214 451 CURVE",
"118 410 OFFCURVE",
"52 352 OFFCURVE",
"33 245 CURVE SMOOTH",
"5 85 OFFCURVE",
"142 -15 OFFCURVE",
"308 -15 CURVE SMOOTH",
"457 -15 OFFCURVE",
"620 71 OFFCURVE",
"646 219 CURVE SMOOTH",
"667 338 OFFCURVE",
"611 404 OFFCURVE",
"539 439 CURVE",
"613 478 OFFCURVE",
"661 524 OFFCURVE",
"676 609 CURVE SMOOTH"
);
},
{
closed = 1;
nodes = (
"248 307 OFFCURVE",
"308 357 OFFCURVE",
"373 357 CURVE SMOOTH",
"425 357 OFFCURVE",
"460 321 OFFCURVE",
"450 265 CURVE SMOOTH",
"438 198 OFFCURVE",
"378 147 OFFCURVE",
"313 147 CURVE SMOOTH",
"256 147 OFFCURVE",
"227 184 OFFCURVE",
"236 239 CURVE SMOOTH"
);
},
{
closed = 1;
nodes = (
"488 557 OFFCURVE",
"437 513 OFFCURVE",
"378 513 CURVE SMOOTH",
"333 513 OFFCURVE",
"302 543 OFFCURVE",
"311 592 CURVE SMOOTH",
"321 651 OFFCURVE",
"375 698 OFFCURVE",
"434 698 CURVE SMOOTH",
"482 698 OFFCURVE",
"507 665 OFFCURVE",
"499 618 CURVE SMOOTH"
);
}
);
width = 688;
},
{
layerId = "7984B694-437B-44C7-A8AE-41A7C9CC5720";
paths = (
{
closed = 1;
nodes = (
"644 771 OFFCURVE",
"555 840 OFFCURVE",
"412 840 CURVE SMOOTH",
"278 840 OFFCURVE",
"162 775 OFFCURVE",
"136 631 CURVE SMOOTH",
"120 537 OFFCURVE",
"167 472 OFFCURVE",
"223 447 CURVE",
"133 418 OFFCURVE",
"53 357 OFFCURVE",
"32 237 CURVE SMOOTH",
"6 90 OFFCURVE",
"99 -15 OFFCURVE",
"271 -15 CURVE SMOOTH",
"434 -15 OFFCURVE",
"562 86 OFFCURVE",
"587 227 CURVE SMOOTH",
"609 353 OFFCURVE",
"547 416 OFFCURVE",
"470 443 CURVE",
"539 470 OFFCURVE",
"602 533 OFFCURVE",
"618 621 CURVE SMOOTH"
);
},
{
closed = 1;
nodes = (
"124 341 OFFCURVE",
"215 414 OFFCURVE",
"346 414 CURVE SMOOTH",
"472 414 OFFCURVE",
"534 345 OFFCURVE",
"515 237 CURVE SMOOTH",
"495 125 OFFCURVE",
"404 47 OFFCURVE",
"272 47 CURVE SMOOTH",
"142 47 OFFCURVE",
"86 121 OFFCURVE",
"104 227 CURVE SMOOTH"
);
},
{
closed = 1;
nodes = (
"536 545 OFFCURVE",
"474 476 OFFCURVE",
"349 476 CURVE SMOOTH",
"230 476 OFFCURVE",
"192 541 OFFCURVE",
"205 618 CURVE SMOOTH",
"222 714 OFFCURVE",
"286 778 OFFCURVE",
"411 778 CURVE SMOOTH",
"533 778 OFFCURVE",
"567 718 OFFCURVE",
"551 628 CURVE SMOOTH"
);
}
);
width = 627;
}
);
unicode = 0038;
},
{
glyphname = fraction;
lastChange = "2017-06-25 12:04:12 +0000";
layers = (
{
layerId = "6F85D940-A117-47EE-950D-70F837F8C9CE";
paths = (
{
closed = 1;
nodes = (
"-212 0 LINE",
"-90 0 LINE",
"536 825 LINE",
"414 825 LINE"
);
}
);
width = 269;
},
{
layerId = "7984B694-437B-44C7-A8AE-41A7C9CC5720";
paths = (
{
closed = 1;
nodes = (
"-212 0 LINE",
"-152 0 LINE",
"474 825 LINE",
"414 825 LINE"
);
}
);
width = 207;
}
);
rightKerningGroup = d;
unicode = 2044;
},
{
glyphname = asterisk;
lastChange = "2017-06-25 12:04:12 +0000";
layers = (
{
layerId = "6F85D940-A117-47EE-950D-70F837F8C9CE";
paths = (
{
closed = 1;
nodes = (
"395 860 LINE",
"309 860 LINE",
"287 743 LINE",
"177 778 LINE",
"138 698 LINE",
"245 657 LINE",
"162 558 LINE",
"224 513 LINE",
"311 604 LINE",
"364 513 LINE",
"434 558 LINE",
"385 657 LINE",
"506 698 LINE",
"493 778 LINE",
"375 743 LINE"
);
}
);
width = 488;
},
{
layerId = "7984B694-437B-44C7-A8AE-41A7C9CC5720";
paths = (
{
closed = 1;
nodes = (
"375 850 LINE",
"325 850 LINE",
"300 719 LINE",
"183 761 LINE",
"160 714 LINE",
"276 669 LINE",
"182 563 LINE",
"217 537 LINE",
"314 639 LINE",
"370 536 LINE",
"411 562 LINE",
"358 669 LINE",
"490 714 LINE",
"483 761 LINE",
"352 719 LINE"
);
}
);
width = 488;
}
);
rightKerningGroup = d;
unicode = 002A;
},
{
glyphname = backslash;
lastChange = "2017-06-25 12:04:12 +0000";
layers = (
{
layerId = "6F85D940-A117-47EE-950D-70F837F8C9CE";
paths = (
{
closed = 1;
nodes = (
"278 860 LINE",
"129 860 LINE",
"389 0 LINE",
"538 0 LINE"
);
}
);
width = 606;
},
{
layerId = "7984B694-437B-44C7-A8AE-41A7C9CC5720";
paths = (
{
closed = 1;
nodes = (
"201 860 LINE",
"129 860 LINE",
"390 0 LINE",
"461 0 LINE"
);
}
);
width = 529;
}
);
rightKerningGroup = d;
unicode = 005C;
},
{
glyphname = bullet;
lastChange = "2017-06-25 12:04:12 +0000";
layers = (
{
layerId = "6F85D940-A117-47EE-950D-70F837F8C9CE";
paths = (
{
closed = 1;
nodes = (
"296 553 OFFCURVE",
"200 472 OFFCURVE",
"182 369 CURVE SMOOTH",
"162 255 OFFCURVE",
"238 161 OFFCURVE",
"352 161 CURVE SMOOTH",
"455 161 OFFCURVE",
"552 241 OFFCURVE",
"570 343 CURVE SMOOTH",
"590 458 OFFCURVE",
"513 553 OFFCURVE",
"398 553 CURVE SMOOTH"
);
}
);
width = 717;
},
{
layerId = "7984B694-437B-44C7-A8AE-41A7C9CC5720";
paths = (
{
closed = 1;
nodes = (
"246 469 OFFCURVE",
"191 421 OFFCURVE",
"180 361 CURVE SMOOTH",
"169 296 OFFCURVE",
"211 245 OFFCURVE",
"276 245 CURVE SMOOTH",
"336 245 OFFCURVE",
"392 292 OFFCURVE",
"403 351 CURVE SMOOTH",
"414 417 OFFCURVE",
"371 469 OFFCURVE",
"306 469 CURVE SMOOTH"
);
}
);
width = 548;
}
);
rightKerningGroup = d;
unicode = 2022;
},
{
glyphname = comma;
lastChange = "2017-06-25 12:04:12 +0000";
layers = (
{
layerId = "6F85D940-A117-47EE-950D-70F837F8C9CE";
paths = (
{
closed = 1;
nodes = (
"98 214 OFFCURVE",
"45 170 OFFCURVE",
"35 112 CURVE SMOOTH",
"25 53 OFFCURVE",
"59 8 OFFCURVE",
"106 2 CURVE",
"69 -83 OFFCURVE",
"-6 -150 OFFCURVE",
"-6 -150 CURVE",
"48 -192 LINE",
"141 -124 OFFCURVE",
"239 -29 OFFCURVE",
"259 86 CURVE SMOOTH",
"272 156 OFFCURVE",
"225 214 OFFCURVE",
"155 214 CURVE SMOOTH"
);
}
);
width = 349;
},
{
layerId = "7984B694-437B-44C7-A8AE-41A7C9CC5720";
paths = (
{
closed = 1;
nodes = (
"74 131 OFFCURVE",
"39 101 OFFCURVE",
"31 58 CURVE SMOOTH",
"24 16 OFFCURVE",
"58 -28 OFFCURVE",
"112 -9 CURVE",
"87 -70 OFFCURVE",
"3 -113 OFFCURVE",
"3 -113 CURVE",
"39 -143 LINE",
"104 -107 OFFCURVE",
"172 -42 OFFCURVE",
"187 43 CURVE SMOOTH",
"196 92 OFFCURVE",
"165 131 OFFCURVE",
"116 131 CURVE SMOOTH"
);
}
);
width = 287;
}
);
leftKerningGroup = comma;
rightKerningGroup = d;
unicode = 002C;
},
{
glyphname = exclam;
lastChange = "2017-06-25 12:04:12 +0000";
layers = (
{
layerId = "6F85D940-A117-47EE-950D-70F837F8C9CE";
paths = (
{
closed = 1;
nodes = (
"242 270 LINE",
"370 860 LINE",
"193 860 LINE",
"113 270 LINE"
);
},
{
closed = 1;
nodes = (
"196 -15 OFFCURVE",
"249 29 OFFCURVE",
"259 86 CURVE SMOOTH",
"272 156 OFFCURVE",
"225 214 OFFCURVE",
"155 214 CURVE SMOOTH",
"98 214 OFFCURVE",
"45 170 OFFCURVE",
"35 112 CURVE SMOOTH",
"23 43 OFFCURVE",
"69 -15 OFFCURVE",
"138 -15 CURVE SMOOTH"
);
}
);
width = 349;
},
{
layerId = "7984B694-437B-44C7-A8AE-41A7C9CC5720";
paths = (
{
closed = 1;
nodes = (
"191 210 LINE",
"319 860 LINE",
"242 860 LINE",
"142 210 LINE"
);
},
{
closed = 1;
nodes = (
"167 -15 OFFCURVE",
"201 14 OFFCURVE",
"208 50 CURVE SMOOTH",
"215 93 OFFCURVE",
"188 126 OFFCURVE",
"146 126 CURVE SMOOTH",
"110 126 OFFCURVE",
"76 97 OFFCURVE",
"69 60 CURVE SMOOTH",
"62 18 OFFCURVE",
"89 -15 OFFCURVE",
"131 -15 CURVE SMOOTH"
);
}
);
width = 349;
}
);
rightKerningGroup = d;
unicode = 0021;
},
{
glyphname = numbersign;
lastChange = "2017-06-25 12:04:12 +0000";
layers = (
{
layerId = "6F85D940-A117-47EE-950D-70F837F8C9CE";
paths = (
{
closed = 1;
nodes = (
"65 0 LINE",
"196 0 LINE",
"559 825 LINE",
"428 825 LINE"
);
},
{
closed = 1;
nodes = (
"298 0 LINE",
"429 0 LINE",
"792 825 LINE",
"661 825 LINE"
);
},
{
closed = 1;
nodes = (
"173 486 LINE",
"738 486 LINE",
"797 609 LINE",
"232 609 LINE"
);
},
{
closed = 1;
nodes = (
"61 217 LINE",
"626 217 LINE",
"685 340 LINE",
"120 340 LINE"
);
}
);
width = 836;
},
{
layerId = "7984B694-437B-44C7-A8AE-41A7C9CC5720";
paths = (
{
closed = 1;
nodes = (
"79 0 LINE",
"133 0 LINE",
"497 825 LINE",
"443 825 LINE"
);
},
{
closed = 1;
nodes = (
"297 0 LINE",
"351 0 LINE",
"715 825 LINE",
"661 825 LINE"
);
},
{
closed = 1;
nodes = (
"180 526 LINE",
"703 526 LINE",
"729 579 LINE",
"206 579 LINE"
);
},
{
closed = 1;
nodes = (
"66 247 LINE",
"589 247 LINE",
"615 300 LINE",
"92 300 LINE"
);
}
);
width = 773;
}
);
rightKerningGroup = d;
unicode = 0023;
},
{
glyphname = period;
lastChange = "2017-06-25 12:04:12 +0000";
layers = (
{
layerId = "6F85D940-A117-47EE-950D-70F837F8C9CE";
paths = (
{
closed = 1;
nodes = (
"196 -15 OFFCURVE",
"249 29 OFFCURVE",
"259 86 CURVE SMOOTH",
"272 156 OFFCURVE",
"225 214 OFFCURVE",
"155 214 CURVE SMOOTH",
"98 214 OFFCURVE",
"45 170 OFFCURVE",
"35 112 CURVE SMOOTH",
"23 43 OFFCURVE",
"69 -15 OFFCURVE",
"138 -15 CURVE SMOOTH"
);
}
);
width = 349;
},
{
layerId = "7984B694-437B-44C7-A8AE-41A7C9CC5720";
paths = (
{
closed = 1;
nodes = (
"167 -15 OFFCURVE",
"201 14 OFFCURVE",
"208 50 CURVE SMOOTH",
"215 93 OFFCURVE",
"188 126 OFFCURVE",
"146 126 CURVE SMOOTH",
"110 126 OFFCURVE",
"76 97 OFFCURVE",
"69 60 CURVE SMOOTH",
"62 18 OFFCURVE",
"89 -15 OFFCURVE",
"131 -15 CURVE SMOOTH"
);
}
);
width = 349;
}
);
leftKerningGroup = comma;
rightKerningGroup = d;
unicode = 002E;
},
{
glyphname = question;
lastChange = "2017-06-25 12:04:12 +0000";
layers = (
{
layerId = "6F85D940-A117-47EE-950D-70F837F8C9CE";
paths = (
{
closed = 1;
nodes = (
"372 270 LINE",
"381 319 LINE SMOOTH",
"386 352 OFFCURVE",
"398 384 OFFCURVE",
"440 396 CURVE SMOOTH",
"538 440 OFFCURVE",
"616 496 OFFCURVE",
"632 588 CURVE SMOOTH",
"658 735 OFFCURVE",
"537 840 OFFCURVE",
"381 840 CURVE SMOOTH",
"164 840 OFFCURVE",
"95 663 OFFCURVE",
"94 658 CURVE",
"229 574 LINE",
"246 617 OFFCURVE",
"297 683 OFFCURVE",
"375 683 CURVE SMOOTH",
"414 683 OFFCURVE",
"440 656 OFFCURVE",
"433 614 CURVE SMOOTH",
"419 537 OFFCURVE",
"356 531 OFFCURVE",
"284 496 CURVE SMOOTH",
"238 463 OFFCURVE",
"235 430 OFFCURVE",
"227 386 CURVE SMOOTH",
"207 270 LINE"
);
},
{
closed = 1;
nodes = (
"308 -15 OFFCURVE",
"361 29 OFFCURVE",
"371 86 CURVE SMOOTH",
"384 156 OFFCURVE",
"337 214 OFFCURVE",
"267 214 CURVE SMOOTH",
"210 214 OFFCURVE",
"157 170 OFFCURVE",
"147 112 CURVE SMOOTH",
"135 43 OFFCURVE",
"181 -15 OFFCURVE",
"250 -15 CURVE SMOOTH"
);
}
);
width = 597;
},
{
layerId = "7984B694-437B-44C7-A8AE-41A7C9CC5720";
paths = (
{
closed = 1;
nodes = (
"277 210 LINE",
"297 324 LINE SMOOTH",
"301 347 OFFCURVE",
"304 391 OFFCURVE",
"341 409 CURVE SMOOTH",
"447 472 OFFCURVE",
"537 531 OFFCURVE",
"556 636 CURVE SMOOTH",
"578 760 OFFCURVE",
"506 840 OFFCURVE",
"353 840 CURVE SMOOTH",
"183 840 OFFCURVE",
"99 688 OFFCURVE",
"98 683 CURVE",
"157 658 LINE",
"173 701 OFFCURVE",
"247 780 OFFCURVE",
"351 780 CURVE SMOOTH",
"445 780 OFFCURVE",
"500 735 OFFCURVE",
"485 646 CURVE SMOOTH",
"468 552 OFFCURVE",
"370 503 OFFCURVE",
"300 466 CURVE SMOOTH",
"252 435 OFFCURVE",
"244 395 OFFCURVE",
"237 351 CURVE SMOOTH",
"212 210 LINE"
);
},
{
closed = 1;
nodes = (
"245 -15 OFFCURVE",
"279 14 OFFCURVE",
"286 50 CURVE SMOOTH",
"293 93 OFFCURVE",
"266 126 OFFCURVE",
"224 126 CURVE SMOOTH",
"188 126 OFFCURVE",
"154 97 OFFCURVE",
"147 60 CURVE SMOOTH",
"140 18 OFFCURVE",
"167 -15 OFFCURVE",
"209 -15 CURVE SMOOTH"
);
}
);
width = 512;
}
);
rightKerningGroup = d;
unicode = 003F;
},
{
glyphname = quotedbl;
lastChange = "2017-06-25 12:04:12 +0000";
layers = (
{
layerId = "6F85D940-A117-47EE-950D-70F837F8C9CE";
paths = (
{
closed = 1;
nodes = (
"198 840 OFFCURVE",
"158 811 OFFCURVE",
"151 772 CURVE SMOOTH",
"151 768 LINE SMOOTH",
"142 722 OFFCURVE",
"135 475 OFFCURVE",
"135 475 CURVE",
"208 469 LINE",
"208 469 OFFCURVE",
"311 708 OFFCURVE",
"319 754 CURVE SMOOTH",
"320 758 LINE SMOOTH",
"327 797 OFFCURVE",
"289 840 OFFCURVE",
"237 840 CURVE SMOOTH"
);
},
{
closed = 1;
nodes = (
"420 840 OFFCURVE",
"380 811 OFFCURVE",
"373 772 CURVE SMOOTH",
"373 768 LINE SMOOTH",
"364 722 OFFCURVE",
"357 475 OFFCURVE",
"357 475 CURVE",
"430 469 LINE",
"430 469 OFFCURVE",
"533 708 OFFCURVE",
"541 754 CURVE SMOOTH",
"542 758 LINE SMOOTH",
"549 797 OFFCURVE",
"511 840 OFFCURVE",
"459 840 CURVE SMOOTH"
);
}
);
width = 514;
},
{
layerId = "7984B694-437B-44C7-A8AE-41A7C9CC5720";
paths = (
{
closed = 1;
nodes = (
"173 810 OFFCURVE",
"154 787 OFFCURVE",
"149 759 CURVE SMOOTH",
"148 756 LINE SMOOTH",
"142 724 OFFCURVE",
"133 552 OFFCURVE",
"133 552 CURVE",
"175 550 LINE",
"175 550 OFFCURVE",
"242 720 OFFCURVE",
"247 752 CURVE SMOOTH",
"248 755 LINE SMOOTH",
"253 783 OFFCURVE",
"237 810 OFFCURVE",
"203 810 CURVE SMOOTH"
);
},
{
closed = 1;
nodes = (
"350 810 OFFCURVE",
"331 787 OFFCURVE",
"326 759 CURVE SMOOTH",
"325 756 LINE SMOOTH",
"319 724 OFFCURVE",
"310 552 OFFCURVE",
"310 552 CURVE",
"352 550 LINE",
"352 550 OFFCURVE",
"419 720 OFFCURVE",
"424 752 CURVE SMOOTH",
"425 755 LINE SMOOTH",
"430 783 OFFCURVE",
"414 810 OFFCURVE",
"380 810 CURVE SMOOTH"
);
}
);
width = 397;
}
);
rightKerningGroup = d;
unicode = 0022;
},
{
glyphname = quotesingle;
lastChange = "2017-06-25 12:04:12 +0000";
layers = (
{
layerId = "6F85D940-A117-47EE-950D-70F837F8C9CE";
paths = (
{
closed = 1;
nodes = (
"198 840 OFFCURVE",
"158 811 OFFCURVE",
"151 772 CURVE SMOOTH",
"151 768 LINE SMOOTH",
"142 722 OFFCURVE",
"135 475 OFFCURVE",
"135 475 CURVE",
"208 469 LINE",
"208 469 OFFCURVE",
"311 708 OFFCURVE",
"319 754 CURVE SMOOTH",
"320 758 LINE SMOOTH",
"327 797 OFFCURVE",
"289 840 OFFCURVE",
"237 840 CURVE SMOOTH"
);
}
);
width = 292;
},
{
layerId = "7984B694-437B-44C7-A8AE-41A7C9CC5720";
paths = (
{
closed = 1;
nodes = (
"173 810 OFFCURVE",
"154 787 OFFCURVE",
"149 759 CURVE SMOOTH",
"148 756 LINE SMOOTH",
"142 724 OFFCURVE",
"133 552 OFFCURVE",
"133 552 CURVE",
"175 550 LINE",
"175 550 OFFCURVE",
"242 720 OFFCURVE",
"247 752 CURVE SMOOTH",
"248 755 LINE SMOOTH",
"253 783 OFFCURVE",
"237 810 OFFCURVE",
"203 810 CURVE SMOOTH"
);
}
);
width = 220;
}
);
leftKerningGroup = quotesingle;
rightKerningGroup = quotesingle;
unicode = 0027;
},
{
glyphname = slash;
lastChange = "2017-06-25 12:04:12 +0000";
layers = (
{
layerId = "6F85D940-A117-47EE-950D-70F837F8C9CE";
paths = (
{
closed = 1;
nodes = (
"-43 -120 LINE",
"114 -120 LINE",
"699 860 LINE",
"542 860 LINE"
);
}
);
width = 616;
},
{
layerId = "7984B694-437B-44C7-A8AE-41A7C9CC5720";
paths = (
{
closed = 1;
nodes = (
"-43 -120 LINE",
"31 -120 LINE",
"616 860 LINE",
"542 860 LINE"
);
}
);
width = 533;
}
);
rightKerningGroup = d;
unicode = 002F;
},
{
glyphname = underscore;
lastChange = "2017-06-25 12:04:12 +0000";
layers = (
{
layerId = "6F85D940-A117-47EE-950D-70F837F8C9CE";
paths = (
{
closed = 1;
nodes = (
"450 -100 LINE",
"465 -15 LINE",
"-48 -15 LINE",
"-63 -100 LINE"
);
}
);
width = 513;
},
{
layerId = "7984B694-437B-44C7-A8AE-41A7C9CC5720";
paths = (
{
closed = 1;
nodes = (
"394 -80 LINE",
"402 -35 LINE",
"-51 -35 LINE",
"-59 -80 LINE"
);
}
);
width = 453;
}
);
rightKerningGroup = d;
unicode = 005F;
},
{
glyphname = braceleft;
lastChange = "2017-06-25 12:04:12 +0000";
layers = (
{
layerId = "6F85D940-A117-47EE-950D-70F837F8C9CE";
paths = (
{
closed = 1;
nodes = (
"71 253 LINE",
"114 253 OFFCURVE",
"133 241 OFFCURVE",
"125 195 CURVE SMOOTH",
"77 -72 LINE SMOOTH",
"63 -155 OFFCURVE",
"81 -260 OFFCURVE",
"209 -260 CURVE SMOOTH",
"300 -260 LINE",
"323 -132 LINE",
"277 -132 LINE SMOOTH",
"242 -132 OFFCURVE",
"224 -111 OFFCURVE",
"231 -71 CURVE SMOOTH",
"276 186 LINE SMOOTH",
"286 242 OFFCURVE",
"260 279 OFFCURVE",
"234 294 CURVE",
"277 315 OFFCURVE",
"304 343 OFFCURVE",
"314 400 CURVE SMOOTH",
"359 657 LINE SMOOTH",
"366 697 OFFCURVE",
"406 732 OFFCURVE",
"441 732 CURVE SMOOTH",
"475 732 LINE",
"498 860 LINE",
"395 860 LINE SMOOTH",
"267 860 OFFCURVE",
"226 769 OFFCURVE",
"211 686 CURVE SMOOTH",
"164 419 LINE SMOOTH",
"156 373 OFFCURVE",
"119 347 OFFCURVE",
"76 347 CURVE"
);
}
);
width = 452;
},
{
layerId = "7984B694-437B-44C7-A8AE-41A7C9CC5720";
paths = (
{
closed = 1;
nodes = (
"65 263 LINE",
"128 263 OFFCURVE",
"138 236 OFFCURVE",
"130 190 CURVE SMOOTH",
"83 -77 LINE SMOOTH",
"69 -160 OFFCURVE",
"44 -260 OFFCURVE",
"172 -260 CURVE SMOOTH",
"227 -260 LINE",
"239 -192 LINE",
"217 -192 LINE SMOOTH",
"142 -192 OFFCURVE",
"140 -166 OFFCURVE",
"147 -126 CURVE SMOOTH",
"203 191 LINE SMOOTH",
"213 247 OFFCURVE",
"193 291 OFFCURVE",
"152 298 CURVE",
"200 307 OFFCURVE",
"231 348 OFFCURVE",
"241 405 CURVE SMOOTH",
"297 722 LINE SMOOTH",
"304 762 OFFCURVE",
"320 792 OFFCURVE",
"395 792 CURVE SMOOTH",
"412 792 LINE",
"424 860 LINE",
"365 860 LINE SMOOTH",
"237 860 OFFCURVE",
"232 764 OFFCURVE",
"217 681 CURVE SMOOTH",
"170 414 LINE SMOOTH",
"162 368 OFFCURVE",
"137 337 OFFCURVE",
"74 337 CURVE"
);
}
);
width = 378;
}
);
rightKerningGroup = d;
unicode = 007B;
},
{
glyphname = bracketleft;
lastChange = "2017-06-25 12:04:12 +0000";
layers = (
{
layerId = "6F85D940-A117-47EE-950D-70F837F8C9CE";
paths = (
{
closed = 1;
nodes = (
"291 -260 LINE",
"312 -143 LINE",
"143 -143 LINE",
"299 743 LINE",
"468 743 LINE",
"489 860 LINE",
"167 860 LINE",
"-31 -260 LINE"
);
}
);
width = 443;
},
{
layerId = "7984B694-437B-44C7-A8AE-41A7C9CC5720";
paths = (
{
closed = 1;
nodes = (
"211 -260 LINE",
"223 -193 LINE",
"54 -193 LINE",
"228 793 LINE",
"397 793 LINE",
"408 860 LINE",
"166 860 LINE",
"-31 -260 LINE"
);
}
);
width = 362;
}
);
rightKerningGroup = d;
unicode = 005B;
},
{
glyphname = parenleft;
lastChange = "2017-06-25 12:04:12 +0000";
layers = (
{
layerId = "6F85D940-A117-47EE-950D-70F837F8C9CE";
paths = (
{
closed = 1;
nodes = (
"257 -211 LINE",
"256 -211 OFFCURVE",
"164 -48 OFFCURVE",
"222 284 CURVE SMOOTH",
"287 648 OFFCURVE",
"465 829 OFFCURVE",
"465 829 CURVE",
"358 875 LINE",
"358 875 OFFCURVE",
"126 660 OFFCURVE",
"64 310 CURVE SMOOTH",
"2 -42 OFFCURVE",
"134 -257 OFFCURVE",
"134 -257 CURVE"
);
}
);
width = 408;
},
{
layerId = "7984B694-437B-44C7-A8AE-41A7C9CC5720";
paths = (
{
closed = 1;
nodes = (
"180 -221 LINE",
"179 -221 OFFCURVE",
"65 -43 OFFCURVE",
"124 292 CURVE SMOOTH",
"188 653 OFFCURVE",
"374 842 OFFCURVE",
"374 842 CURVE",
"317 873 LINE",
"317 873 OFFCURVE",
"125 655 OFFCURVE",
"63 302 CURVE SMOOTH",
"2 -47 OFFCURVE",
"119 -249 OFFCURVE",
"119 -249 CURVE"
);
}
);
width = 315;
}
);
rightKerningGroup = d;
unicode = 0028;
},
{
glyphname = emdash;
lastChange = "2017-06-25 12:04:12 +0000";
layers = (
{
layerId = "6F85D940-A117-47EE-950D-70F837F8C9CE";
paths = (
{
closed = 1;
nodes = (
"1072 213 LINE",
"1099 366 LINE",
"19 366 LINE",
"-8 213 LINE"
);
}
);
width = 1080;
},
{
layerId = "7984B694-437B-44C7-A8AE-41A7C9CC5720";
paths = (
{
closed = 1;
nodes = (
"941 263 LINE",
"950 316 LINE",
"10 316 LINE",
"1 263 LINE"
);
}
);
width = 940;
}
);
rightKerningGroup = d;
unicode = 2014;
},
{
glyphname = endash;
lastChange = "2017-06-25 12:04:12 +0000";
layers = (
{
layerId = "6F85D940-A117-47EE-950D-70F837F8C9CE";
paths = (
{
closed = 1;
nodes = (
"532 213 LINE",
"559 366 LINE",
"19 366 LINE",
"-8 213 LINE"
);
}
);
width = 540;
},
{
layerId = "7984B694-437B-44C7-A8AE-41A7C9CC5720";
paths = (
{
closed = 1;
nodes = (
"491 263 LINE",
"500 316 LINE",
"10 316 LINE",
"1 263 LINE"
);
}
);
width = 490;
}
);
rightKerningGroup = d;
unicode = 2013;
},
{
glyphname = hyphen;
lastChange = "2017-06-25 12:04:12 +0000";
layers = (
{
layerId = "6F85D940-A117-47EE-950D-70F837F8C9CE";
paths = (
{
closed = 1;
nodes = (
"374 213 LINE",
"401 366 LINE",
"79 366 LINE",
"52 213 LINE"
);
}
);
width = 442;
},
{
layerId = "7984B694-437B-44C7-A8AE-41A7C9CC5720";
paths = (
{
closed = 1;
nodes = (
"383 263 LINE",
"392 316 LINE",
"70 316 LINE",
"61 263 LINE"
);
}
);
width = 442;
}
);
rightKerningGroup = d;
unicode = 002D;
},
{
glyphname = guillemetleft;
lastChange = "2017-06-25 12:04:12 +0000";
layers = (
{
layerId = "6F85D940-A117-47EE-950D-70F837F8C9CE";
paths = (
{
closed = 1;
nodes = (
"187 278 LINE",
"357 455 LINE",
"272 528 LINE",
"37 278 LINE",
"192 28 LINE",
"294 101 LINE"
);
},
{
closed = 1;
nodes = (
"437 278 LINE",
"607 455 LINE",
"522 528 LINE",
"287 278 LINE",
"442 28 LINE",
"544 101 LINE"
);
}
);
width = 626;
},
{
layerId = "7984B694-437B-44C7-A8AE-41A7C9CC5720";
paths = (
{
closed = 1;
nodes = (
"96 278 LINE",
"288 475 LINE",
"253 504 LINE",
"37 278 LINE",
"176 51 LINE",
"218 82 LINE"
);
},
{
closed = 1;
nodes = (
"328 278 LINE",
"520 475 LINE",
"485 504 LINE",
"269 278 LINE",
"408 51 LINE",
"450 82 LINE"
);
}
);
width = 535;
}
);
rightKerningGroup = d;
unicode = 00AB;
},
{
glyphname = guilsinglleft;
lastChange = "2017-06-25 12:04:12 +0000";
layers = (
{
layerId = "6F85D940-A117-47EE-950D-70F837F8C9CE";
paths = (
{
closed = 1;
nodes = (
"187 278 LINE",
"357 455 LINE",
"272 528 LINE",
"37 278 LINE",
"192 28 LINE",
"294 101 LINE"
);
}
);
width = 376;
},
{
layerId = "7984B694-437B-44C7-A8AE-41A7C9CC5720";
paths = (
{
closed = 1;
nodes = (
"96 278 LINE",
"288 475 LINE",
"253 504 LINE",
"37 278 LINE",
"176 51 LINE",
"218 82 LINE"
);
}
);
width = 303;
}
);
rightKerningGroup = d;
unicode = 2039;
},
{
glyphname = quotedblbase;
lastChange = "2017-06-25 12:04:12 +0000";
layers = (
{
layerId = "6F85D940-A117-47EE-950D-70F837F8C9CE";
paths = (
{
closed = 1;
nodes = (
"93 214 OFFCURVE",
"45 174 OFFCURVE",
"36 122 CURVE SMOOTH",
"26 69 OFFCURVE",
"59 28 OFFCURVE",
"101 23 CURVE",
"67 -55 OFFCURVE",
"-2 -117 OFFCURVE",
"-2 -117 CURVE",
"49 -154 LINE",
"132 -93 OFFCURVE",
"220 -7 OFFCURVE",
"238 96 CURVE SMOOTH",
"250 160 OFFCURVE",
"208 214 OFFCURVE",
"144 214 CURVE SMOOTH"
);
},
{
closed = 1;
nodes = (
"346 214 OFFCURVE",
"299 174 OFFCURVE",
"290 122 CURVE SMOOTH",
"280 69 OFFCURVE",
"313 28 OFFCURVE",
"354 23 CURVE",
"321 -55 OFFCURVE",
"252 -117 OFFCURVE",
"252 -117 CURVE",
"303 -154 LINE",
"385 -93 OFFCURVE",
"475 -7 OFFCURVE",
"493 96 CURVE SMOOTH",
"505 160 OFFCURVE",
"461 214 OFFCURVE",
"397 214 CURVE SMOOTH"
);
}
);
width = 544;
},
{
layerId = "7984B694-437B-44C7-A8AE-41A7C9CC5720";
paths = (
{
closed = 1;
nodes = (
"68 131 OFFCURVE",
"33 101 OFFCURVE",
"25 58 CURVE SMOOTH",
"18 16 OFFCURVE",
"52 -28 OFFCURVE",
"106 -9 CURVE",
"81 -70 OFFCURVE",
"-3 -113 OFFCURVE",
"-3 -113 CURVE",
"33 -143 LINE",
"98 -107 OFFCURVE",
"166 -42 OFFCURVE",
"181 43 CURVE SMOOTH",
"190 92 OFFCURVE",
"159 131 OFFCURVE",
"110 131 CURVE SMOOTH"
);
},
{
closed = 1;
nodes = (
"311 131 OFFCURVE",
"276 101 OFFCURVE",
"268 58 CURVE SMOOTH",
"261 16 OFFCURVE",
"295 -28 OFFCURVE",
"349 -9 CURVE",
"324 -70 OFFCURVE",
"240 -113 OFFCURVE",
"240 -113 CURVE",
"276 -143 LINE",
"341 -107 OFFCURVE",
"409 -42 OFFCURVE",
"424 43 CURVE SMOOTH",
"433 92 OFFCURVE",
"402 131 OFFCURVE",
"353 131 CURVE SMOOTH"
);
}
);
width = 485;
}
);
rightKerningGroup = d;
unicode = 201E;
},
{
glyphname = quotedblleft;
lastChange = "2017-06-25 12:04:12 +0000";
layers = (
{
layerId = "6F85D940-A117-47EE-950D-70F837F8C9CE";
paths = (
{
closed = 1;
nodes = (
"240 476 OFFCURVE",
"287 516 OFFCURVE",
"296 568 CURVE SMOOTH",
"306 621 OFFCURVE",
"273 662 OFFCURVE",
"232 667 CURVE",
"265 745 OFFCURVE",
"334 807 OFFCURVE",
"334 807 CURVE",
"283 844 LINE",
"201 783 OFFCURVE",
"111 697 OFFCURVE",
"93 594 CURVE SMOOTH",
"82 530 OFFCURVE",
"125 476 OFFCURVE",
"189 476 CURVE SMOOTH"
);
},
{
closed = 1;
nodes = (
"493 476 OFFCURVE",
"541 516 OFFCURVE",
"550 568 CURVE SMOOTH",
"560 621 OFFCURVE",
"527 662 OFFCURVE",
"485 667 CURVE",
"519 745 OFFCURVE",
"588 807 OFFCURVE",
"588 807 CURVE",
"537 844 LINE",
"454 783 OFFCURVE",
"366 697 OFFCURVE",
"348 594 CURVE SMOOTH",
"337 530 OFFCURVE",
"378 476 OFFCURVE",
"442 476 CURVE SMOOTH"
);
}
);
width = 545;
},
{
layerId = "7984B694-437B-44C7-A8AE-41A7C9CC5720";
paths = (
{
closed = 1;
nodes = (
"208 557 OFFCURVE",
"250 592 OFFCURVE",
"258 635 CURVE SMOOTH",
"267 687 OFFCURVE",
"212 722 OFFCURVE",
"165 688 CURVE",
"189 748 OFFCURVE",
"255 792 OFFCURVE",
"255 792 CURVE",
"223 822 LINE",
"171 786 OFFCURVE",
"105 716 OFFCURVE",
"92 645 CURVE SMOOTH",
"84 596 OFFCURVE",
"117 557 OFFCURVE",
"166 557 CURVE SMOOTH"
);
},
{
closed = 1;
nodes = (
"431 557 OFFCURVE",
"473 592 OFFCURVE",
"481 635 CURVE SMOOTH",
"490 687 OFFCURVE",
"435 722 OFFCURVE",
"388 688 CURVE",
"412 748 OFFCURVE",
"478 792 OFFCURVE",
"478 792 CURVE",
"446 822 LINE",
"394 786 OFFCURVE",
"328 716 OFFCURVE",
"315 645 CURVE SMOOTH",
"307 596 OFFCURVE",
"340 557 OFFCURVE",
"389 557 CURVE SMOOTH"
);
}
);
width = 474;
}
);
leftKerningGroup = quotesingle;
rightKerningGroup = quotesingle;
unicode = 201C;
},
{
glyphname = quotedblright;
lastChange = "2017-06-25 12:04:12 +0000";
layers = (
{
layerId = "6F85D940-A117-47EE-950D-70F837F8C9CE";
paths = (
{
closed = 1;
nodes = (
"448 840 OFFCURVE",
"400 800 OFFCURVE",
"391 748 CURVE SMOOTH",
"382 695 OFFCURVE",
"414 654 OFFCURVE",
"456 649 CURVE",
"423 571 OFFCURVE",
"353 509 OFFCURVE",
"353 509 CURVE",
"404 472 LINE",
"487 533 OFFCURVE",
"576 619 OFFCURVE",
"595 722 CURVE SMOOTH",
"606 786 OFFCURVE",
"563 840 OFFCURVE",
"499 840 CURVE SMOOTH"
);
},
{
closed = 1;
nodes = (
"195 840 OFFCURVE",
"146 800 OFFCURVE",
"137 748 CURVE SMOOTH",
"128 695 OFFCURVE",
"160 654 OFFCURVE",
"203 649 CURVE",
"169 571 OFFCURVE",
"99 509 OFFCURVE",
"99 509 CURVE",
"150 472 LINE",
"234 533 OFFCURVE",
"321 619 OFFCURVE",
"340 722 CURVE SMOOTH",
"351 786 OFFCURVE",
"310 840 OFFCURVE",
"246 840 CURVE SMOOTH"
);
}
);
width = 546;
},
{
layerId = "7984B694-437B-44C7-A8AE-41A7C9CC5720";
paths = (
{
closed = 1;
nodes = (
"406 809 OFFCURVE",
"364 774 OFFCURVE",
"357 731 CURVE SMOOTH",
"348 679 OFFCURVE",
"402 644 OFFCURVE",
"450 678 CURVE",
"425 618 OFFCURVE",
"359 574 OFFCURVE",
"359 574 CURVE",
"391 544 LINE",
"444 580 OFFCURVE",
"509 650 OFFCURVE",
"522 721 CURVE SMOOTH",
"530 770 OFFCURVE",
"497 809 OFFCURVE",
"449 809 CURVE SMOOTH"
);
},
{
closed = 1;
nodes = (
"183 809 OFFCURVE",
"141 774 OFFCURVE",
"134 731 CURVE SMOOTH",
"125 679 OFFCURVE",
"179 644 OFFCURVE",
"227 678 CURVE",
"202 618 OFFCURVE",
"136 574 OFFCURVE",
"136 574 CURVE",
"168 544 LINE",
"221 580 OFFCURVE",
"286 650 OFFCURVE",
"299 721 CURVE SMOOTH",
"307 770 OFFCURVE",
"274 809 OFFCURVE",
"226 809 CURVE SMOOTH"
);
}
);
width = 473;
}
);
leftKerningGroup = quotesingle;
rightKerningGroup = quotesingle;
unicode = 201D;
},
{
glyphname = quoteleft;
lastChange = "2017-06-25 12:04:12 +0000";
layers = (
{
layerId = "6F85D940-A117-47EE-950D-70F837F8C9CE";
paths = (
{
closed = 1;
nodes = (
"230 476 OFFCURVE",
"277 516 OFFCURVE",
"286 568 CURVE SMOOTH",
"296 621 OFFCURVE",
"263 662 OFFCURVE",
"222 667 CURVE",
"255 745 OFFCURVE",
"324 807 OFFCURVE",
"324 807 CURVE",
"273 844 LINE",
"191 783 OFFCURVE",
"101 697 OFFCURVE",
"83 594 CURVE SMOOTH",
"72 530 OFFCURVE",
"115 476 OFFCURVE",
"179 476 CURVE SMOOTH"
);
}
);
width = 291;
},
{
layerId = "7984B694-437B-44C7-A8AE-41A7C9CC5720";
paths = (
{
closed = 1;
nodes = (
"208 557 OFFCURVE",
"250 592 OFFCURVE",
"258 635 CURVE SMOOTH",
"267 687 OFFCURVE",
"212 722 OFFCURVE",
"165 688 CURVE",
"189 748 OFFCURVE",
"255 792 OFFCURVE",
"255 792 CURVE",
"223 822 LINE",
"171 786 OFFCURVE",
"105 716 OFFCURVE",
"92 645 CURVE SMOOTH",
"84 596 OFFCURVE",
"117 557 OFFCURVE",
"166 557 CURVE SMOOTH"
);
}
);
width = 221;
}
);
leftKerningGroup = quotesingle;
rightKerningGroup = quotesingle;
unicode = 2018;
},
{
glyphname = quoteright;
lastChange = "2017-06-25 12:04:12 +0000";
layers = (
{
layerId = "6F85D940-A117-47EE-950D-70F837F8C9CE";
paths = (
{
closed = 1;
nodes = (
"184 840 OFFCURVE",
"136 800 OFFCURVE",
"127 748 CURVE SMOOTH",
"118 695 OFFCURVE",
"150 654 OFFCURVE",
"192 649 CURVE",
"159 571 OFFCURVE",
"89 509 OFFCURVE",
"89 509 CURVE",
"140 472 LINE",
"223 533 OFFCURVE",
"312 619 OFFCURVE",
"331 722 CURVE SMOOTH",
"342 786 OFFCURVE",
"299 840 OFFCURVE",
"235 840 CURVE SMOOTH"
);
}
);
width = 292;
},
{
layerId = "7984B694-437B-44C7-A8AE-41A7C9CC5720";
paths = (
{
closed = 1;
nodes = (
"173 809 OFFCURVE",
"131 774 OFFCURVE",
"124 731 CURVE SMOOTH",
"115 679 OFFCURVE",
"169 644 OFFCURVE",
"217 678 CURVE",
"192 618 OFFCURVE",
"126 574 OFFCURVE",
"126 574 CURVE",
"158 544 LINE",
"211 580 OFFCURVE",
"276 650 OFFCURVE",
"289 721 CURVE SMOOTH",
"297 770 OFFCURVE",
"264 809 OFFCURVE",
"216 809 CURVE SMOOTH"
);
}
);
width = 247;
}
);
leftKerningGroup = quotesingle;
rightKerningGroup = quotesingle;
unicode = 2019;
},
{
glyphname = quotesinglbase;
lastChange = "2017-06-25 12:04:12 +0000";
layers = (
{
layerId = "6F85D940-A117-47EE-950D-70F837F8C9CE";
paths = (
{
closed = 1;
nodes = (
"92 214 OFFCURVE",
"45 174 OFFCURVE",
"36 122 CURVE SMOOTH",
"26 69 OFFCURVE",
"59 28 OFFCURVE",
"100 23 CURVE",
"67 -55 OFFCURVE",
"-2 -117 OFFCURVE",
"-2 -117 CURVE",
"49 -154 LINE",
"131 -93 OFFCURVE",
"221 -7 OFFCURVE",
"239 96 CURVE SMOOTH",
"251 160 OFFCURVE",
"207 214 OFFCURVE",
"143 214 CURVE SMOOTH"
);
}
);
width = 290;
},
{
layerId = "7984B694-437B-44C7-A8AE-41A7C9CC5720";
paths = (
{
closed = 1;
nodes = (
"68 131 OFFCURVE",
"33 101 OFFCURVE",
"25 58 CURVE SMOOTH",
"18 16 OFFCURVE",
"52 -28 OFFCURVE",
"106 -9 CURVE",
"81 -70 OFFCURVE",
"-3 -113 OFFCURVE",
"-3 -113 CURVE",
"33 -143 LINE",
"98 -107 OFFCURVE",
"166 -42 OFFCURVE",
"181 43 CURVE SMOOTH",
"190 92 OFFCURVE",
"159 131 OFFCURVE",
"110 131 CURVE SMOOTH"
);
}
);
width = 242;
}
);
rightKerningGroup = d;
unicode = 201A;
},
{
glyphname = cent;
lastChange = "2017-06-25 12:04:12 +0000";
layers = (
{
components = (
{
name = c;
}
);
layerId = "6F85D940-A117-47EE-950D-70F837F8C9CE";
paths = (
{
closed = 1;
nodes = (
"291 494 LINE",
"398 494 LINE",
"423 636 LINE",
"316 636 LINE"
);
},
{
closed = 1;
nodes = (
"182 -129 LINE",
"289 -129 LINE",
"314 13 LINE",
"207 13 LINE"
);
}
);
width = 496;
},
{
components = (
{
name = c;
}
);
layerId = "7984B694-437B-44C7-A8AE-41A7C9CC5720";
paths = (
{
closed = 1;
nodes = (
"301 494 LINE",
"348 494 LINE",
"373 636 LINE",
"326 636 LINE"
);
},
{
closed = 1;
nodes = (
"192 -129 LINE",
"239 -129 LINE",
"264 13 LINE",
"217 13 LINE"
);
}
);
width = 493;
}
);
leftKerningGroup = c;
rightKerningGroup = c;
unicode = 00A2;
},
{
glyphname = dollar;
lastChange = "2017-06-25 12:04:12 +0000";
layers = (
{
components = (
{
name = S;
transform = "{1, 0, 0, 1, 24, 0}";
}
);
layerId = "6F85D940-A117-47EE-950D-70F837F8C9CE";
paths = (
{
closed = 1;
nodes = (
"376 817 LINE",
"483 817 LINE",
"508 959 LINE",
"401 959 LINE"
);
},
{
closed = 1;
nodes = (
"210 -129 LINE",
"317 -129 LINE",
"342 13 LINE",
"235 13 LINE"
);
}
);
width = 668;
},
{
components = (
{
name = S;
transform = "{1, 0, 0, 1, 26, 0}";
}
);
layerId = "7984B694-437B-44C7-A8AE-41A7C9CC5720";
paths = (
{
closed = 1;
nodes = (
"378 817 LINE",
"425 817 LINE",
"450 959 LINE",
"403 959 LINE"
);
},
{
closed = 1;
nodes = (
"212 -129 LINE",
"259 -129 LINE",
"284 13 LINE",
"237 13 LINE"
);
}
);
width = 581;
}
);
leftKerningGroup = S;
rightKerningGroup = d;
unicode = 0024;
},
{
glyphname = euro;
lastChange = "2017-06-25 12:04:12 +0000";
layers = (
{
components = (
{
alignment = -1;
name = C;
transform = "{1, 0, 0, 1, 61, 0}";
}
);
layerId = "6F85D940-A117-47EE-950D-70F837F8C9CE";
paths = (
{
closed = 1;
nodes = (
"40 441 LINE",
"662 441 LINE",
"681 549 LINE",
"59 549 LINE"
);
},
{
closed = 1;
nodes = (
"11 274 LINE",
"633 274 LINE",
"652 382 LINE",
"30 382 LINE"
);
}
);
width = 800;
},
{
components = (
{
alignment = -1;
name = C;
transform = "{1, 0, 0, 1, 61, 0}";
}
);
layerId = "7984B694-437B-44C7-A8AE-41A7C9CC5720";
paths = (
{
closed = 1;
nodes = (
"44 461 LINE",
"666 461 LINE",
"678 529 LINE",
"56 529 LINE"
);
},
{
closed = 1;
nodes = (
"14 294 LINE",
"636 294 LINE",
"648 362 LINE",
"26 362 LINE"
);
}
);
width = 768;
}
);
rightKerningGroup = d;
unicode = 20AC;
},
{
glyphname = sterling;
lastChange = "2017-06-25 12:04:12 +0000";
layers = (
{
layerId = "6F85D940-A117-47EE-950D-70F837F8C9CE";
paths = (
{
closed = 1;
nodes = (
"61 289 LINE",
"214 295 LINE",
"218 278 OFFCURVE",
"218 262 OFFCURVE",
"216 249 CURVE SMOOTH",
"211 220 OFFCURVE",
"202 202 OFFCURVE",
"180 184 CURVE",
"92 178 OFFCURVE",
"21 61 OFFCURVE",
"11 7 CURVE",
"125 -6 LINE",
"125 -6 OFFCURVE",
"145 43 OFFCURVE",
"191 43 CURVE SMOOTH",
"280 43 OFFCURVE",
"362 -15 OFFCURVE",
"492 -15 CURVE SMOOTH",
"646 -15 OFFCURVE",
"695 136 OFFCURVE",
"695 136 CURVE",
"570 201 LINE",
"570 201 OFFCURVE",
"536 129 OFFCURVE",
"473 129 CURVE SMOOTH",
"405 129 OFFCURVE",
"344 162 OFFCURVE",
"334 162 CURVE SMOOTH",
"340 162 OFFCURVE",
"367 189 OFFCURVE",
"374 230 CURVE SMOOTH",
"378 253 OFFCURVE",
"379 269 OFFCURVE",
"379 283 CURVE",
"518 289 LINE",
"536 387 LINE",
"359 381 LINE",
"346 430 OFFCURVE",
"333 489 OFFCURVE",
"346 565 CURVE SMOOTH",
"360 647 OFFCURVE",
"407 689 OFFCURVE",
"474 689 CURVE SMOOTH",
"566 689 OFFCURVE",
"554 577 OFFCURVE",
"554 577 CURVE",
"725 651 LINE",
"724 651 OFFCURVE",
"718 841 OFFCURVE",
"478 841 CURVE SMOOTH",
"299 841 OFFCURVE",
"189 731 OFFCURVE",
"164 591 CURVE SMOOTH",
"150 510 OFFCURVE",
"164 437 OFFCURVE",
"185 393 CURVE",
"78 387 LINE"
);
}
);
width = 754;
},
{
layerId = "7984B694-437B-44C7-A8AE-41A7C9CC5720";
paths = (
{
closed = 1;
nodes = (
"64 306 LINE",
"198 308 LINE",
"202 294 OFFCURVE",
"206 241 OFFCURVE",
"203 225 CURVE SMOOTH",
"198 199 OFFCURVE",
"182 157 OFFCURVE",
"169 150 CURVE",
"90 148 OFFCURVE",
"22 66 OFFCURVE",
"11 2 CURVE",
"75 -2 LINE",
"75 -2 OFFCURVE",
"109 86 OFFCURVE",
"182 86 CURVE SMOOTH",
"274 86 OFFCURVE",
"329 -15 OFFCURVE",
"455 -15 CURVE SMOOTH",
"582 -15 OFFCURVE",
"638 114 OFFCURVE",
"638 114 CURVE",
"584 143 LINE",
"584 143 OFFCURVE",
"555 48 OFFCURVE",
"456 48 CURVE SMOOTH",
"384 48 OFFCURVE",
"318 128 OFFCURVE",
"245 143 CURVE SMOOTH",
"248 143 OFFCURVE",
"267 178 OFFCURVE",
"274 212 CURVE SMOOTH",
"280 245 OFFCURVE",
"276 295 OFFCURVE",
"274 304 CURVE",
"501 306 LINE",
"512 367 LINE",
"259 365 LINE",
"249 395 OFFCURVE",
"223 494 OFFCURVE",
"237 573 CURVE SMOOTH",
"258 692 OFFCURVE",
"338 774 OFFCURVE",
"462 774 CURVE SMOOTH",
"607 774 OFFCURVE",
"620 650 OFFCURVE",
"620 650 CURVE",
"694 679 LINE",
"694 679 OFFCURVE",
"661 841 OFFCURVE",
"465 841 CURVE SMOOTH",
"282 841 OFFCURVE",
"187 716 OFFCURVE",
"163 583 CURVE SMOOTH",
"149 505 OFFCURVE",
"174 398 OFFCURVE",
"183 369 CURVE",
"75 367 LINE"
);
}
);
width = 701;
}
);
rightKerningGroup = d;
unicode = 00A3;
},
{
glyphname = yen;
lastChange = "2017-06-25 12:04:12 +0000";
layers = (
{
components = (
{
name = Y;
transform = "{1, 0, 0, 1, 25, 0}";
}
);
layerId = "6F85D940-A117-47EE-950D-70F837F8C9CE";
paths = (
{
closed = 1;
nodes = (
"68 302 LINE",
"681 302 LINE",
"704 435 LINE",
"91 435 LINE"
);
},
{
closed = 1;
nodes = (
"34 110 LINE",
"647 110 LINE",
"670 243 LINE",
"57 243 LINE"
);
}
);
width = 736;
},
{
components = (
{
name = Y;
transform = "{1, 0, 0, 1, 26, 0}";
}
);
layerId = "7984B694-437B-44C7-A8AE-41A7C9CC5720";
paths = (
{
closed = 1;
nodes = (
"34 312 LINE",
"576 312 LINE",
"587 375 LINE",
"45 375 LINE"
);
},
{
closed = 1;
nodes = (
"9 170 LINE",
"551 170 LINE",
"562 233 LINE",
"20 233 LINE"
);
}
);
width = 596;
}
);
rightKerningGroup = d;
unicode = 00A5;
},
{
glyphname = plus;
lastChange = "2017-06-25 12:04:12 +0000";
layers = (
{
layerId = "6F85D940-A117-47EE-950D-70F837F8C9CE";
paths = (
{
closed = 1;
nodes = (
"587 338 LINE",
"614 491 LINE",
"434 491 LINE",
"466 671 LINE",
"313 671 LINE",
"281 491 LINE",
"101 491 LINE",
"74 338 LINE",
"254 338 LINE",
"222 158 LINE",
"375 158 LINE",
"407 338 LINE"
);
}
);
width = 633;
},
{
layerId = "7984B694-437B-44C7-A8AE-41A7C9CC5720";
paths = (
{
closed = 1;
nodes = (
"597 388 LINE",
"606 441 LINE",
"376 441 LINE",
"417 671 LINE",
"364 671 LINE",
"323 441 LINE",
"93 441 LINE",
"84 388 LINE",
"314 388 LINE",
"273 158 LINE",
"326 158 LINE",
"367 388 LINE"
);
}
);
width = 634;
}
);
rightKerningGroup = d;
unicode = 002B;
},
{
glyphname = minus;
lastChange = "2017-06-25 12:04:12 +0000";
layers = (
{
layerId = "6F85D940-A117-47EE-950D-70F837F8C9CE";
paths = (
{
closed = 1;
nodes = (
"587 338 LINE",
"614 491 LINE",
"101 491 LINE",
"74 338 LINE"
);
}
);
width = 633;
},
{
layerId = "7984B694-437B-44C7-A8AE-41A7C9CC5720";
paths = (
{
closed = 1;
nodes = (
"546 386 LINE",
"556 439 LINE",
"93 439 LINE",
"83 386 LINE"
);
}
);
width = 584;
}
);
rightKerningGroup = d;
unicode = 2212;
},
{
glyphname = multiply;
lastChange = "2017-06-25 12:04:12 +0000";
layers = (
{
layerId = "6F85D940-A117-47EE-950D-70F837F8C9CE";
paths = (
{
closed = 1;
nodes = (
"632 567 LINE",
"539 675 LINE",
"359 523 LINE",
"234 675 LINE",
"111 568 LINE",
"236 415 LINE",
"58 263 LINE",
"151 154 LINE",
"331 307 LINE",
"457 154 LINE",
"579 262 LINE",
"452 414 LINE"
);
}
);
width = 634;
},
{
layerId = "7984B694-437B-44C7-A8AE-41A7C9CC5720";
paths = (
{
closed = 1;
nodes = (
"574 605 LINE",
"541 643 LINE",
"317 452 LINE",
"160 643 LINE",
"117 605 LINE",
"274 415 LINE",
"50 224 LINE",
"83 186 LINE",
"307 377 LINE",
"464 186 LINE",
"507 224 LINE",
"349 415 LINE"
);
}
);
width = 569;
}
);
rightKerningGroup = d;
unicode = 00D7;
},
{
glyphname = divide;
lastChange = "2017-06-25 12:04:12 +0000";
layers = (
{
layerId = "6F85D940-A117-47EE-950D-70F837F8C9CE";
paths = (
{
closed = 1;
nodes = (
"346 720 OFFCURVE",
"311 691 OFFCURVE",
"304 651 CURVE SMOOTH",
"295 601 OFFCURVE",
"329 558 OFFCURVE",
"379 558 CURVE SMOOTH",
"419 558 OFFCURVE",
"455 587 OFFCURVE",
"461 625 CURVE SMOOTH",
"471 677 OFFCURVE",
"436 720 OFFCURVE",
"385 720 CURVE SMOOTH"
);
},
{
closed = 1;
nodes = (
"587 338 LINE",
"614 491 LINE",
"101 491 LINE",
"74 338 LINE"
);
},
{
closed = 1;
nodes = (
"267 271 OFFCURVE",
"232 242 OFFCURVE",
"225 202 CURVE SMOOTH",
"216 152 OFFCURVE",
"250 109 OFFCURVE",
"300 109 CURVE SMOOTH",
"340 109 OFFCURVE",
"376 138 OFFCURVE",
"382 176 CURVE SMOOTH",
"392 228 OFFCURVE",
"357 271 OFFCURVE",
"306 271 CURVE SMOOTH"
);
}
);
width = 633;
},
{
layerId = "7984B694-437B-44C7-A8AE-41A7C9CC5720";
paths = (
{
closed = 1;
nodes = (
"332 662 OFFCURVE",
"307 641 OFFCURVE",
"302 614 CURVE SMOOTH",
"297 583 OFFCURVE",
"318 558 OFFCURVE",
"348 558 CURVE SMOOTH",
"376 558 OFFCURVE",
"400 579 OFFCURVE",
"405 604 CURVE SMOOTH",
"411 637 OFFCURVE",
"390 662 OFFCURVE",
"357 662 CURVE SMOOTH"
);
},
{
closed = 1;
nodes = (
"546 386 LINE",
"556 439 LINE",
"93 439 LINE",
"83 386 LINE"
);
},
{
closed = 1;
nodes = (
"263 271 OFFCURVE",
"238 250 OFFCURVE",
"234 223 CURVE SMOOTH",
"228 192 OFFCURVE",
"249 167 OFFCURVE",
"279 167 CURVE SMOOTH",
"307 167 OFFCURVE",
"331 188 OFFCURVE",
"336 213 CURVE SMOOTH",
"342 246 OFFCURVE",
"321 271 OFFCURVE",
"289 271 CURVE SMOOTH"
);
}
);
width = 584;
}
);
rightKerningGroup = d;
unicode = 00F7;
},
{
glyphname = equal;
lastChange = "2017-06-25 12:04:12 +0000";
layers = (
{
layerId = "6F85D940-A117-47EE-950D-70F837F8C9CE";
paths = (
{
closed = 1;
nodes = (
"609 458 LINE",
"636 611 LINE",
"123 611 LINE",
"96 458 LINE"
);
},
{
closed = 1;
nodes = (
"567 218 LINE",
"594 371 LINE",
"81 371 LINE",
"54 218 LINE"
);
}
);
width = 634;
},
{
layerId = "7984B694-437B-44C7-A8AE-41A7C9CC5720";
paths = (
{
closed = 1;
nodes = (
"565 490 LINE",
"574 543 LINE",
"111 543 LINE",
"102 490 LINE"
);
},
{
closed = 1;
nodes = (
"529 288 LINE",
"538 341 LINE",
"75 341 LINE",
"66 288 LINE"
);
}
);
width = 584;
}
);
rightKerningGroup = d;
unicode = 003D;
},
{
glyphname = notequal;
lastChange = "2017-06-25 12:04:12 +0000";
layers = (
{
components = (
{
name = equal;
transform = "{1, 0, 0, 1, -17, 0}";
}
);
layerId = "6F85D940-A117-47EE-950D-70F837F8C9CE";
paths = (
{
closed = 1;
nodes = (
"644 755 LINE",
"521 755 LINE",
"2 70 LINE",
"125 70 LINE"
);
}
);
width = 617;
},
{
components = (
{
name = equal;
transform = "{1, 0, 0, 1, 13, 0}";
}
);
layerId = "7984B694-437B-44C7-A8AE-41A7C9CC5720";
paths = (
{
closed = 1;
nodes = (
"580 725 LINE",
"520 725 LINE",
"32 100 LINE",
"92 100 LINE"
);
}
);
width = 647;
}
);
rightKerningGroup = d;
unicode = 2260;
},
{
glyphname = greater;
lastChange = "2017-06-25 12:04:12 +0000";
layers = (
{
layerId = "6F85D940-A117-47EE-950D-70F837F8C9CE";
paths = (
{
closed = 1;
nodes = (
"622 357 LINE",
"641 475 LINE",
"133 697 LINE",
"110 555 LINE",
"442 415 LINE",
"59 277 LINE",
"36 135 LINE"
);
}
);
width = 664;
},
{
layerId = "7984B694-437B-44C7-A8AE-41A7C9CC5720";
paths = (
{
closed = 1;
nodes = (
"584 377 LINE",
"597 455 LINE",
"131 687 LINE",
"122 630 LINE",
"551 415 LINE",
"46 202 LINE",
"36 145 LINE"
);
}
);
width = 623;
}
);
rightKerningGroup = d;
unicode = 003E;
},
{
glyphname = plusminus;
lastChange = "2017-06-25 12:04:12 +0000";
layers = (
{
layerId = "6F85D940-A117-47EE-950D-70F837F8C9CE";
paths = (
{
closed = 1;
nodes = (
"592 363 LINE",
"619 516 LINE",
"439 516 LINE",
"467 671 LINE",
"314 671 LINE",
"286 516 LINE",
"106 516 LINE",
"79 363 LINE",
"259 363 LINE",
"232 208 LINE",
"385 208 LINE",
"412 363 LINE"
);
},
{
closed = 1;
nodes = (
"528 0 LINE",
"555 153 LINE",
"42 153 LINE",
"15 0 LINE"
);
}
);
width = 633;
},
{
layerId = "7984B694-437B-44C7-A8AE-41A7C9CC5720";
paths = (
{
closed = 1;
nodes = (
"601 413 LINE",
"610 466 LINE",
"380 466 LINE",
"417 671 LINE",
"364 671 LINE",
"327 466 LINE",
"97 466 LINE",
"88 413 LINE",
"318 413 LINE",
"282 208 LINE",
"335 208 LINE",
"371 413 LINE"
);
},
{
closed = 1;
nodes = (
"537 50 LINE",
"546 103 LINE",
"33 103 LINE",
"24 50 LINE"
);
}
);
width = 633;
}
);
rightKerningGroup = d;
unicode = 00B1;
},
{
glyphname = asciitilde;
lastChange = "2017-06-25 12:04:12 +0000";
layers = (
{
layerId = "6F85D940-A117-47EE-950D-70F837F8C9CE";
paths = (
{
closed = 1;
nodes = (
"596 521 LINE",
"598 521 OFFCURVE",
"547 443 OFFCURVE",
"483 443 CURVE SMOOTH",
"436 443 OFFCURVE",
"384 528 OFFCURVE",
"278 528 CURVE SMOOTH",
"172 528 OFFCURVE",
"83 387 OFFCURVE",
"83 387 CURVE",
"163 310 LINE",
"161 310 OFFCURVE",
"212 388 OFFCURVE",
"276 388 CURVE SMOOTH",
"324 388 OFFCURVE",
"378 303 OFFCURVE",
"481 303 CURVE SMOOTH",
"587 303 OFFCURVE",
"676 444 OFFCURVE",
"676 444 CURVE"
);
}
);
width = 703;
},
{
layerId = "7984B694-437B-44C7-A8AE-41A7C9CC5720";
paths = (
{
closed = 1;
nodes = (
"625 486 LINE",
"626 486 OFFCURVE",
"566 383 OFFCURVE",
"485 383 CURVE SMOOTH",
"415 383 OFFCURVE",
"374 508 OFFCURVE",
"271 508 CURVE SMOOTH",
"162 508 OFFCURVE",
"83 389 OFFCURVE",
"83 389 CURVE",
"130 344 LINE",
"130 344 OFFCURVE",
"190 448 OFFCURVE",
"270 448 CURVE SMOOTH",
"342 448 OFFCURVE",
"382 323 OFFCURVE",
"482 323 CURVE SMOOTH",
"591 323 OFFCURVE",
"670 442 OFFCURVE",
"670 442 CURVE"
);
}
);
width = 697;
}
);
rightKerningGroup = d;
unicode = 007E;
},
{
glyphname = percent;
lastChange = "2017-06-25 12:04:12 +0000";
layers = (
{
layerId = "6F85D940-A117-47EE-950D-70F837F8C9CE";
paths = (
{
closed = 1;
nodes = (
"145 0 LINE",
"267 0 LINE",
"893 825 LINE",
"771 825 LINE"
);
},
{
closed = 1;
nodes = (
"72 536 OFFCURVE",
"150 446 OFFCURVE",
"290 446 CURVE SMOOTH",
"413 446 OFFCURVE",
"511 522 OFFCURVE",
"530 630 CURVE SMOOTH",
"552 752 OFFCURVE",
"465 840 OFFCURVE",
"337 840 CURVE SMOOTH",
"217 840 OFFCURVE",
"112 766 OFFCURVE",
"93 656 CURVE SMOOTH"
);
},
{
closed = 1;
nodes = (
"228 690 OFFCURVE",
"283 736 OFFCURVE",
"340 736 CURVE SMOOTH",
"384 736 OFFCURVE",
"412 704 OFFCURVE",
"404 656 CURVE SMOOTH",
"393 596 OFFCURVE",
"341 552 OFFCURVE",
"284 552 CURVE SMOOTH",
"236 552 OFFCURVE",
"209 582 OFFCURVE",
"217 630 CURVE SMOOTH"
);
},
{
closed = 1;
nodes = (
"483 73 OFFCURVE",
"570 -15 OFFCURVE",
"702 -15 CURVE SMOOTH",
"818 -15 OFFCURVE",
"923 59 OFFCURVE",
"942 169 CURVE SMOOTH",
"963 289 OFFCURVE",
"882 379 OFFCURVE",
"749 379 CURVE SMOOTH",
"619 379 OFFCURVE",
"524 303 OFFCURVE",
"505 195 CURVE SMOOTH"
);
},
{
closed = 1;
nodes = (
"640 229 OFFCURVE",
"691 273 OFFCURVE",
"751 273 CURVE SMOOTH",
"796 273 OFFCURVE",
"824 243 OFFCURVE",
"816 195 CURVE SMOOTH",
"805 135 OFFCURVE",
"751 89 OFFCURVE",
"695 89 CURVE SMOOTH",
"650 89 OFFCURVE",
"621 121 OFFCURVE",
"629 169 CURVE SMOOTH"
);
}
);
width = 980;
},
{
layerId = "7984B694-437B-44C7-A8AE-41A7C9CC5720";
paths = (
{
closed = 1;
nodes = (
"95 0 LINE",
"155 0 LINE",
"781 825 LINE",
"721 825 LINE"
);
},
{
closed = 1;
nodes = (
"77 558 OFFCURVE",
"134 492 OFFCURVE",
"241 492 CURVE SMOOTH",
"336 492 OFFCURVE",
"414 554 OFFCURVE",
"429 638 CURVE SMOOTH",
"445 730 OFFCURVE",
"380 794 OFFCURVE",
"285 794 CURVE SMOOTH",
"190 794 OFFCURVE",
"108 734 OFFCURVE",
"92 648 CURVE SMOOTH"
);
},
{
closed = 1;
nodes = (
"156 704 OFFCURVE",
"219 749 OFFCURVE",
"285 749 CURVE SMOOTH",
"344 749 OFFCURVE",
"385 708 OFFCURVE",
"374 648 CURVE SMOOTH",
"363 580 OFFCURVE",
"304 538 OFFCURVE",
"239 538 CURVE SMOOTH",
"174 538 OFFCURVE",
"134 576 OFFCURVE",
"145 638 CURVE SMOOTH"
);
},
{
closed = 1;
nodes = (
"428 96 OFFCURVE",
"486 30 OFFCURVE",
"592 30 CURVE SMOOTH",
"688 30 OFFCURVE",
"765 92 OFFCURVE",
"780 176 CURVE SMOOTH",
"796 268 OFFCURVE",
"732 332 OFFCURVE",
"636 332 CURVE SMOOTH",
"542 332 OFFCURVE",
"459 272 OFFCURVE",
"444 186 CURVE SMOOTH"
);
},
{
closed = 1;
nodes = (
"508 242 OFFCURVE",
"570 287 OFFCURVE",
"636 287 CURVE SMOOTH",
"695 287 OFFCURVE",
"737 246 OFFCURVE",
"726 186 CURVE SMOOTH",
"714 118 OFFCURVE",
"655 76 OFFCURVE",
"590 76 CURVE SMOOTH",
"525 76 OFFCURVE",
"485 114 OFFCURVE",
"496 176 CURVE SMOOTH"
);
}
);
width = 817;
}
);
rightKerningGroup = d;
unicode = 0025;
},
{
glyphname = perthousand;
lastChange = "2017-06-25 12:04:12 +0000";
layers = (
{
layerId = "6F85D940-A117-47EE-950D-70F837F8C9CE";
paths = (
{
closed = 1;
nodes = (
"145 0 LINE",
"267 0 LINE",
"893 825 LINE",
"771 825 LINE"
);
},
{
closed = 1;
nodes = (
"72 536 OFFCURVE",
"150 446 OFFCURVE",
"290 446 CURVE SMOOTH",
"413 446 OFFCURVE",
"511 522 OFFCURVE",
"530 630 CURVE SMOOTH",
"552 752 OFFCURVE",
"465 840 OFFCURVE",
"337 840 CURVE SMOOTH",
"217 840 OFFCURVE",
"112 766 OFFCURVE",
"93 656 CURVE SMOOTH"
);
},
{
closed = 1;
nodes = (
"228 690 OFFCURVE",
"283 736 OFFCURVE",
"340 736 CURVE SMOOTH",
"384 736 OFFCURVE",
"412 704 OFFCURVE",
"404 656 CURVE SMOOTH",
"393 596 OFFCURVE",
"341 552 OFFCURVE",
"284 552 CURVE SMOOTH",
"236 552 OFFCURVE",
"209 582 OFFCURVE",
"217 630 CURVE SMOOTH"
);
},
{
closed = 1;
nodes = (
"483 73 OFFCURVE",
"570 -15 OFFCURVE",
"702 -15 CURVE SMOOTH",
"818 -15 OFFCURVE",
"923 59 OFFCURVE",
"942 169 CURVE SMOOTH",
"963 289 OFFCURVE",
"882 379 OFFCURVE",
"749 379 CURVE SMOOTH",
"619 379 OFFCURVE",
"524 303 OFFCURVE",
"505 195 CURVE SMOOTH"
);
},
{
closed = 1;
nodes = (
"640 229 OFFCURVE",
"691 273 OFFCURVE",
"751 273 CURVE SMOOTH",
"796 273 OFFCURVE",
"824 243 OFFCURVE",
"816 195 CURVE SMOOTH",
"805 135 OFFCURVE",
"751 89 OFFCURVE",
"695 89 CURVE SMOOTH",
"650 89 OFFCURVE",
"621 121 OFFCURVE",
"629 169 CURVE SMOOTH"
);
},
{
closed = 1;
nodes = (
"971 73 OFFCURVE",
"1058 -15 OFFCURVE",
"1190 -15 CURVE SMOOTH",
"1306 -15 OFFCURVE",
"1411 59 OFFCURVE",
"1430 169 CURVE SMOOTH",
"1451 289 OFFCURVE",
"1370 379 OFFCURVE",
"1237 379 CURVE SMOOTH",
"1107 379 OFFCURVE",
"1012 303 OFFCURVE",
"993 195 CURVE SMOOTH"
);
},
{
closed = 1;
nodes = (
"1128 229 OFFCURVE",
"1179 273 OFFCURVE",
"1239 273 CURVE SMOOTH",
"1284 273 OFFCURVE",
"1312 243 OFFCURVE",
"1304 195 CURVE SMOOTH",
"1293 135 OFFCURVE",
"1239 89 OFFCURVE",
"1183 89 CURVE SMOOTH",
"1138 89 OFFCURVE",
"1109 121 OFFCURVE",
"1117 169 CURVE SMOOTH"
);
}
);
width = 1468;
},
{
layerId = "7984B694-437B-44C7-A8AE-41A7C9CC5720";
paths = (
{
closed = 1;
nodes = (
"95 0 LINE",
"155 0 LINE",
"781 825 LINE",
"721 825 LINE"
);
},
{
closed = 1;
nodes = (
"77 558 OFFCURVE",
"134 492 OFFCURVE",
"241 492 CURVE SMOOTH",
"336 492 OFFCURVE",
"414 554 OFFCURVE",
"429 638 CURVE SMOOTH",
"445 730 OFFCURVE",
"380 794 OFFCURVE",
"285 794 CURVE SMOOTH",
"190 794 OFFCURVE",
"108 734 OFFCURVE",
"92 648 CURVE SMOOTH"
);
},
{
closed = 1;
nodes = (
"156 704 OFFCURVE",
"219 749 OFFCURVE",
"285 749 CURVE SMOOTH",
"344 749 OFFCURVE",
"385 708 OFFCURVE",
"374 648 CURVE SMOOTH",
"363 580 OFFCURVE",
"304 538 OFFCURVE",
"239 538 CURVE SMOOTH",
"174 538 OFFCURVE",
"134 576 OFFCURVE",
"145 638 CURVE SMOOTH"
);
},
{
closed = 1;
nodes = (
"428 96 OFFCURVE",
"486 30 OFFCURVE",
"592 30 CURVE SMOOTH",
"688 30 OFFCURVE",
"765 92 OFFCURVE",
"780 176 CURVE SMOOTH",
"796 268 OFFCURVE",
"732 332 OFFCURVE",
"636 332 CURVE SMOOTH",
"542 332 OFFCURVE",
"459 272 OFFCURVE",
"444 186 CURVE SMOOTH"
);
},
{
closed = 1;
nodes = (
"508 242 OFFCURVE",
"570 287 OFFCURVE",
"636 287 CURVE SMOOTH",
"695 287 OFFCURVE",
"737 246 OFFCURVE",
"726 186 CURVE SMOOTH",
"714 118 OFFCURVE",
"655 76 OFFCURVE",
"590 76 CURVE SMOOTH",
"525 76 OFFCURVE",
"485 114 OFFCURVE",
"496 176 CURVE SMOOTH"
);
},
{
closed = 1;
nodes = (
"824 96 OFFCURVE",
"882 30 OFFCURVE",
"988 30 CURVE SMOOTH",
"1084 30 OFFCURVE",
"1161 92 OFFCURVE",
"1176 176 CURVE SMOOTH",
"1192 268 OFFCURVE",
"1128 332 OFFCURVE",
"1032 332 CURVE SMOOTH",
"938 332 OFFCURVE",
"855 272 OFFCURVE",
"840 186 CURVE SMOOTH"
);
},
{
closed = 1;
nodes = (
"904 242 OFFCURVE",
"966 287 OFFCURVE",
"1032 287 CURVE SMOOTH",
"1091 287 OFFCURVE",
"1133 246 OFFCURVE",
"1122 186 CURVE SMOOTH",
"1110 118 OFFCURVE",
"1051 76 OFFCURVE",
"986 76 CURVE SMOOTH",
"921 76 OFFCURVE",
"881 114 OFFCURVE",
"892 176 CURVE SMOOTH"
);
}
);
width = 1213;
}
);
rightKerningGroup = d;
unicode = 2030;
},
{
glyphname = at;
lastChange = "2017-06-25 12:04:12 +0000";
layers = (
{
layerId = "6F85D940-A117-47EE-950D-70F837F8C9CE";
paths = (
{
closed = 1;
nodes = (
"680 344 OFFCURVE",
"691 393 OFFCURVE",
"691 393 CURVE",
"727 595 LINE",
"608 595 LINE",
"597 553 LINE",
"571 583 OFFCURVE",
"530 606 OFFCURVE",
"473 606 CURVE SMOOTH",
"368 606 OFFCURVE",
"280 523 OFFCURVE",
"262 416 CURVE SMOOTH",
"241 298 OFFCURVE",
"309 202 OFFCURVE",
"424 202 CURVE SMOOTH",
"472 202 OFFCURVE",
"518 220 OFFCURVE",
"551 251 CURVE",
"566 273 LINE",
"593 245 OFFCURVE",
"642 223 OFFCURVE",
"702 223 CURVE SMOOTH",
"794 223 OFFCURVE",
"904 279 OFFCURVE",
"930 429 CURVE SMOOTH",
"973 671 OFFCURVE",
"805 840 OFFCURVE",
"565 840 CURVE SMOOTH",
"327 840 OFFCURVE",
"97 674 OFFCURVE",
"53 426 CURVE SMOOTH",
"7 166 OFFCURVE",
"187 -15 OFFCURVE",
"437 -15 CURVE SMOOTH",
"647 -15 OFFCURVE",
"758 122 OFFCURVE",
"758 122 CURVE",
"654 195 LINE",
"655 195 OFFCURVE",
"577 127 OFFCURVE",
"439 127 CURVE SMOOTH",
"278 127 OFFCURVE",
"167 243 OFFCURVE",
"195 400 CURVE SMOOTH",
"225 569 OFFCURVE",
"389 709 OFFCURVE",
"565 709 CURVE SMOOTH",
"733 709 OFFCURVE",
"842 606 OFFCURVE",
"816 455 CURVE SMOOTH",
"801 375 OFFCURVE",
"771 344 OFFCURVE",
"722 344 CURVE SMOOTH"
);
},
{
closed = 1;
nodes = (
"422 445 OFFCURVE",
"471 487 OFFCURVE",
"522 487 CURVE SMOOTH",
"559 487 OFFCURVE",
"584 459 OFFCURVE",
"577 418 CURVE SMOOTH",
"568 366 OFFCURVE",
"521 325 OFFCURVE",
"470 325 CURVE SMOOTH",
"428 325 OFFCURVE",
"405 352 OFFCURVE",
"412 392 CURVE SMOOTH"
);
}
);
width = 922;
},
{
layerId = "7984B694-437B-44C7-A8AE-41A7C9CC5720";
paths = (
{
closed = 1;
nodes = (
"654 269 OFFCURVE",
"671 338 OFFCURVE",
"671 338 CURVE",
"716 595 LINE",
"657 595 LINE",
"646 536 LINE",
"640 555 OFFCURVE",
"593 606 OFFCURVE",
"499 606 CURVE SMOOTH",
"372 606 OFFCURVE",
"279 518 OFFCURVE",
"259 408 CURVE SMOOTH",
"239 293 OFFCURVE",
"305 202 OFFCURVE",
"436 202 CURVE SMOOTH",
"537 202 OFFCURVE",
"598 269 OFFCURVE",
"607 285 CURVE",
"613 296 LINE",
"618 260 OFFCURVE",
"645 218 OFFCURVE",
"711 218 CURVE SMOOTH",
"797 218 OFFCURVE",
"905 294 OFFCURVE",
"930 437 CURVE SMOOTH",
"972 676 OFFCURVE",
"807 840 OFFCURVE",
"571 840 CURVE SMOOTH",
"329 840 OFFCURVE",
"95 669 OFFCURVE",
"51 418 CURVE SMOOTH",
"6 161 OFFCURVE",
"183 -15 OFFCURVE",
"429 -15 CURVE SMOOTH",
"639 -15 OFFCURVE",
"753 119 OFFCURVE",
"753 119 CURVE",
"705 155 LINE",
"706 155 OFFCURVE",
"611 47 OFFCURVE",
"431 47 CURVE SMOOTH",
"233 47 OFFCURVE",
"78 198 OFFCURVE",
"115 408 CURVE SMOOTH",
"153 624 OFFCURVE",
"363 780 OFFCURVE",
"569 780 CURVE SMOOTH",
"775 780 OFFCURVE",
"899 636 OFFCURVE",
"866 447 CURVE SMOOTH",
"844 320 OFFCURVE",
"760 269 OFFCURVE",
"715 269 CURVE SMOOTH"
);
},
{
closed = 1;
nodes = (
"333 490 OFFCURVE",
"413 557 OFFCURVE",
"504 557 CURVE SMOOTH",
"586 557 OFFCURVE",
"641 498 OFFCURVE",
"626 415 CURVE SMOOTH",
"611 327 OFFCURVE",
"531 253 OFFCURVE",
"441 253 CURVE SMOOTH",
"350 253 OFFCURVE",
"302 319 OFFCURVE",
"317 401 CURVE SMOOTH"
);
}
);
width = 920;
}
);
rightKerningGroup = d;
unicode = 0040;
},
{
glyphname = ampersand;
lastChange = "2017-06-25 12:04:12 +0000";
layers = (
{
background = {
components = (
{
name = e;
transform = "{1, 0, -0.3527, -1, 184, 812}";
}
);
};
guideLines = (
{
angle = 80;
position = "{804, 472}";
},
{
position = "{1387, -14}";
}
);
layerId = "6F85D940-A117-47EE-950D-70F837F8C9CE";
paths = (
{
closed = 1;
nodes = (
"1 76 OFFCURVE",
"105 -21 OFFCURVE",
"287 -21 CURVE SMOOTH",
"397 -21 OFFCURVE",
"479 8 OFFCURVE",
"529 56 CURVE",
"554 7 OFFCURVE",
"592 -12 OFFCURVE",
"646 -12 CURVE SMOOTH",
"674 -12 OFFCURVE",
"711 -8 OFFCURVE",
"740 0 CURVE",
"765 137 LINE",
"679 137 LINE SMOOTH",
"643 137 OFFCURVE",
"640 163 OFFCURVE",
"648 211 CURVE SMOOTH",
"674 359 LINE",
"776 356 LINE",
"800 491 LINE",
"485 494 LINE SMOOTH",
"366 495 OFFCURVE",
"343 575 OFFCURVE",
"350 617 CURVE SMOOTH",
"357 663 OFFCURVE",
"413 688 OFFCURVE",
"479 688 CURVE SMOOTH",
"532 688 OFFCURVE",
"591 673 OFFCURVE",
"639 641 CURVE",
"667 796 LINE",
"632 827 OFFCURVE",
"561 840 OFFCURVE",
"470 839 CURVE SMOOTH",
"291 837 OFFCURVE",
"180 760 OFFCURVE",
"159 638 CURVE SMOOTH",
"147 567 OFFCURVE",
"183 457 OFFCURVE",
"255 443 CURVE",
"175 440 OFFCURVE",
"49 373 OFFCURVE",
"29 249 CURVE SMOOTH"
);
},
{
closed = 1;
nodes = (
"235 304 OFFCURVE",
"278 363 OFFCURVE",
"403 362 CURVE SMOOTH",
"506 361 LINE",
"488 206 OFFCURVE",
"437 129 OFFCURVE",
"316 127 CURVE SMOOTH",
"259 126 OFFCURVE",
"213 157 OFFCURVE",
"224 231 CURVE SMOOTH"
);
}
);
width = 786;
},
{
guideLines = (
{
position = "{2151, -18}";
},
{
angle = 80;
position = "{645, 134}";
}
);
layerId = "7984B694-437B-44C7-A8AE-41A7C9CC5720";
paths = (
{
closed = 1;
nodes = (
"0 87 OFFCURVE",
"78 -17 OFFCURVE",
"235 -17 CURVE SMOOTH",
"346 -17 OFFCURVE",
"419 24 OFFCURVE",
"469 87 CURVE",
"473 32 OFFCURVE",
"495 -12 OFFCURVE",
"559 -14 CURVE SMOOTH",
"594 -15 OFFCURVE",
"619 -8 OFFCURVE",
"643 -2 CURVE",
"650 49 LINE",
"600 40 OFFCURVE",
"558 37 OFFCURVE",
"543 56 CURVE",
"531 70 OFFCURVE",
"524 99 OFFCURVE",
"532 144 CURVE SMOOTH",
"582 415 LINE",
"692 415 LINE",
"703 479 LINE",
"373 479 LINE SMOOTH",
"258 479 OFFCURVE",
"204 560 OFFCURVE",
"220 646 CURVE SMOOTH",
"236 733 OFFCURVE",
"329 774 OFFCURVE",
"424 774 CURVE SMOOTH",
"475 774 OFFCURVE",
"526 762 OFFCURVE",
"566 740 CURVE",
"577 806 LINE",
"538 827 OFFCURVE",
"466 838 OFFCURVE",
"413 837 CURVE SMOOTH",
"270 834 OFFCURVE",
"167 758 OFFCURVE",
"148 638 CURVE SMOOTH",
"132 537 OFFCURVE",
"183 462 OFFCURVE",
"255 451 CURVE",
"164 442 OFFCURVE",
"50 364 OFFCURVE",
"23 215 CURVE SMOOTH"
);
},
{
closed = 1;
nodes = (
"111 310 OFFCURVE",
"201 415 OFFCURVE",
"334 415 CURVE SMOOTH",
"513 415 LINE",
"478 170 OFFCURVE",
"421 45 OFFCURVE",
"245 44 CURVE SMOOTH",
"161 44 OFFCURVE",
"81 101 OFFCURVE",
"97 214 CURVE SMOOTH"
);
}
);
width = 689;
},
{
associatedMasterId = "7984B694-437B-44C7-A8AE-41A7C9CC5720";
guideLines = (
{
position = "{2141, -18}";
},
{
angle = 80;
position = "{482, 147}";
}
);
layerId = "DAE2A8ED-1D4F-4560-82BB-9FBA429731E7";
name = "Jun 25 17, 12:35";
paths = (
{
closed = 1;
nodes = (
"-10 87 OFFCURVE",
"68 -17 OFFCURVE",
"225 -17 CURVE SMOOTH",
"480 -17 OFFCURVE",
"546 197 OFFCURVE",
"569 415 CURVE",
"682 415 LINE",
"693 479 LINE",
"363 479 LINE SMOOTH",
"248 479 OFFCURVE",
"194 560 OFFCURVE",
"210 646 CURVE SMOOTH",
"234 779 OFFCURVE",
"440 804 OFFCURVE",
"556 740 CURVE",
"567 806 LINE",
"528 827 OFFCURVE",
"456 838 OFFCURVE",
"403 837 CURVE SMOOTH",
"260 834 OFFCURVE",
"157 758 OFFCURVE",
"138 638 CURVE SMOOTH",
"122 537 OFFCURVE",
"173 462 OFFCURVE",
"245 451 CURVE",
"154 442 OFFCURVE",
"40 364 OFFCURVE",
"13 215 CURVE SMOOTH"
);
},
{
closed = 1;
nodes = (
"101 310 OFFCURVE",
"191 415 OFFCURVE",
"324 415 CURVE SMOOTH",
"503 415 LINE",
"473 170 OFFCURVE",
"411 45 OFFCURVE",
"235 44 CURVE SMOOTH",
"151 44 OFFCURVE",
"71 101 OFFCURVE",
"87 214 CURVE SMOOTH"
);
}
);
width = 614;
},
{
associatedMasterId = "6F85D940-A117-47EE-950D-70F837F8C9CE";
background = {
components = (
{
name = e;
transform = "{1, 0, -0.3527, -1, 228, 812}";
}
);
};
guideLines = (
{
angle = 80;
position = "{615, 246}";
},
{
position = "{1431, -14}";
}
);
layerId = "59C64EF0-EF6A-4245-ABF3-EBC359C0561C";
name = "Jun 25 17, 12:36";
paths = (
{
closed = 1;
nodes = (
"45 76 OFFCURVE",
"121 -29 OFFCURVE",
"351 -21 CURVE SMOOTH",
"609 -12 OFFCURVE",
"686 130 OFFCURVE",
"711 359 CURVE",
"820 356 LINE",
"840 491 LINE",
"529 494 LINE SMOOTH",
"410 495 OFFCURVE",
"387 575 OFFCURVE",
"394 617 CURVE SMOOTH",
"401 663 OFFCURVE",
"457 688 OFFCURVE",
"523 688 CURVE SMOOTH",
"576 688 OFFCURVE",
"635 673 OFFCURVE",
"683 641 CURVE",
"712 796 LINE",
"677 827 OFFCURVE",
"605 840 OFFCURVE",
"514 839 CURVE SMOOTH",
"335 837 OFFCURVE",
"224 760 OFFCURVE",
"203 638 CURVE SMOOTH",
"191 567 OFFCURVE",
"227 457 OFFCURVE",
"299 443 CURVE",
"219 440 OFFCURVE",
"93 373 OFFCURVE",
"73 249 CURVE SMOOTH"
);
},
{
closed = 1;
nodes = (
"281 304 OFFCURVE",
"322 363 OFFCURVE",
"447 362 CURVE SMOOTH",
"545 361 LINE",
"527 206 OFFCURVE",
"465 129 OFFCURVE",
"360 127 CURVE SMOOTH",
"303 126 OFFCURVE",
"259 157 OFFCURVE",
"270 231 CURVE SMOOTH"
);
}
);
width = 867;
}
);
rightKerningGroup = d;
unicode = 0026;
},
{
glyphname = paragraph;
lastChange = "2017-06-25 12:04:12 +0000";
layers = (
{
layerId = "6F85D940-A117-47EE-950D-70F837F8C9CE";
paths = (
{
closed = 1;
nodes = (
"749 825 LINE",
"380 825 LINE SMOOTH",
"219 825 OFFCURVE",
"105 719 OFFCURVE",
"81 584 CURVE SMOOTH",
"55 438 OFFCURVE",
"139 306 OFFCURVE",
"300 306 CURVE SMOOTH",
"390 306 LINE",
"336 0 LINE",
"439 0 LINE",
"566 721 LINE",
"627 721 LINE",
"500 0 LINE",
"603 0 LINE"
);
}
);
width = 709;
},
{
layerId = "7984B694-437B-44C7-A8AE-41A7C9CC5720";
paths = (
{
closed = 1;
nodes = (
"583 825 LINE",
"362 825 LINE SMOOTH",
"191 825 OFFCURVE",
"103 714 OFFCURVE",
"86 616 CURVE SMOOTH",
"68 513 OFFCURVE",
"119 386 OFFCURVE",
"290 386 CURVE SMOOTH",
"333 386 LINE",
"265 0 LINE",
"313 0 LINE",
"449 771 LINE",
"525 771 LINE",
"389 0 LINE",
"437 0 LINE"
);
}
);
width = 543;
}
);
rightKerningGroup = d;
unicode = 00B6;
},
{
glyphname = section;
lastChange = "2017-06-25 12:04:12 +0000";
layers = (
{
layerId = "6F85D940-A117-47EE-950D-70F837F8C9CE";
paths = (
{
closed = 1;
nodes = (
"411 -275 OFFCURVE",
"494 -159 OFFCURVE",
"508 -79 CURVE SMOOTH",
"524 8 OFFCURVE",
"499 74 OFFCURVE",
"446 109 CURVE",
"541 149 OFFCURVE",
"604 207 OFFCURVE",
"616 276 CURVE SMOOTH",
"637 396 OFFCURVE",
"568 467 OFFCURVE",
"452 521 CURVE SMOOTH",
"378 564 OFFCURVE",
"322 590 OFFCURVE",
"328 624 CURVE SMOOTH",
"335 661 OFFCURVE",
"367 692 OFFCURVE",
"415 692 CURVE SMOOTH",
"485 692 OFFCURVE",
"467 628 OFFCURVE",
"467 628 CURVE",
"637 655 LINE",
"637 655 OFFCURVE",
"637 840 OFFCURVE",
"418 840 CURVE SMOOTH",
"254 840 OFFCURVE",
"155 746 OFFCURVE",
"137 644 CURVE SMOOTH",
"121 556 OFFCURVE",
"162 497 OFFCURVE",
"209 456 CURVE",
"134 434 OFFCURVE",
"45 378 OFFCURVE",
"29 289 CURVE SMOOTH",
"8 169 OFFCURVE",
"77 98 OFFCURVE",
"193 44 CURVE SMOOTH",
"268 1 OFFCURVE",
"321 -24 OFFCURVE",
"315 -59 CURVE SMOOTH",
"309 -94 OFFCURVE",
"276 -127 OFFCURVE",
"209 -127 CURVE SMOOTH",
"133 -127 OFFCURVE",
"135 -51 OFFCURVE",
"135 -51 CURVE",
"-35 -78 LINE",
"-34 -78 OFFCURVE",
"-32 -275 OFFCURVE",
"206 -275 CURVE SMOOTH"
);
},
{
closed = 1;
nodes = (
"297 387 OFFCURVE",
"331 367 OFFCURVE",
"337 370 CURVE SMOOTH",
"397 344 OFFCURVE",
"459 316 OFFCURVE",
"451 273 CURVE SMOOTH",
"442 218 OFFCURVE",
"385 189 OFFCURVE",
"334 174 CURVE",
"318 185 OFFCURVE",
"306 192 OFFCURVE",
"297 190 CURVE SMOOTH",
"248 220 OFFCURVE",
"186 249 OFFCURVE",
"194 292 CURVE SMOOTH",
"203 346 OFFCURVE",
"260 375 OFFCURVE",
"298 387 CURVE"
);
}
);
width = 641;
},
{
layerId = "7984B694-437B-44C7-A8AE-41A7C9CC5720";
paths = (
{
closed = 1;
nodes = (
"402 -275 OFFCURVE",
"464 -154 OFFCURVE",
"479 -71 CURVE SMOOTH",
"493 13 OFFCURVE",
"470 61 OFFCURVE",
"414 98 CURVE",
"481 126 OFFCURVE",
"549 184 OFFCURVE",
"563 266 CURVE SMOOTH",
"584 382 OFFCURVE",
"490 418 OFFCURVE",
"377 474 CURVE SMOOTH",
"299 515 OFFCURVE",
"208 555 OFFCURVE",
"225 652 CURVE SMOOTH",
"240 734 OFFCURVE",
"325 792 OFFCURVE",
"427 792 CURVE SMOOTH",
"551 792 OFFCURVE",
"557 680 OFFCURVE",
"557 680 CURVE",
"613 689 LINE",
"613 689 OFFCURVE",
"609 840 OFFCURVE",
"424 840 CURVE SMOOTH",
"268 840 OFFCURVE",
"183 739 OFFCURVE",
"168 656 CURVE SMOOTH",
"151 559 OFFCURVE",
"206 516 OFFCURVE",
"256 474 CURVE",
"202 460 OFFCURVE",
"99 409 OFFCURVE",
"82 309 CURVE SMOOTH",
"63 201 OFFCURVE",
"162 158 OFFCURVE",
"275 102 CURVE SMOOTH",
"353 61 OFFCURVE",
"437 31 OFFCURVE",
"419 -67 CURVE SMOOTH",
"405 -147 OFFCURVE",
"360 -227 OFFCURVE",
"198 -227 CURVE SMOOTH",
"54 -227 OFFCURVE",
"53 -108 OFFCURVE",
"53 -108 CURVE",
"-11 -118 LINE",
"-11 -118 OFFCURVE",
"-6 -275 OFFCURVE",
"198 -275 CURVE SMOOTH"
);
},
{
closed = 1;
nodes = (
"315 448 OFFCURVE",
"351 425 OFFCURVE",
"353 426 CURVE SMOOTH",
"434 388 OFFCURVE",
"518 353 OFFCURVE",
"504 278 CURVE SMOOTH",
"490 196 OFFCURVE",
"403 137 OFFCURVE",
"363 125 CURVE",
"333 138 OFFCURVE",
"302 154 OFFCURVE",
"297 155 CURVE SMOOTH",
"222 198 OFFCURVE",
"129 232 OFFCURVE",
"142 303 CURVE SMOOTH",
"157 391 OFFCURVE",
"249 432 OFFCURVE",
"313 451 CURVE"
);
}
);
width = 639;
}
);
rightKerningGroup = d;
unicode = 00A7;
},
{
glyphname = copyright;
lastChange = "2017-06-25 12:04:12 +0000";
layers = (
{
layerId = "6F85D940-A117-47EE-950D-70F837F8C9CE";
paths = (
{
closed = 1;
nodes = (
"11 184 OFFCURVE",
"173 -15 OFFCURVE",
"414 -15 CURVE SMOOTH",
"644 -15 OFFCURVE",
"863 170 OFFCURVE",
"904 399 CURVE SMOOTH",
"946 641 OFFCURVE",
"784 840 OFFCURVE",
"542 840 CURVE SMOOTH",
"313 840 OFFCURVE",
"94 655 OFFCURVE",
"53 425 CURVE SMOOTH"
);
},
{
closed = 1;
nodes = (
"194 578 OFFCURVE",
"367 726 OFFCURVE",
"545 726 CURVE SMOOTH",
"712 726 OFFCURVE",
"824 592 OFFCURVE",
"794 425 CURVE SMOOTH",
"763 247 OFFCURVE",
"590 99 OFFCURVE",
"411 99 CURVE SMOOTH",
"245 99 OFFCURVE",
"133 233 OFFCURVE",
"163 399 CURVE SMOOTH"
);
},
{
closed = 1;
nodes = (
"476 516 OFFCURVE",
"431 478 OFFCURVE",
"423 428 CURVE SMOOTH",
"411 364 OFFCURVE",
"452 313 OFFCURVE",
"512 313 CURVE SMOOTH",
"544 313 OFFCURVE",
"568 323 OFFCURVE",
"574 326 CURVE",
"594 239 LINE",
"592 239 OFFCURVE",
"532 206 OFFCURVE",
"449 206 CURVE SMOOTH",
"342 206 OFFCURVE",
"258 291 OFFCURVE",
"277 400 CURVE SMOOTH",
"299 523 OFFCURVE",
"427 624 OFFCURVE",
"546 624 CURVE SMOOTH",
"625 624 OFFCURVE",
"662 597 OFFCURVE",
"664 594 CURVE",
"604 500 LINE",
"606 500 OFFCURVE",
"563 516 OFFCURVE",
"525 516 CURVE SMOOTH"
);
}
);
width = 902;
},
{
layerId = "7984B694-437B-44C7-A8AE-41A7C9CC5720";
paths = (
{
closed = 1;
nodes = (
"9 179 OFFCURVE",
"169 -15 OFFCURVE",
"406 -15 CURVE SMOOTH",
"640 -15 OFFCURVE",
"863 175 OFFCURVE",
"904 407 CURVE SMOOTH",
"946 646 OFFCURVE",
"786 840 OFFCURVE",
"548 840 CURVE SMOOTH",
"315 840 OFFCURVE",
"92 650 OFFCURVE",
"51 417 CURVE SMOOTH"
);
},
{
closed = 1;
nodes = (
"146 612 OFFCURVE",
"343 779 OFFCURVE",
"546 779 CURVE SMOOTH",
"746 779 OFFCURVE",
"880 616 OFFCURVE",
"845 417 CURVE SMOOTH",
"809 213 OFFCURVE",
"612 46 OFFCURVE",
"408 46 CURVE SMOOTH",
"209 46 OFFCURVE",
"75 209 OFFCURVE",
"110 407 CURVE SMOOTH"
);
},
{
closed = 1;
nodes = (
"442 566 OFFCURVE",
"357 513 OFFCURVE",
"340 420 CURVE SMOOTH",
"323 319 OFFCURVE",
"393 263 OFFCURVE",
"475 263 CURVE SMOOTH",
"541 263 OFFCURVE",
"578 286 OFFCURVE",
"583 289 CURVE",
"595 239 LINE",
"594 239 OFFCURVE",
"534 206 OFFCURVE",
"455 206 CURVE SMOOTH",
"344 206 OFFCURVE",
"257 296 OFFCURVE",
"277 408 CURVE SMOOTH",
"298 528 OFFCURVE",
"423 624 OFFCURVE",
"538 624 CURVE SMOOTH",
"621 624 OFFCURVE",
"658 594 OFFCURVE",
"660 591 CURVE",
"625 537 LINE",
"626 537 OFFCURVE",
"589 566 OFFCURVE",
"520 566 CURVE SMOOTH"
);
}
);
width = 900;
}
);
rightKerningGroup = d;
unicode = 00A9;
},
{
glyphname = registered;
lastChange = "2017-06-25 12:04:12 +0000";
layers = (
{
layerId = "6F85D940-A117-47EE-950D-70F837F8C9CE";
paths = (
{
closed = 1;
nodes = (
"66 499 OFFCURVE",
"154 392 OFFCURVE",
"282 392 CURVE SMOOTH",
"401 392 OFFCURVE",
"512 485 OFFCURVE",
"532 602 CURVE SMOOTH",
"555 732 OFFCURVE",
"469 840 OFFCURVE",
"338 840 CURVE SMOOTH",
"222 840 OFFCURVE",
"110 746 OFFCURVE",
"89 628 CURVE SMOOTH"
);
},
{
closed = 1;
nodes = (
"162 699 OFFCURVE",
"256 780 OFFCURVE",
"350 780 CURVE SMOOTH",
"437 780 OFFCURVE",
"492 713 OFFCURVE",
"477 628 CURVE SMOOTH",
"460 532 OFFCURVE",
"367 452 OFFCURVE",
"269 452 CURVE SMOOTH",
"186 452 OFFCURVE",
"130 518 OFFCURVE",
"144 602 CURVE SMOOTH"
);
},
{
closed = 1;
nodes = (
"224 513 LINE",
"271 513 LINE",
"285 595 LINE",
"288 595 LINE",
"336 513 LINE",
"394 513 LINE",
"341 597 LINE",
"370 606 OFFCURVE",
"384 620 OFFCURVE",
"388 646 CURVE SMOOTH",
"396 692 OFFCURVE",
"366 720 OFFCURVE",
"327 720 CURVE SMOOTH",
"260 720 LINE"
);
},
{
closed = 1;
nodes = (
"301 683 LINE",
"312 683 LINE SMOOTH",
"329 683 OFFCURVE",
"345 688 OFFCURVE",
"341 668 CURVE SMOOTH",
"336 637 OFFCURVE",
"308 628 OFFCURVE",
"291 628 CURVE SMOOTH",
"291 628 LINE"
);
}
);
width = 494;
},
{
layerId = "7984B694-437B-44C7-A8AE-41A7C9CC5720";
paths = (
{
closed = 1;
nodes = (
"64 494 OFFCURVE",
"150 392 OFFCURVE",
"274 392 CURVE SMOOTH",
"397 392 OFFCURVE",
"512 490 OFFCURVE",
"533 610 CURVE SMOOTH",
"555 737 OFFCURVE",
"471 840 OFFCURVE",
"344 840 CURVE SMOOTH",
"224 840 OFFCURVE",
"108 741 OFFCURVE",
"87 620 CURVE SMOOTH"
);
},
{
closed = 1;
nodes = (
"136 719 OFFCURVE",
"241 808 OFFCURVE",
"347 808 CURVE SMOOTH",
"453 808 OFFCURVE",
"521 723 OFFCURVE",
"503 620 CURVE SMOOTH",
"483 511 OFFCURVE",
"381 424 OFFCURVE",
"270 424 CURVE SMOOTH",
"169 424 OFFCURVE",
"99 507 OFFCURVE",
"117 610 CURVE SMOOTH"
);
},
{
closed = 1;
nodes = (
"231 513 LINE",
"266 513 LINE",
"280 595 LINE",
"305 595 LINE",
"338 513 LINE",
"379 513 LINE",
"342 598 LINE",
"369 607 OFFCURVE",
"383 625 OFFCURVE",
"389 654 CURVE SMOOTH",
"396 697 OFFCURVE",
"369 720 OFFCURVE",
"330 720 CURVE SMOOTH",
"267 720 LINE"
);
},
{
closed = 1;
nodes = (
"297 691 LINE",
"324 691 LINE SMOOTH",
"351 691 OFFCURVE",
"359 686 OFFCURVE",
"355 663 CURVE SMOOTH",
"350 635 OFFCURVE",
"337 620 OFFCURVE",
"310 620 CURVE SMOOTH",
"285 620 LINE"
);
}
);
width = 494;
}
);
rightKerningGroup = d;
unicode = 00AE;
},
{
glyphname = trademark;
lastChange = "2017-06-25 12:04:12 +0000";
layers = (
{
layerId = "6F85D940-A117-47EE-950D-70F837F8C9CE";
paths = (
{
closed = 1;
nodes = (
"108 773 LINE",
"169 773 LINE",
"132 567 LINE",
"193 567 LINE",
"230 773 LINE",
"291 773 LINE",
"300 825 LINE",
"117 825 LINE"
);
},
{
closed = 1;
nodes = (
"571 825 LINE",
"507 825 LINE",
"422 677 LINE",
"393 825 LINE",
"331 825 LINE",
"263 567 LINE",
"323 567 LINE",
"363 720 LINE",
"365 720 LINE",
"391 569 LINE",
"426 569 LINE",
"506 720 LINE",
"506 720 LINE",
"491 567 LINE",
"550 567 LINE"
);
}
);
width = 513;
},
{
layerId = "7984B694-437B-44C7-A8AE-41A7C9CC5720";
paths = (
{
closed = 1;
nodes = (
"112 793 LINE",
"187 793 LINE",
"147 567 LINE",
"180 567 LINE",
"220 793 LINE",
"295 793 LINE",
"301 825 LINE",
"118 825 LINE"
);
},
{
closed = 1;
nodes = (
"506 825 LINE",
"462 825 LINE",
"389 637 LINE",
"381 825 LINE",
"339 825 LINE",
"270 567 LINE",
"303 567 LINE",
"355 770 LINE",
"356 770 LINE",
"358 569 LINE",
"399 569 LINE",
"470 770 LINE",
"471 770 LINE",
"451 567 LINE",
"484 567 LINE"
);
}
);
width = 447;
}
);
rightKerningGroup = d;
unicode = 2122;
},
{
glyphname = degree;
lastChange = "2017-06-25 12:04:12 +0000";
layers = (
{
layerId = "6F85D940-A117-47EE-950D-70F837F8C9CE";
paths = (
{
closed = 1;
nodes = (
"151 719 OFFCURVE",
"195 669 OFFCURVE",
"270 669 CURVE SMOOTH",
"332 669 OFFCURVE",
"381 705 OFFCURVE",
"390 759 CURVE SMOOTH",
"402 826 OFFCURVE",
"354 875 OFFCURVE",
"283 875 CURVE SMOOTH",
"224 875 OFFCURVE",
"172 840 OFFCURVE",
"163 785 CURVE SMOOTH"
);
},
{
closed = 1;
nodes = (
"237 791 OFFCURVE",
"266 817 OFFCURVE",
"296 817 CURVE SMOOTH",
"315 817 OFFCURVE",
"326 805 OFFCURVE",
"323 785 CURVE SMOOTH",
"317 754 OFFCURVE",
"288 726 OFFCURVE",
"257 726 CURVE SMOOTH",
"237 726 OFFCURVE",
"228 740 OFFCURVE",
"231 759 CURVE SMOOTH"
);
}
);
width = 371;
},
{
layerId = "7984B694-437B-44C7-A8AE-41A7C9CC5720";
paths = (
{
closed = 1;
nodes = (
"153 725 OFFCURVE",
"185 689 OFFCURVE",
"239 689 CURVE SMOOTH",
"288 689 OFFCURVE",
"328 721 OFFCURVE",
"337 767 CURVE SMOOTH",
"346 820 OFFCURVE",
"311 855 OFFCURVE",
"259 855 CURVE SMOOTH",
"213 855 OFFCURVE",
"171 824 OFFCURVE",
"162 777 CURVE SMOOTH"
);
},
{
closed = 1;
nodes = (
"203 798 OFFCURVE",
"232 822 OFFCURVE",
"263 822 CURVE SMOOTH",
"289 822 OFFCURVE",
"307 802 OFFCURVE",
"302 777 CURVE SMOOTH",
"297 746 OFFCURVE",
"267 721 OFFCURVE",
"236 721 CURVE SMOOTH",
"208 721 OFFCURVE",
"193 742 OFFCURVE",
"198 767 CURVE SMOOTH"
);
}
);
width = 317;
}
);
rightKerningGroup = d;
unicode = 00B0;
},
{
glyphname = bar;
lastChange = "2017-06-25 12:04:12 +0000";
layers = (
{
layerId = "6F85D940-A117-47EE-950D-70F837F8C9CE";
paths = (
{
closed = 1;
nodes = (
"320 860 LINE",
"167 860 LINE",
"15 0 LINE",
"168 0 LINE"
);
}
);
width = 274;
},
{
layerId = "7984B694-437B-44C7-A8AE-41A7C9CC5720";
paths = (
{
closed = 1;
nodes = (
"220 860 LINE",
"167 860 LINE",
"15 0 LINE",
"68 0 LINE"
);
}
);
width = 174;
}
);
leftKerningGroup = i;
rightKerningGroup = d;
unicode = 007C;
},
{
glyphname = brokenbar;
lastChange = "2017-06-25 12:04:12 +0000";
layers = (
{
layerId = "6F85D940-A117-47EE-950D-70F837F8C9CE";
paths = (
{
closed = 1;
nodes = (
"320 860 LINE",
"167 860 LINE",
"108 528 LINE",
"261 528 LINE"
);
},
{
closed = 1;
nodes = (
"227 332 LINE",
"74 332 LINE",
"15 0 LINE",
"168 0 LINE"
);
}
);
width = 274;
},
{
layerId = "7984B694-437B-44C7-A8AE-41A7C9CC5720";
paths = (
{
closed = 1;
nodes = (
"220 860 LINE",
"167 860 LINE",
"108 528 LINE",
"161 528 LINE"
);
},
{
closed = 1;
nodes = (
"127 332 LINE",
"74 332 LINE",
"15 0 LINE",
"68 0 LINE"
);
}
);
width = 174;
}
);
rightKerningGroup = d;
unicode = 00A6;
},
{
glyphname = asciicircum;
lastChange = "2017-06-25 12:04:12 +0000";
layers = (
{
layerId = "6F85D940-A117-47EE-950D-70F837F8C9CE";
paths = (
{
closed = 1;
nodes = (
"396 840 LINE",
"304 840 LINE",
"56 605 LINE",
"221 605 LINE",
"335 714 LINE",
"405 605 LINE",
"562 605 LINE"
);
}
);
width = 496;
},
{
layerId = "7984B694-437B-44C7-A8AE-41A7C9CC5720";
paths = (
{
closed = 1;
nodes = (
"377 840 LINE",
"325 840 LINE",
"86 605 LINE",
"159 605 LINE",
"345 794 LINE",
"463 605 LINE",
"532 605 LINE"
);
}
);
width = 496;
}
);
rightKerningGroup = d;
unicode = 005E;
},
